<svg xmlns="http://www.w3.org/2000/svg" xmlns:xlink="http://www.w3.org/1999/xlink" width="178" height="32" viewBox="0 0 178 32">
  <defs>
    <clipPath id="clip-path">
      <rect id="Rectangle_19862" data-name="Rectangle 19862" width="178" height="32" transform="translate(4689 -447)" fill="#fff" opacity="0.7"/>
    </clipPath>
  </defs>
  <g id="Large_Size_10Web_Builder" data-name="Large Size_10Web Builder" transform="translate(-4689 447)" clip-path="url(#clip-path)">
    <path id="Path_129486" data-name="Path 129486" d="M140.394,16.269a6.545,6.545,0,0,1-1.769-4.875,7.164,7.164,0,0,1,1.631-5A5.837,5.837,0,0,1,144.768,4.6a5.747,5.747,0,0,1,4.29,1.582,5.952,5.952,0,0,1,1.543,4.33v1.94h-7.931a2.79,2.79,0,0,0,.739,1.717,2.67,2.67,0,0,0,2.01.714,9.012,9.012,0,0,0,2.037-.223,10.278,10.278,0,0,0,2.014-.719l.437-.205v3.277l-.17.084a8.2,8.2,0,0,1-1.96.682,12.194,12.194,0,0,1-2.513.222A6.687,6.687,0,0,1,140.394,16.269Zm2.948-8.085a2.617,2.617,0,0,0-.583,1.414h4.058a2.33,2.33,0,0,0-.553-1.41,1.893,1.893,0,0,0-1.474-.581A1.827,1.827,0,0,0,143.342,8.184Zm-17.714,8a8.085,8.085,0,0,1-1.3-4.86,8.1,8.1,0,0,1,1.324-4.91,4.772,4.772,0,0,1,6.939-.592,12.377,12.377,0,0,1-.11-1.57V0h3.99V17.779h-3.094l-.569-1.4A4.175,4.175,0,0,1,129.29,18,4.315,4.315,0,0,1,125.628,16.187Zm3.3-7.422a4.824,4.824,0,0,0-.573,2.606,4.57,4.57,0,0,0,.574,2.557,1.75,1.75,0,0,0,1.546.777,1.978,1.978,0,0,0,1.653-.635,4.112,4.112,0,0,0,.59-2.361v-.36a4.8,4.8,0,0,0-.555-2.668,1.972,1.972,0,0,0-1.742-.732A1.673,1.673,0,0,0,128.923,8.765ZM97.559,16.74a4.992,4.992,0,0,1-1.187-3.559V4.832h3.978v7.511a3.2,3.2,0,0,0,.417,1.825,1.429,1.429,0,0,0,1.262.538,1.972,1.972,0,0,0,1.786-.806,5.616,5.616,0,0,0,.577-2.959V4.832h3.978V17.779h-3.119l-.392-1.366a3.941,3.941,0,0,1-1.409,1.088,5.568,5.568,0,0,1-2.392.5A4.617,4.617,0,0,1,97.559,16.74ZM64.7,16.516l-.523,1.263H61.09V0h3.979V4.3c0,.378-.024.925-.072,1.633A4.236,4.236,0,0,1,68.259,4.6a4.3,4.3,0,0,1,3.668,1.831,8.148,8.148,0,0,1,1.294,4.852A8.01,8.01,0,0,1,71.884,16.2a4.771,4.771,0,0,1-7.189.314ZM65.6,8.549a4.151,4.151,0,0,0-.534,2.353v.36a4.947,4.947,0,0,0,.537,2.673,1.8,1.8,0,0,0,1.617.728,1.575,1.575,0,0,0,1.391-.813,4.905,4.905,0,0,0,.564-2.61,4.639,4.639,0,0,0-.565-2.558,1.634,1.634,0,0,0-1.434-.776A1.825,1.825,0,0,0,65.6,8.549ZM48.76,16.269a6.545,6.545,0,0,1-1.769-4.875,7.17,7.17,0,0,1,1.631-5A5.837,5.837,0,0,1,53.133,4.6a5.747,5.747,0,0,1,4.29,1.582,5.952,5.952,0,0,1,1.543,4.33v1.94H51.036a2.79,2.79,0,0,0,.739,1.717,2.671,2.671,0,0,0,2.01.714,9.012,9.012,0,0,0,2.037-.223,10.279,10.279,0,0,0,2.014-.719l.437-.205v3.277l-.17.084a8.2,8.2,0,0,1-1.96.682A12.194,12.194,0,0,1,53.63,18,6.687,6.687,0,0,1,48.76,16.269Zm2.948-8.085A2.626,2.626,0,0,0,51.124,9.6h4.058a2.33,2.33,0,0,0-.553-1.41,1.893,1.893,0,0,0-1.474-.581A1.827,1.827,0,0,0,51.707,8.184ZM13.974,15.769A11.415,11.415,0,0,1,12.5,9.408c0-2.9.481-5.07,1.432-6.466a5.092,5.092,0,0,1,4.5-2.158A5.069,5.069,0,0,1,22.91,3.037a11.436,11.436,0,0,1,1.482,6.371c0,2.867-.484,5.03-1.438,6.428A5.111,5.111,0,0,1,18.436,18,5.059,5.059,0,0,1,13.974,15.769ZM17,5.258a12.349,12.349,0,0,0-.5,4.15,12.37,12.37,0,0,0,.49,4.14,1.468,1.468,0,0,0,1.442,1.092,1.5,1.5,0,0,0,1.437-1.111,12,12,0,0,0,.507-4.121,11.986,11.986,0,0,0-.511-4.146,1.506,1.506,0,0,0-1.433-1.107A1.474,1.474,0,0,0,17,5.258ZM152.725,17.779V4.832h3.1l.427,1.787a4.918,4.918,0,0,1,1.376-1.335,4.143,4.143,0,0,1,2.291-.684,5.75,5.75,0,0,1,1.2.107l.262.057-.3,3.789-.357-.1a3.573,3.573,0,0,0-.913-.1,3.288,3.288,0,0,0-2.3.746,2.677,2.677,0,0,0-.8,2.091v6.584Zm-34.542,0V0h3.978V17.779Zm-6.9,0V4.832h3.978V17.779Zm-29.766,0V1.037h5.327a9.849,9.849,0,0,1,5.144,1.024,3.7,3.7,0,0,1,1.693,3.365,4.227,4.227,0,0,1-.737,2.552,3.05,3.05,0,0,1-1.179.985,3.423,3.423,0,0,1,1.587,1.159,4.477,4.477,0,0,1,.737,2.673,4.418,4.418,0,0,1-1.713,3.685,7.222,7.222,0,0,1-4.518,1.3Zm4.034-3.437h1.922a3.044,3.044,0,0,0,1.893-.474,1.694,1.694,0,0,0,.557-1.415c0-.731-.265-1.7-2.561-1.7H85.555Zm0-6.917h1.679a3.379,3.379,0,0,0,1.839-.376,1.31,1.31,0,0,0,.491-1.171,1.129,1.129,0,0,0-.529-1.065,4.114,4.114,0,0,0-1.989-.36H85.555ZM38.5,17.779l-2.243-8.7c-.083-.308-.22-.925-.417-1.884-.011-.054-.022-.108-.033-.16q-.017.083-.033.169c-.177.881-.316,1.519-.412,1.9l-2.233,8.682h-4.36L24.5,1.037h4l2.118,9.041c.184.833.344,1.615.478,2.339,0-.015.006-.031.008-.046.159-.882.311-1.58.454-2.073l2.408-9.261h3.707l2.41,9.266c.1.411.235,1.041.391,1.875.017.093.034.185.051.276.017-.093.034-.187.052-.283.162-.859.312-1.564.445-2.1l2.106-9.037h4l-4.26,16.743Zm-33.783,0V8.133L4.748,6.6l.03-.913c-.291.279-.508.477-.657.6L2.028,7.964,0,5.433l5.521-4.4H8.737V17.779ZM111.144,1.951c0-.89.371-1.951,2.137-1.951s2.138,1.061,2.138,1.951a1.9,1.9,0,0,1-.553,1.441,2.219,2.219,0,0,1-1.585.521C111.515,3.912,111.144,2.845,111.144,1.951Z" transform="translate(4697.311 -440)" fill="#fff"/>
  </g>
</svg>
