<svg xmlns="http://www.w3.org/2000/svg" xmlns:xlink="http://www.w3.org/1999/xlink" width="26" height="26" viewBox="0 0 26 26"><defs><style>.a{fill:none;}.b{fill:#1b5198;}.c{fill:url(#a);}.d{fill:#f4f4f4;}</style><linearGradient id="a" x1="-0.103" y1="1.217" x2="0.762" y2="0.252" gradientUnits="objectBoundingBox"><stop offset="0" stop-color="#2160b5" stop-opacity="0.588"/><stop offset="1" stop-color="#2160b5"/></linearGradient></defs><path class="a" d="M0,0H26V26H0Z" transform="translate(0)"/><g transform="translate(2.364 4.018)"><path class="b" d="M220.324,51.661a4.773,4.773,0,0,0-8.61-2.225q.152-.006.3-.006a7.84,7.84,0,0,1,7.563,5.77,5.522,5.522,0,0,1,2.721,1.5q.1.1.2.206a3.072,3.072,0,0,0-2.175-5.242Z" transform="translate(-202.124 -47.454)"/><path class="c" d="M16.825,124.228a6.4,6.4,0,0,0-12.706,0,4.118,4.118,0,1,0,0,8.237H16.825a4.118,4.118,0,1,0,0-8.237Z" transform="translate(0 -115.659)"/><path class="d" d="M179.41,156.391l-1.982-2.023,0,0-.006-.006,0,0-.005-.005,0,0a1.019,1.019,0,0,0-1.429.013L173.94,156.4a1.019,1.019,0,0,0,1.441,1.441l.23-.23a.04.04,0,0,1,.069.029v3.986a1.038,1.038,0,0,0,1.039,1.042,1.019,1.019,0,0,0,1-1.019v-3.972a.041.041,0,0,1,.069-.028l.181.185a1.019,1.019,0,0,0,1.457,0,1.034,1.034,0,0,0-.017-1.442Zm0,0" transform="translate(-166.176 -144.716)"/></g></svg>