<svg xmlns="http://www.w3.org/2000/svg" xmlns:xlink="http://www.w3.org/1999/xlink" width="17.001" height="18" viewBox="0 0 17.001 18"><defs><style>.a{fill:rgba(164,175,183,0.14);}.b{fill:none;}.c{fill:url(#a);}.d{fill:#fff;}</style><linearGradient id="a" x1="-0.103" y1="1.217" x2="0.762" y2="0.252" gradientUnits="objectBoundingBox"><stop offset="0" stop-color="#2160b5" stop-opacity="0.588"/><stop offset="1" stop-color="#2160b5"/></linearGradient></defs><g transform="translate(-52 -703.5)"><path class="a" d="M7.117,16H1.273A1.274,1.274,0,0,1,0,14.728V1.273A1.272,1.272,0,0,1,1.273,0H12.689a1.272,1.272,0,0,1,1.273,1.273V14.728A1.274,1.274,0,0,1,12.689,16Z" transform="translate(55.04 703.5)"/><rect class="b" width="16.8" height="16.8" transform="translate(52 704.7)"/><path class="c" d="M7.117,16H1.273A1.274,1.274,0,0,1,0,14.727V1.273A1.271,1.271,0,0,1,1.273,0H12.688a1.271,1.271,0,0,1,1.273,1.273V14.727A1.274,1.274,0,0,1,12.688,16Z" transform="translate(53.44 705.1)"/><g transform="translate(55.68 707.58)"><path class="d" d="M8.8,4.059H.706a.706.706,0,0,0,0,1.412H8.8a.706.706,0,0,0,0-1.412Zm0,0" transform="translate(0 -4.059)"/><path class="d" d="M8.8,4.059H.706a.706.706,0,0,0,0,1.412H8.8a.706.706,0,0,0,0-1.412Zm0,0" transform="translate(0 -0.859)"/><path class="d" d="M8.8,4.059H.706a.706.706,0,0,0,0,1.412H8.8a.706.706,0,0,0,0-1.412Zm0,0" transform="translate(0 2.341)"/><path class="d" d="M8.8,4.059H.706a.706.706,0,0,0,0,1.412H8.8a.706.706,0,0,0,0-1.412Zm0,0" transform="translate(0 5.541)"/></g></g></svg>