<svg xmlns="http://www.w3.org/2000/svg" xmlns:xlink="http://www.w3.org/1999/xlink" width="24" height="24" viewBox="0 0 24 24"><defs><style>.a{fill:none;}.b{fill:rgba(50,58,69,0.11);}.c{fill:url(#a);}.d{fill:#f4f4f4;}</style><linearGradient id="a" x1="-0.162" y1="1.226" x2="0.886" y2="0.062" gradientUnits="objectBoundingBox"><stop offset="0" stop-color="#618eca"/><stop offset="1" stop-color="#2160b5"/></linearGradient></defs><g transform="translate(-956 -484)"><path class="a" d="M0,0H24V24H0Z" transform="translate(956 484)"/><rect class="a" width="18.545" height="18.545" transform="translate(958.727 486.727)"/><g transform="translate(958.727 486.727)"><path class="b" d="M4.636,0h7.587A4.636,4.636,0,0,1,16.86,4.636v7.587a4.636,4.636,0,0,1-4.636,4.636H4.636A4.636,4.636,0,0,1,0,12.223V4.636A4.636,4.636,0,0,1,4.636,0Z" transform="translate(1.686 0)"/><path class="c" d="M4.636,0h7.587A4.636,4.636,0,0,1,16.86,4.636v7.587a4.636,4.636,0,0,1-4.636,4.636H4.636A4.636,4.636,0,0,1,0,12.223V4.636A4.636,4.636,0,0,1,4.636,0Z" transform="translate(0 1.686)"/><g transform="translate(3.372 5.058)"><path class="d" d="M-66.091.451A1.4,1.4,0,0,1-65.039,0a1.476,1.476,0,0,1,1.052.426,1.5,1.5,0,0,1,.025,2.1,1.4,1.4,0,0,1-1.052.451,1.5,1.5,0,0,1-1.5-1.478A1.38,1.38,0,0,1-66.091.451Zm2.83,9.192a.425.425,0,0,1-.4.225h-1.553l-7.689-.05a.425.425,0,0,1-.4-.225.308.308,0,0,1,.025-.326l3.982-5.61,2.179,3.131,1.052-1.453,2.805,3.982A.371.371,0,0,1-63.261,9.642Z" transform="translate(73.339 0)"/><path class="d" d="M-66.091.451A1.4,1.4,0,0,1-65.039,0a1.476,1.476,0,0,1,1.052.426,1.5,1.5,0,0,1,.025,2.1,1.4,1.4,0,0,1-1.052.451,1.5,1.5,0,0,1-1.5-1.478A1.38,1.38,0,0,1-66.091.451Zm2.83,9.192a.425.425,0,0,1-.4.225h-1.553l-7.689-.05a.425.425,0,0,1-.4-.225.308.308,0,0,1,.025-.326l3.982-5.61,2.179,3.131,1.052-1.453,2.805,3.982A.371.371,0,0,1-63.261,9.642Z" transform="translate(73.339 0)"/></g></g></g></svg>