<svg xmlns="http://www.w3.org/2000/svg" xmlns:xlink="http://www.w3.org/1999/xlink" width="18" height="18" viewBox="0 0 18 18"><defs><style>.a{fill:url(#a);}</style><linearGradient id="a" x1="-0.103" y1="1.217" x2="0.762" y2="0.252" gradientUnits="objectBoundingBox"><stop offset="0" stop-color="#2160b5" stop-opacity="0.588"/><stop offset="1" stop-color="#2160b5"/></linearGradient></defs><path class="a" d="M13.008,17.243V14.672a.151.151,0,0,0-.151-.151H10.285a.756.756,0,0,1,0-1.512h2.571a.152.152,0,0,0,.151-.152V10.285a.756.756,0,0,1,1.513,0v2.571a.152.152,0,0,0,.151.152h2.571a.756.756,0,1,1,0,1.512H14.672a.151.151,0,0,0-.151.151v2.571a.756.756,0,1,1-1.513,0ZM1.5,18A1.5,1.5,0,0,1,0,16.5V11.03a1.5,1.5,0,0,1,1.5-1.5H7.1a1.5,1.5,0,0,1,1.5,1.5V16.5A1.5,1.5,0,0,1,7.1,18Zm9.318-9.53a1.5,1.5,0,0,1-1.5-1.5V1.5a1.5,1.5,0,0,1,1.5-1.5h5.6a1.5,1.5,0,0,1,1.5,1.5V6.97a1.5,1.5,0,0,1-1.5,1.5ZM1.5,8.47A1.5,1.5,0,0,1,0,6.97V1.5A1.5,1.5,0,0,1,1.5,0H7.1A1.5,1.5,0,0,1,8.6,1.5V6.97a1.5,1.5,0,0,1-1.5,1.5Z"/></svg>