<svg xmlns="http://www.w3.org/2000/svg" xmlns:xlink="http://www.w3.org/1999/xlink" width="24" height="24" viewBox="0 0 24 24"><defs><style>.a{fill:none;}.b{fill:rgba(50,58,69,0.11);}.c{fill:url(#a);}</style><linearGradient id="a" x1="-0.103" y1="1.217" x2="0.762" y2="0.252" gradientUnits="objectBoundingBox"><stop offset="0" stop-color="#2160b5" stop-opacity="0.588"/><stop offset="1" stop-color="#2160b5"/></linearGradient></defs><g transform="translate(-80 -612)"><rect class="a" width="24" height="24" transform="translate(80 612)"/><g transform="translate(83.814 614.182)"><path class="b" d="M27.332,2.111a.558.558,0,0,0-.4-.461A11.793,11.793,0,0,1,23.423.476a28.233,28.233,0,0,1-3.5-2.288,16.93,16.93,0,0,1-3.776,3.084c-1.785.905-3.133,1.421-3.133,1.421-.214.059-.638-.006-.669.214-.04.286-.783,6.25,1.546,9.613a10.952,10.952,0,0,0,5.9,4.255.559.559,0,0,0,.262,0,10.952,10.952,0,0,0,5.9-4.255C28.28,9.158,27.332,2.111,27.332,2.111Z" transform="translate(-11.256 1.812)"/><path class="c" d="M7.624,18.6a.544.544,0,0,1-.132-.016,10.893,10.893,0,0,1-5.9-4.254C-.747,10.954.171,4.209.211,3.923a.555.555,0,0,1,.4-.46,13.3,13.3,0,0,0,3.4-1.175A28.26,28.26,0,0,0,7.624,0a28.73,28.73,0,0,0,3.5,2.288,8.448,8.448,0,0,0,2.554.944c.287.063.582.129.952.232a.558.558,0,0,1,.4.46,28.049,28.049,0,0,1,.183,3.944c-.049,1.991-.361,4.729-1.564,6.466a10.864,10.864,0,0,1-5.9,4.254A.533.533,0,0,1,7.624,18.6ZM4.518,8.389a.554.554,0,0,0-.394.163l-.574.574a.556.556,0,0,0,0,.788l2.892,2.893a.559.559,0,0,0,.789,0L11.91,8.129a.559.559,0,0,0,0-.789l-.574-.574a.559.559,0,0,0-.789,0l-3.71,3.711L4.912,8.553A.554.554,0,0,0,4.518,8.389Z" transform="translate(0 1.034)"/></g></g></svg>