<svg xmlns="http://www.w3.org/2000/svg" xmlns:xlink="http://www.w3.org/1999/xlink" width="24" height="24" viewBox="0 0 24 24"><defs><style>.a{fill:none;}.b{fill:url(#a);}.c{fill:url(#b);}.d{fill:url(#c);}</style><linearGradient id="a" y1="1" x2="0.879" y2="0.068" gradientUnits="objectBoundingBox"><stop offset="0" stop-color="#2160b5" stop-opacity="0.2"/><stop offset="1" stop-color="#4e7fc3"/></linearGradient><linearGradient id="b" y1="1" x2="0.879" y2="0.068" gradientUnits="objectBoundingBox"><stop offset="0" stop-color="#2160b5" stop-opacity="0.6"/><stop offset="1" stop-color="#2160b5"/></linearGradient><linearGradient id="c" y1="1" x2="0.879" y2="0.068" gradientUnits="objectBoundingBox"><stop offset="0" stop-color="#2160b5" stop-opacity="0.702"/><stop offset="1" stop-color="#2160b5"/></linearGradient></defs><g transform="translate(-962 -422)"><rect class="a" width="24" height="24" transform="translate(962 422)"/><path class="b" d="M1.143,0H3.085A1.143,1.143,0,0,1,4.228,1.143v3.7A1.143,1.143,0,0,1,3.085,5.986H1.143A1.143,1.143,0,0,1,0,4.843v-3.7A1.143,1.143,0,0,1,1.143,0Z" transform="translate(965.272 435.919)"/><path class="c" d="M1.143,0H3.085A1.143,1.143,0,0,1,4.228,1.143V14.507A1.143,1.143,0,0,1,3.085,15.65H1.143A1.143,1.143,0,0,1,0,14.507V1.143A1.143,1.143,0,0,1,1.143,0Z" transform="translate(971.886 426.254)"/><path class="d" d="M.969,0H3.259a.969.969,0,0,1,.969.969v7.86a.969.969,0,0,1-.969.969H.969A.969.969,0,0,1,0,8.829V.969A.969.969,0,0,1,.969,0Z" transform="translate(978.499 432.106)"/></g></svg>