<svg xmlns="http://www.w3.org/2000/svg" xmlns:xlink="http://www.w3.org/1999/xlink" width="18" height="18" viewBox="0 0 18 18"><defs><style>.a{fill:none;}.b{fill:url(#a);}</style><linearGradient id="a" x1="-0.103" y1="1.217" x2="0.762" y2="0.252" gradientUnits="objectBoundingBox"><stop offset="0" stop-color="#2160b5" stop-opacity="0.588"/><stop offset="1" stop-color="#2160b5"/></linearGradient></defs><g transform="translate(-5 -686)"><rect class="a" width="18" height="18" transform="translate(5 686)"/><g transform="translate(5.429 687.285)"><path class="b" d="M1,15.43a1,1,0,0,1-1-1V13a1,1,0,0,1,1-1H16.142a1,1,0,0,1,1,1v1.428a1,1,0,0,1-1,1Zm0-6a1,1,0,0,1-1-1V7A1,1,0,0,1,1,6H16.142a1,1,0,0,1,1,1V8.429a1,1,0,0,1-1,1Zm0-6a1,1,0,0,1-1-1V1A1,1,0,0,1,1,0H16.142a1,1,0,0,1,1,1V2.429a1,1,0,0,1-1,1Z" transform="translate(0 0)"/></g></g></svg>