<svg xmlns="http://www.w3.org/2000/svg" xmlns:xlink="http://www.w3.org/1999/xlink" width="178" height="32" viewBox="0 0 178 32">
  <defs>
    <clipPath id="clip-path">
      <rect id="Rectangle_19861" data-name="Rectangle 19861" width="178" height="32" transform="translate(4689 -516)" fill="#fff" opacity="0.7"/>
    </clipPath>
  </defs>
  <g id="Large_Size_Website_Builder" data-name="Large Size_Website Builder" transform="translate(-4689 516)" clip-path="url(#clip-path)">
    <path id="Path_129485" data-name="Path 129485" d="M148.31,15.365a6.184,6.184,0,0,1-1.669-4.6,6.771,6.771,0,0,1,1.539-4.722,5.505,5.505,0,0,1,4.257-1.694,5.422,5.422,0,0,1,4.049,1.494,5.628,5.628,0,0,1,1.456,4.089V11.76h-7.484a2.642,2.642,0,0,0,.7,1.621,2.519,2.519,0,0,0,1.9.675,8.5,8.5,0,0,0,1.923-.211,9.717,9.717,0,0,0,1.9-.679l.411-.194v3.095l-.159.079a7.767,7.767,0,0,1-1.849.644,11.513,11.513,0,0,1-2.372.21A6.306,6.306,0,0,1,148.31,15.365Zm2.781-7.636a2.489,2.489,0,0,0-.55,1.336h3.829a2.207,2.207,0,0,0-.521-1.331,1.788,1.788,0,0,0-1.392-.548A1.726,1.726,0,0,0,151.092,7.729Zm-16.713,7.559a7.641,7.641,0,0,1-1.227-4.59A7.65,7.65,0,0,1,134.4,6.061a4.5,4.5,0,0,1,6.547-.559,11.686,11.686,0,0,1-.1-1.483V0h3.763V16.791h-2.92l-.536-1.319A3.937,3.937,0,0,1,137.833,17,4.069,4.069,0,0,1,134.378,15.288Zm3.108-7.01a4.569,4.569,0,0,0-.541,2.462,4.32,4.32,0,0,0,.542,2.415,1.652,1.652,0,0,0,1.459.734,1.865,1.865,0,0,0,1.559-.6,3.9,3.9,0,0,0,.556-2.231v-.339a4.535,4.535,0,0,0-.525-2.52,1.86,1.86,0,0,0-1.643-.691A1.579,1.579,0,0,0,137.487,8.278ZM107.893,15.81a4.718,4.718,0,0,1-1.121-3.361V4.564h3.754v7.094a3.023,3.023,0,0,0,.394,1.723,1.347,1.347,0,0,0,1.191.508,1.858,1.858,0,0,0,1.684-.761,5.308,5.308,0,0,0,.545-2.794V4.564h3.754V16.791H115.15l-.369-1.29a3.732,3.732,0,0,1-1.33,1.028,5.25,5.25,0,0,1-2.257.47A4.352,4.352,0,0,1,107.893,15.81Zm-32.555-.445a6.184,6.184,0,0,1-1.669-4.6,6.771,6.771,0,0,1,1.539-4.722,5.5,5.5,0,0,1,4.257-1.694,5.42,5.42,0,0,1,4.048,1.494,5.625,5.625,0,0,1,1.457,4.089V11.76H77.486a2.642,2.642,0,0,0,.7,1.621,2.519,2.519,0,0,0,1.9.675A8.5,8.5,0,0,0,82,13.845a9.693,9.693,0,0,0,1.9-.679l.412-.194v3.095l-.16.079a7.743,7.743,0,0,1-1.848.644,11.513,11.513,0,0,1-2.372.21A6.306,6.306,0,0,1,75.338,15.365ZM78.12,7.729a2.481,2.481,0,0,0-.55,1.336H81.4a2.2,2.2,0,0,0-.522-1.331,1.785,1.785,0,0,0-1.391-.548A1.723,1.723,0,0,0,78.12,7.729ZM66.41,15.941a4.488,4.488,0,0,1-.944-3.085V7.529h-1.52v-1.8l1.8-1.095L66.7,2.084h2.52V4.564h3.258V7.529H69.22v5.327a.967.967,0,0,0,.278.78,1.211,1.211,0,0,0,.818.253,6.622,6.622,0,0,0,1.912-.351l.375-.117v2.946l-.171.076A7.423,7.423,0,0,1,69.4,17,3.85,3.85,0,0,1,66.41,15.941Zm-17.166.882a8.487,8.487,0,0,1-1.735-.523l-.176-.075V12.951l.412.194a10.841,10.841,0,0,0,1.942.68,7.836,7.836,0,0,0,1.881.272c1.439,0,1.439-.535,1.439-.71a.553.553,0,0,0-.147-.408,2.982,2.982,0,0,0-.72-.478c-.366-.193-.862-.423-1.476-.682a9.617,9.617,0,0,1-2.035-1.078,3.224,3.224,0,0,1-1-1.208,3.927,3.927,0,0,1-.314-1.648,3.053,3.053,0,0,1,1.325-2.638,6.148,6.148,0,0,1,3.576-.9,10.008,10.008,0,0,1,4.212.944l.253.117L55.5,8.225l-.268-.116c-.572-.245-1.112-.448-1.607-.6a4.864,4.864,0,0,0-1.465-.226c-.741,0-1.116.158-1.116.471,0,.068,0,.275.327.5a12.214,12.214,0,0,0,1.927.9,9.367,9.367,0,0,1,2.066,1.07,3.354,3.354,0,0,1,1.023,1.209,3.707,3.707,0,0,1,.33,1.616A3.5,3.5,0,0,1,55.359,16a6.437,6.437,0,0,1-3.895,1A11.983,11.983,0,0,1,49.244,16.823ZM37.931,15.6l-.494,1.193H34.529V0h3.754V4.061c0,.357-.023.874-.069,1.542a4,4,0,0,1,3.079-1.258,4.054,4.054,0,0,1,3.461,1.73,7.7,7.7,0,0,1,1.221,4.582A7.57,7.57,0,0,1,44.714,15.3a4.5,4.5,0,0,1-6.783.3Zm.856-7.525a3.923,3.923,0,0,0-.5,2.222v.34a4.682,4.682,0,0,0,.506,2.525,1.7,1.7,0,0,0,1.526.686,1.487,1.487,0,0,0,1.312-.767,4.637,4.637,0,0,0,.531-2.465A4.385,4.385,0,0,0,41.626,8.2a1.541,1.541,0,0,0-1.353-.733A1.722,1.722,0,0,0,38.787,8.074ZM22.894,15.365a6.184,6.184,0,0,1-1.669-4.6,6.77,6.77,0,0,1,1.537-4.722,5.506,5.506,0,0,1,4.258-1.694,5.42,5.42,0,0,1,4.048,1.494,5.624,5.624,0,0,1,1.456,4.089V11.76H25.042a2.636,2.636,0,0,0,.7,1.621,2.517,2.517,0,0,0,1.9.675,8.5,8.5,0,0,0,1.923-.211,9.693,9.693,0,0,0,1.9-.679l.412-.194v3.095l-.16.079a7.735,7.735,0,0,1-1.849.644A11.5,11.5,0,0,1,27.49,17,6.306,6.306,0,0,1,22.894,15.365Zm2.781-7.636a2.482,2.482,0,0,0-.551,1.336h3.83a2.2,2.2,0,0,0-.522-1.331,1.785,1.785,0,0,0-1.391-.548A1.723,1.723,0,0,0,25.676,7.729Zm134.27,9.062V4.564h2.922l.4,1.688a4.639,4.639,0,0,1,1.3-1.261,3.907,3.907,0,0,1,2.161-.646,5.406,5.406,0,0,1,1.134.1l.247.054-.287,3.578-.335-.091a3.369,3.369,0,0,0-.861-.094,3.1,3.1,0,0,0-2.173.7,2.529,2.529,0,0,0-.755,1.975v6.218Zm-32.593,0V0h3.754V16.791Zm-6.506,0V4.564H124.6V16.791Zm-28.085,0V.979h5.026a9.288,9.288,0,0,1,4.854.968,3.5,3.5,0,0,1,1.6,3.178,3.988,3.988,0,0,1-.7,2.411,2.871,2.871,0,0,1-1.112.93,3.233,3.233,0,0,1,1.5,1.095,4.231,4.231,0,0,1,.695,2.524,4.176,4.176,0,0,1-1.616,3.48,6.81,6.81,0,0,1-4.263,1.227Zm3.805-3.246H98.38a2.87,2.87,0,0,0,1.786-.447,1.6,1.6,0,0,0,.527-1.337c0-.69-.251-1.607-2.418-1.607H96.566Zm0-6.533h1.584a3.184,3.184,0,0,0,1.735-.356,1.236,1.236,0,0,0,.464-1.106,1.065,1.065,0,0,0-.5-1.006,3.876,3.876,0,0,0-1.877-.34H96.566ZM58.617,16.791V4.564h3.754V16.791Zm-45.4,0L11.1,8.572c-.078-.29-.207-.874-.394-1.78l-.031-.151c-.01.052-.021.106-.031.16-.167.832-.3,1.435-.389,1.791l-2.107,8.2H4.03L0,.979H3.777l2,8.539c.174.787.325,1.525.451,2.209,0-.015.005-.029.007-.044.15-.833.294-1.492.428-1.958L8.934.979h3.5L14.706,9.73c.1.388.222.983.369,1.77.016.088.032.175.048.261.016-.088.032-.176.049-.267.153-.811.295-1.477.42-1.98L17.579.979h3.777l-4.02,15.812Zm107.5-14.949c0-.84.35-1.842,2.018-1.842s2.018,1,2.018,1.842a1.8,1.8,0,0,1-.522,1.361,2.1,2.1,0,0,1-1.5.492C121.061,3.7,120.711,2.687,120.711,1.842Zm-62.229,0C58.481,1,58.831,0,60.5,0s2.018,1,2.018,1.842A1.8,1.8,0,0,1,61.995,3.2a2.1,2.1,0,0,1-1.5.492C58.831,3.7,58.481,2.687,58.481,1.842Z" transform="translate(4693.944 -509)" fill="#fff"/>
  </g>
</svg>
