<svg xmlns="http://www.w3.org/2000/svg" viewBox="0 0 40 40"><defs><style>.cls-1{fill:none;}.cls-2{fill:#6e7883;}</style></defs><title>add to cart</title><g id="Layer_2" data-name="Layer 2"><g id="Layer_1-2" data-name="Layer 1"><rect class="cls-1" width="40" height="40"/><path class="cls-2" d="M22.6,26.73H11.69a2.82,2.82,0,0,1-1.46-5.22L7.55,9.45H3.79A1.24,1.24,0,1,1,3.79,7H8.55a1.24,1.24,0,0,1,1.21,1l.49,2.17H29a1.23,1.23,0,0,1,1.19,1.58l-1.92,6.76a.46.46,0,0,1-.57.31.47.47,0,0,1-.32-.57l1.93-6.75A.32.32,0,0,0,29,11H9.88a.46.46,0,0,1-.45-.35L8.87,8.14a.33.33,0,0,0-.32-.26H3.79a.33.33,0,0,0,0,.66H7.92a.47.47,0,0,1,.45.36L11.2,21.66a.46.46,0,0,1-.26.52,1.89,1.89,0,0,0,.75,3.63H22.6a.46.46,0,0,1,0,.92Z"/><path class="cls-2" d="M22.6,25.16H11.69a1.25,1.25,0,0,1,0-2.49H22.81a.46.46,0,1,1,0,.92H11.69a.33.33,0,1,0,0,.65H22.6a.46.46,0,0,1,0,.92Z"/><path class="cls-2" d="M14.35,32.74A2.76,2.76,0,1,1,17.1,30,2.76,2.76,0,0,1,14.35,32.74Zm0-4.59A1.84,1.84,0,1,0,16.19,30,1.84,1.84,0,0,0,14.35,28.15Z"/><path class="cls-2" d="M23.22,32.74a2.75,2.75,0,0,1-.49-5.46.45.45,0,0,1,.53.37.45.45,0,0,1-.37.53,1.83,1.83,0,0,0,.33,3.64,1.82,1.82,0,0,0,1.6-.93.47.47,0,0,1,.63-.17.46.46,0,0,1,.17.62A2.77,2.77,0,0,1,23.22,32.74Z"/><path class="cls-2" d="M29.8,33a7.66,7.66,0,1,1,7.66-7.65A7.66,7.66,0,0,1,29.8,33Zm0-14.39a6.74,6.74,0,1,0,6.74,6.74A6.75,6.75,0,0,0,29.8,18.64Z"/><path class="cls-2" d="M29.8,29.16a.47.47,0,0,1-.46-.46V22.05a.46.46,0,0,1,.92,0V28.7A.47.47,0,0,1,29.8,29.16Z"/><path class="cls-2" d="M33.13,25.84H26.48a.46.46,0,0,1-.46-.46.45.45,0,0,1,.46-.46h6.65a.45.45,0,0,1,.45.46A.46.46,0,0,1,33.13,25.84Z"/></g></g></svg>