<svg xmlns="http://www.w3.org/2000/svg" viewBox="0 0 40 40"><defs><style>.cls-1{fill:none;}.cls-2{fill:#6e7883;}</style></defs><title>additional information</title><g id="Layer_2" data-name="Layer 2"><g id="Layer_1-2" data-name="Layer 1"><rect class="cls-1" width="40" height="40"/><path class="cls-2" d="M22.6,26.73H11.69a2.82,2.82,0,0,1-1.46-5.22L7.55,9.45H3.78A1.24,1.24,0,1,1,3.78,7H8.55a1.22,1.22,0,0,1,1.21,1l.48,2.17H29a1.23,1.23,0,0,1,1.19,1.58l-1.93,6.78a.46.46,0,0,1-.57.31.45.45,0,0,1-.31-.56l1.93-6.78A.32.32,0,0,0,29,11H9.88a.46.46,0,0,1-.45-.36L8.87,8.14a.33.33,0,0,0-.32-.26H3.78a.33.33,0,0,0,0,.66H7.92a.47.47,0,0,1,.45.36L11.2,21.66a.46.46,0,0,1-.26.52,1.89,1.89,0,0,0,.75,3.63H22.6a.46.46,0,0,1,0,.92Z"/><path class="cls-2" d="M22.49,25.16H11.69a1.25,1.25,0,0,1,0-2.49h11a.46.46,0,1,1,0,.92h-11a.33.33,0,0,0-.33.33.32.32,0,0,0,.33.32h10.8a.46.46,0,0,1,0,.92Z"/><path class="cls-2" d="M14.35,32.74A2.76,2.76,0,1,1,17.1,30,2.75,2.75,0,0,1,14.35,32.74Zm0-4.59A1.84,1.84,0,1,0,16.19,30,1.84,1.84,0,0,0,14.35,28.15Z"/><path class="cls-2" d="M23.22,32.74a2.75,2.75,0,0,1-.57-5.44.44.44,0,0,1,.54.35.46.46,0,0,1-.35.54,1.84,1.84,0,1,0,2,2.68.47.47,0,0,1,.63-.18.46.46,0,0,1,.18.62A2.77,2.77,0,0,1,23.22,32.74Z"/><path class="cls-2" d="M29.8,33a7.66,7.66,0,1,1,7.66-7.65A7.66,7.66,0,0,1,29.8,33Zm0-14.39a6.74,6.74,0,1,0,6.74,6.74A6.75,6.75,0,0,0,29.8,18.64Z"/><path class="cls-2" d="M29.87,29.2a.46.46,0,0,1-.45-.46V24.85a.46.46,0,1,1,.91,0v3.89A.46.46,0,0,1,29.87,29.2Z"/><path class="cls-2" d="M29.87,23.82a1,1,0,0,1-.71-.29.85.85,0,0,1-.21-.32.84.84,0,0,1-.08-.38,1,1,0,0,1,.08-.39,1,1,0,0,1,.21-.32,1,1,0,0,1,.91-.28l.18.06.17.09.16.13a1,1,0,0,1,.21.32,1,1,0,0,1,.08.39,1,1,0,0,1-1,1Z"/></g></g></svg>