<svg xmlns="http://www.w3.org/2000/svg" viewBox="0 0 40 40"><defs><style>.cls-1{fill:none;}.cls-2{fill:#6e7883;}</style></defs><title>animated heading</title><g id="Layer_2" data-name="Layer 2"><g id="Layer_1-2" data-name="Layer 1"><rect class="cls-1" width="40" height="40"/><path class="cls-2" d="M29,11.39H24.44a.45.45,0,0,1-.46-.45V5.74a.46.46,0,0,1,.3-.43.44.44,0,0,1,.5.13l4.56,5.19a.47.47,0,0,1,.08.49A.46.46,0,0,1,29,11.39Zm-4.11-.91H28L24.89,7Z"/><path class="cls-2" d="M27.73,34.72H12.27A1.74,1.74,0,0,1,10.54,33V7a1.74,1.74,0,0,1,1.73-1.73H24.44a.46.46,0,1,1,0,.92H12.27a.81.81,0,0,0-.81.81V33a.81.81,0,0,0,.81.81H27.73a.81.81,0,0,0,.81-.81V10.93a.46.46,0,0,1,.92,0V33A1.74,1.74,0,0,1,27.73,34.72Z"/><path class="cls-2" d="M20.3,19.16H18.74V16.82H16.93v2.34H15.37V13.42h1.56v2.13h1.81V13.42H20.3Z"/><path class="cls-2" d="M24.62,19.16H23v-3c0-.37,0-.7,0-1a2.46,2.46,0,0,1-.36.37l-.65.54-.8-1,2-1.61h1.4Z"/><path class="cls-2" d="M21.1,31.82H13.28a.46.46,0,0,1,0-.92H21.1a.46.46,0,0,1,0,.92Z"/><path class="cls-2" d="M24,29.44H13.28a.46.46,0,0,1,0-.92H24a.46.46,0,0,1,0,.92Z"/><path class="cls-2" d="M26.72,26.89H13.28a.46.46,0,0,1-.46-.46.47.47,0,0,1,.46-.46H26.72a.47.47,0,0,1,.46.46A.46.46,0,0,1,26.72,26.89Z"/><path class="cls-2" d="M20.32,23.42c-5.1,0-5.11-.3-5.13-.77s0-.93,6.9-1.41a79.79,79.79,0,0,0-9,.32.47.47,0,0,1-.5-.41.45.45,0,0,1,.41-.5c4.82-.48,13.64-.51,14.2.29a.52.52,0,0,1,0,.5c-.13.26-.21.43-2.8.57-2.36.13-4.35.31-5.8.48,1,0,2.48,0,4.47,0h0a.47.47,0,0,1,.46.46.46.46,0,0,1-.46.46Z"/></g></g></svg>