<!-- Generated by IcoMoon.io -->
<svg version="1.1" xmlns="http://www.w3.org/2000/svg" width="32" height="32" viewBox="0 0 32 32">
<title>arrow-up</title>
<path d="M14.4 7.68l-13.744 13.76c-0.405 0.405-0.656 0.965-0.656 1.584 0 1.237 1.003 2.24 2.24 2.24 0.619 0 1.179-0.251 1.584-0.656v0l12.176-12.16 12.16 12.176c0.405 0.405 0.965 0.656 1.584 0.656 1.237 0 2.24-1.003 2.24-2.24 0-0.619-0.251-1.179-0.656-1.584v0l-13.728-13.776c-0.405-0.405-0.965-0.656-1.584-0.656s-1.179 0.251-1.584 0.656v0z"></path>
</svg>
