<svg xmlns="http://www.w3.org/2000/svg" viewBox="0 0 40 40"><defs><style>.cls-1{fill:none;}.cls-2{fill:#6e7883;}</style></defs><title>author box</title><g id="Layer_2" data-name="Layer 2"><g id="Layer_1-2" data-name="Layer 1"><rect class="cls-1" width="40" height="40"/><path class="cls-2" d="M20,22.31A5.35,5.35,0,1,1,25.34,17,5.35,5.35,0,0,1,20,22.31Zm0-9.77A4.43,4.43,0,1,0,24.43,17,4.43,4.43,0,0,0,20,12.54Z"/><circle class="cls-2" cx="19.99" cy="15.35" r="1.53"/><path class="cls-2" d="M18.72,17.47h2.55c1.05,0,1.58,1.14,1.58,3.91l-2.94.46-2.79-.46C17.12,18.61,17.67,17.47,18.72,17.47Z"/><path class="cls-2" d="M25.4,28.38H14.6a.46.46,0,0,1-.46-.46.47.47,0,0,1,.46-.46H25.4a.47.47,0,0,1,.46.46A.46.46,0,0,1,25.4,28.38Z"/><path class="cls-2" d="M29.48,26.22h-19a.46.46,0,1,1,0-.91h19a.46.46,0,1,1,0,.91Z"/><path class="cls-2" d="M34,33.25H6.05a2,2,0,0,1-2-2V8.76a2,2,0,0,1,2-2H34a2,2,0,0,1,2,2V31.24A2,2,0,0,1,34,33.25ZM6.05,7.67A1.09,1.09,0,0,0,5,8.76V31.24a1.09,1.09,0,0,0,1.09,1.09H34A1.09,1.09,0,0,0,35,31.24V8.76A1.09,1.09,0,0,0,34,7.67Z"/></g></g></svg>