<!-- Generated by IcoMoon.io -->
<svg version="1.1" xmlns="http://www.w3.org/2000/svg" width="25" height="32" viewBox="0 0 25 32">
<title>bag-solid</title>
<path d="M24.779 28.511l-1.769-21.576h-4.106v-0.424c0.001-0.040 0.001-0.087 0.001-0.134 0-3.596-2.915-6.511-6.511-6.511s-6.511 2.915-6.511 6.511c0 0.047 0 0.094 0.002 0.141l-0-0.007v0.424h-4.106l-1.78 21.576c-0.007 0.079-0.011 0.171-0.011 0.264 0 1.781 1.444 3.225 3.225 3.225 0.001 0 0.002 0 0.003 0h18.346c1.782-0 3.227-1.445 3.227-3.228 0-0.092-0.004-0.183-0.011-0.273l0.001 0.012zM7.537 6.511c-0.001-0.034-0.001-0.075-0.001-0.116 0-2.684 2.176-4.86 4.86-4.86s4.86 2.176 4.86 4.86c0 0.041-0 0.081-0.002 0.122l0-0.006v0.424h-9.716z"></path>
</svg>
