<!-- Generated by IcoMoon.io -->
<svg version="1.1" xmlns="http://www.w3.org/2000/svg" width="26" height="32" viewBox="0 0 26 32">
<title>bag-light</title>
<path d="M25.591 28.068l-1.758-21.579c-0.016-0.213-0.193-0.38-0.409-0.38-0 0-0.001 0-0.001 0h-4.518c0.001-0.039 0.001-0.084 0.001-0.13 0-3.368-2.73-6.098-6.098-6.098s-6.098 2.73-6.098 6.098c0 0.046 0 0.091 0.002 0.136l-0-0.007h-4.51c-0 0-0.001 0-0.001 0-0.216 0-0.394 0.166-0.411 0.378l-0 0.002-1.789 21.579c-0.008 0.088-0.012 0.191-0.012 0.294 0 2.011 1.63 3.641 3.641 3.641 0 0 0.001 0 0.001 0h18.346c2.005-0.007 3.628-1.634 3.628-3.641 0-0.104-0.004-0.206-0.013-0.308l0.001 0.013zM7.537 6.098c-0.001-0.036-0.001-0.078-0.001-0.12 0-2.912 2.361-5.272 5.272-5.272s5.272 2.361 5.272 5.272c0 0.042-0 0.085-0.002 0.127l0-0.006h-10.542zM24.047 30.269c-0.512 0.557-1.244 0.905-2.057 0.905-0.004 0-0.008 0-0.013-0h-18.337c-0.005 0-0.010 0-0.015 0-1.552 0-2.81-1.258-2.81-2.81 0-0.082 0.004-0.164 0.010-0.244l-0.001 0.010 1.739-21.188h4.128v2.752c0 0.228 0.185 0.413 0.413 0.413s0.413-0.185 0.413-0.413v0-2.76h10.561v2.752c0 0.228 0.185 0.413 0.413 0.413s0.413-0.185 0.413-0.413v0-2.752h4.128l1.736 21.188c0.008 0.078 0.012 0.169 0.012 0.26 0 0.729-0.28 1.392-0.738 1.888l0.002-0.002z"></path>
</svg>
