<!-- Generated by IcoMoon.io -->
<svg version="1.1" xmlns="http://www.w3.org/2000/svg" width="26" height="32" viewBox="0 0 26 32">
<title>bag-medium</title>
<path d="M25.752 27.727l-1.714-21.020c-0.034-0.416-0.38-0.74-0.802-0.74-0.001 0-0.002 0-0.003 0h-4.024c-0.201-3.341-2.959-5.975-6.333-5.975s-6.133 2.634-6.333 5.958l-0.001 0.018h-4.024c-0.001 0-0.002 0-0.003 0-0.422 0-0.768 0.325-0.802 0.737l-0 0.003-1.701 21.020c-0.009 0.097-0.013 0.21-0.013 0.325 0 2.181 1.768 3.949 3.949 3.949h17.876c2.177-0.005 3.941-1.771 3.941-3.949 0-0.114-0.005-0.227-0.014-0.339l0.001 0.015zM12.876 1.61c0.002 0 0.004 0 0.005 0 2.479 0 4.512 1.903 4.72 4.328l0.001 0.018h-9.432c0.209-2.436 2.234-4.336 4.704-4.346h0.001zM23.545 29.637c-0.424 0.464-1.032 0.754-1.708 0.754-0.004 0-0.008 0-0.012-0h-17.876c-0.002 0-0.005 0-0.008 0-1.292 0-2.339-1.047-2.339-2.339 0-0.068 0.003-0.135 0.009-0.202l-0.001 0.009 1.663-20.293h3.267v2.267c0 0.444 0.36 0.805 0.805 0.805s0.805-0.36 0.805-0.805v0-2.267h9.475v2.267c0 0.444 0.36 0.805 0.805 0.805s0.805-0.36 0.805-0.805v0-2.267h3.259l1.663 20.293c0.006 0.062 0.009 0.134 0.009 0.207 0 0.608-0.236 1.162-0.622 1.573l0.001-0.001z"></path>
</svg>
