<!-- Generated by IcoMoon.io -->
<svg version="1.1" xmlns="http://www.w3.org/2000/svg" width="38" height="32" viewBox="0 0 38 32">
<title>basket-solid</title>
<path d="M34.718 6.703h-8.993v-0.053c0.001-0.041 0.001-0.089 0.001-0.137 0-3.672-2.977-6.65-6.65-6.65s-6.65 2.977-6.65 6.65c0 0.048 0.001 0.096 0.002 0.144l-0-0.007v0.053h-8.963c-1.913 0.002-3.464 1.552-3.465 3.465v0.281c0.011 1.906 1.558 3.448 3.465 3.451h0.47l1.546 15.98c0.12 1.193 1.118 2.117 2.333 2.119h22.484c0.001 0 0.001 0 0.002 0 1.215 0 2.213-0.925 2.33-2.109l0.001-0.010 1.549-15.98h0.523c1.913-0.003 3.462-1.553 3.465-3.465v-0.281c-0.010-1.901-1.547-3.44-3.447-3.451h-0.001zM11.919 28.175h-0.082c-0.001 0-0.003 0-0.004 0-0.437 0-0.796-0.332-0.839-0.758l-0-0.004-0.86-8.92c-0.002-0.024-0.004-0.053-0.004-0.081 0-0.468 0.379-0.847 0.847-0.847 0.439 0 0.8 0.334 0.843 0.762l0 0.004 0.857 8.932c0.002 0.022 0.003 0.048 0.003 0.074 0 0.437-0.333 0.797-0.759 0.839l-0.004 0zM17.026 28.175h-0.081c-0.001 0-0.003 0-0.004 0-0.437 0-0.796-0.332-0.839-0.758l-0-0.004-0.86-8.92c-0.002-0.024-0.004-0.053-0.004-0.081 0-0.468 0.379-0.847 0.847-0.847 0.439 0 0.8 0.334 0.843 0.762l0 0.004 0.857 8.932c0.002 0.022 0.003 0.048 0.003 0.074 0 0.437-0.333 0.797-0.759 0.839l-0.003 0zM22.028 27.416c-0.043 0.429-0.402 0.762-0.839 0.762-0.001 0-0.003 0-0.004 0h-0.084c-0.426-0.047-0.754-0.404-0.754-0.838 0-0.027 0.001-0.054 0.004-0.081l-0 0.003 0.863-8.923c0.043-0.431 0.404-0.766 0.843-0.766 0.468 0 0.847 0.379 0.847 0.847 0 0.029-0.001 0.057-0.004 0.085l0-0.004zM27.135 27.416c-0.043 0.429-0.402 0.762-0.839 0.762-0.001 0-0.003 0-0.004 0h-0.081c-0.427-0.045-0.757-0.403-0.757-0.839 0-0.027 0.001-0.054 0.004-0.081l-0 0.003 0.863-8.923c0.043-0.431 0.404-0.766 0.843-0.766 0.468 0 0.847 0.379 0.847 0.847 0 0.029-0.001 0.057-0.004 0.085l0-0.004zM14.106 6.65c-0.001-0.035-0.001-0.077-0.001-0.118 0-2.741 2.222-4.963 4.963-4.963s4.963 2.222 4.963 4.963c0 0.042-0 0.083-0.002 0.124l0-0.006v0.053h-9.924zM36.497 10.435c-0.002 0.982-0.797 1.777-1.779 1.779h-31.253c-0.982-0.002-1.777-0.797-1.779-1.779v-0.281c0.002-0.982 0.797-1.777 1.779-1.779h8.954v1.911c0 0.466 0.377 0.843 0.843 0.843s0.843-0.377 0.843-0.843v0-1.911h9.924v1.911c0 0.466 0.378 0.843 0.843 0.843s0.843-0.377 0.843-0.843v0-1.911h8.993c0.982 0.002 1.777 0.797 1.779 1.779v0z"></path>
</svg>
