<!-- Generated by IcoMoon.io -->
<svg version="1.1" xmlns="http://www.w3.org/2000/svg" width="37" height="32" viewBox="0 0 37 32">
<title>basket-medium</title>
<path d="M33.826 6.531h-8.763v-0.052c0.001-0.040 0.001-0.086 0.001-0.133 0-3.578-2.901-6.479-6.479-6.479s-6.479 2.901-6.479 6.479c0 0.047 0.001 0.094 0.002 0.14l-0-0.007v0.052h-8.732c-1.864 0.002-3.375 1.512-3.376 3.376v0.274c0.010 1.729 1.317 3.15 2.997 3.339l0.015 0.001 1.517 15.671c0.152 1.581 1.473 2.807 3.081 2.807 0.003 0 0.006 0 0.008 0h21.906c0.002 0 0.005 0 0.008 0 1.608 0 2.93-1.226 3.082-2.794l0.001-0.013 1.517-15.666c1.721-0.171 3.054-1.609 3.059-3.359v-0.274c-0.009-1.854-1.511-3.355-3.365-3.363h-0.001zM13.744 6.479c-0.001-0.034-0.001-0.075-0.001-0.115 0-2.671 2.165-4.836 4.836-4.836s4.836 2.165 4.836 4.836c0 0.040-0 0.081-0.002 0.121l0-0.006v0.052h-9.669zM30.995 29.034c-0.072 0.745-0.695 1.323-1.453 1.323-0.001 0-0.003 0-0.004 0h-21.906c-0.004 0-0.009 0-0.014 0-0.761 0-1.386-0.582-1.453-1.325l-0-0.006-1.495-15.444h27.816zM35.563 10.167c-0.002 0.957-0.777 1.732-1.733 1.733h-30.453c-0.957-0.002-1.732-0.777-1.733-1.733v-0.274c0.002-0.957 0.777-1.732 1.733-1.733h8.724v1.862c0 0.454 0.368 0.822 0.822 0.822s0.822-0.368 0.822-0.822v0-1.862h9.669v1.862c0 0.454 0.368 0.822 0.822 0.822s0.822-0.368 0.822-0.822v0-1.862h8.763c0.957 0.002 1.732 0.777 1.733 1.733v0z"></path>
<path d="M11.534 27.454h0.079c0.419-0.041 0.743-0.392 0.743-0.818 0-0.026-0.001-0.052-0.004-0.078l0 0.003-0.852-8.702c-0.042-0.42-0.394-0.746-0.822-0.746-0.456 0-0.825 0.369-0.825 0.825 0 0.028 0.001 0.056 0.004 0.083l-0-0.003 0.841 8.694c0.042 0.418 0.392 0.742 0.818 0.742 0.006 0 0.012-0 0.018-0l-0.001 0z"></path>
<path d="M16.509 27.454h0.079c0.419-0.041 0.743-0.392 0.743-0.818 0-0.026-0.001-0.052-0.004-0.078l0 0.003-0.841-8.702c-0.042-0.42-0.394-0.746-0.822-0.746-0.456 0-0.825 0.369-0.825 0.825 0 0.028 0.001 0.056 0.004 0.083l-0-0.003 0.843 8.694c0.042 0.418 0.392 0.742 0.818 0.742 0.001 0 0.003 0 0.004 0h-0z"></path>
<path d="M20.565 27.452h0.082c0.001 0 0.003 0 0.004 0 0.426 0 0.776-0.324 0.817-0.739l0-0.003 0.835-8.691c0.002-0.024 0.004-0.051 0.004-0.079 0-0.456-0.369-0.825-0.825-0.825-0.428 0-0.78 0.326-0.821 0.742l-0 0.003-0.832 8.702c-0.002 0.022-0.003 0.047-0.003 0.073 0 0.425 0.323 0.774 0.736 0.817l0.003 0z"></path>
<path d="M25.543 27.452h0.079c0.001 0 0.003 0 0.004 0 0.426 0 0.776-0.324 0.817-0.739l0-0.003 0.835-8.691c0.002-0.024 0.004-0.051 0.004-0.079 0-0.456-0.369-0.825-0.825-0.825-0.428 0-0.78 0.326-0.821 0.742l-0 0.003-0.832 8.702c-0.002 0.022-0.003 0.047-0.003 0.072 0 0.426 0.324 0.776 0.739 0.817l0.003 0z"></path>
</svg>
