<!-- Generated by IcoMoon.io -->
<svg version="1.1" xmlns="http://www.w3.org/2000/svg" width="37" height="32" viewBox="0 0 37 32">
<title>basket-light</title>
<path d="M34.288 6.703h-9.415v-0.475c0.001-0.039 0.001-0.086 0.001-0.132 0-3.44-2.788-6.228-6.228-6.228s-6.228 2.788-6.228 6.228c0 0.046 0.001 0.093 0.002 0.139l-0-0.007v0.475h-9.376c-1.68 0.002-3.042 1.363-3.044 3.044v0.281c0.010 1.674 1.368 3.028 3.044 3.030h0l1.602 16.453c0.136 1.407 1.313 2.498 2.745 2.498 0.002 0 0.005 0 0.007 0h22.483c0.003 0 0.006 0 0.009 0 1.432 0 2.608-1.091 2.744-2.487l0.001-0.011 1.591-16.444h0.062c1.68-0.002 3.042-1.363 3.044-3.044v-0.281c-0.005-1.678-1.365-3.037-3.044-3.038h-0zM31.798 29.42c-0.095 0.978-0.913 1.737-1.908 1.737-0.002 0-0.004 0-0.006 0h-22.483c-0.002 0-0.003 0-0.005 0-0.995 0-1.812-0.759-1.905-1.729l-0.001-0.008-1.579-16.301h29.476zM13.249 6.228c-0.001-0.037-0.001-0.080-0.001-0.123 0-2.974 2.411-5.385 5.385-5.385s5.385 2.411 5.385 5.385c0 0.043-0 0.086-0.002 0.129l0-0.006v0.475h-10.753zM36.483 10.014c-0.002 1.213-0.983 2.196-2.195 2.201h-31.244c-1.215-0.002-2.199-0.986-2.201-2.2v-0.281c0.002-1.215 0.986-2.199 2.2-2.201h9.376v2.333c0 0.233 0.189 0.422 0.422 0.422s0.422-0.189 0.422-0.422v0-2.333h10.767v2.333c0 0.233 0.189 0.422 0.422 0.422s0.422-0.189 0.422-0.422v0-2.333h9.415c1.215 0.002 2.199 0.986 2.201 2.2v0z"></path>
<path d="M11.416 27.335h0.042c0.214-0.023 0.379-0.202 0.379-0.419 0-0.015-0.001-0.029-0.002-0.043l0 0.002-0.874-8.923c-0.021-0.216-0.202-0.383-0.422-0.383-0.234 0-0.424 0.19-0.424 0.424 0 0.014 0.001 0.029 0.002 0.043l-0-0.002 0.866 8.923c0.022 0.214 0.201 0.38 0.419 0.38 0.005 0 0.009-0 0.014-0l-0.001 0z"></path>
<path d="M16.523 27.335h0.042c0.215-0.023 0.381-0.203 0.381-0.422 0-0.014-0.001-0.027-0.002-0.040l0 0.002-0.866-8.923c-0.021-0.216-0.202-0.383-0.422-0.383-0.234 0-0.424 0.19-0.424 0.424 0 0.014 0.001 0.029 0.002 0.043l-0-0.002 0.868 8.923c0.022 0.214 0.201 0.379 0.419 0.379h0z"></path>
<path d="M20.727 27.335h0.039c0.218-0 0.398-0.165 0.421-0.378l0-0.002 0.863-8.923c0.001-0.012 0.002-0.026 0.002-0.041 0-0.234-0.19-0.424-0.424-0.424-0.22 0-0.4 0.167-0.421 0.381l-0 0.002-0.86 8.923c-0.001 0.012-0.002 0.027-0.002 0.041 0 0.219 0.167 0.398 0.38 0.42l0.002 0z"></path>
<path d="M25.834 27.335h0.042c0.218-0 0.397-0.166 0.419-0.378l0-0.002 0.863-8.923c0.001-0.012 0.002-0.026 0.002-0.041 0-0.234-0.19-0.424-0.424-0.424-0.22 0-0.4 0.167-0.421 0.381l-0 0.002-0.86 8.923c-0.001 0.012-0.002 0.025-0.002 0.039 0 0.219 0.166 0.4 0.379 0.422l0.002 0z"></path>
</svg>
