<svg xmlns="http://www.w3.org/2000/svg" viewBox="0 0 40 40"><defs><style>.cls-1{fill:none;}.cls-2{fill:#6e7883;}</style></defs><title>Blockquotes_1</title><g id="Layer_2" data-name="Layer 2"><g id="Layer_1-2" data-name="Layer 1"><rect class="cls-1" width="40" height="40"/><path class="cls-2" d="M35.5,13.1a.46.46,0,0,1-.31-.13L29.45,7.55a.47.47,0,0,1,0-.65.46.46,0,0,1,.65,0l5.73,5.42a.45.45,0,0,1,0,.65A.44.44,0,0,1,35.5,13.1Z"/><path class="cls-2" d="M34,33.25H6.05a2,2,0,0,1-2-2V8.76a2,2,0,0,1,2-2H29.61a.45.45,0,0,1,.33.14.48.48,0,0,1,.13.32v5.27l5.42-.1a.47.47,0,0,1,.33.13.43.43,0,0,1,.14.32V31.24A2,2,0,0,1,34,33.25ZM6.05,7.67A1.09,1.09,0,0,0,5,8.76V31.24a1.09,1.09,0,0,0,1.09,1.09H34A1.09,1.09,0,0,0,35,31.24V13.3l-5.42.11a.55.55,0,0,1-.33-.13.47.47,0,0,1-.14-.33V7.67Z"/><path class="cls-2" d="M14.62,25.54h0a.51.51,0,0,1-.41-.29.46.46,0,0,1,.07-.48A3.19,3.19,0,0,0,15.11,23l-.31-.1-.14-.05a7.7,7.7,0,0,1-.83-.36,3.05,3.05,0,0,1-1.75-2.56,3.83,3.83,0,0,1,1.29-3.35,3.62,3.62,0,0,1,3.35-.71,3.44,3.44,0,0,1,2.35,2.51,5,5,0,0,1-.51,3.9A7.16,7.16,0,0,1,15,25.45l-.15.06A.83.83,0,0,1,14.62,25.54Zm1.09-8.94a2.64,2.64,0,0,0-1.73.62,2.93,2.93,0,0,0-1,2.59,2.17,2.17,0,0,0,1.26,1.83A6.81,6.81,0,0,0,15,22l.13.05a2.91,2.91,0,0,0,.39.12l.21.07a.44.44,0,0,1,.32.44A3.91,3.91,0,0,1,15.81,24a6.35,6.35,0,0,0,2-2.16,4.16,4.16,0,0,0,.43-3.21,2.51,2.51,0,0,0-1.73-1.88A2.67,2.67,0,0,0,15.71,16.6Z"/><path class="cls-2" d="M23.13,25.54a.47.47,0,0,1-.39-.19.45.45,0,0,1,0-.55,3.41,3.41,0,0,0,.76-1.42,2.57,2.57,0,0,0,.06-.4s0,0,0,0l-.7-.23c-.17-.07-.34-.14-.49-.22A3.21,3.21,0,0,1,20.56,19a3.49,3.49,0,0,1,2.36-3.1,3.52,3.52,0,0,1,3,.22,3.67,3.67,0,0,1,1.72,2.57,5.16,5.16,0,0,1-.6,3.52,7.15,7.15,0,0,1-3.58,3.22l-.16.06Zm1.11-8.94a2.91,2.91,0,0,0-1,.19,2.56,2.56,0,0,0-1.75,2.33,2.26,2.26,0,0,0,1.33,2.56,1.76,1.76,0,0,0,.37.17l.9.29a.59.59,0,0,1,.44.69c0,.09,0,.18,0,.26a3.89,3.89,0,0,1-.08.51,3.07,3.07,0,0,1-.11.36,6.28,6.28,0,0,0,1.95-2.17,4.33,4.33,0,0,0,.5-2.92,2.76,2.76,0,0,0-1.28-1.94A2.34,2.34,0,0,0,24.24,16.6Zm-.64,6.08Z"/></g></g></svg>