<svg xmlns="http://www.w3.org/2000/svg" viewBox="0 0 40 40"><defs><style>.cls-1{fill:none;}.cls-2{fill:#6e7883;}</style></defs><title>breadcrumbs</title><g id="Layer_2" data-name="Layer 2"><g id="Layer_1-2" data-name="Layer 1"><rect class="cls-1" width="40" height="40"/><path class="cls-2" d="M12.59,10.33H7.28a.46.46,0,1,1,0-.91h5.31a.46.46,0,0,1,0,.91Z"/><path class="cls-2" d="M24,10.33h-5.3a.46.46,0,1,1,0-.91H24a.46.46,0,1,1,0,.91Z"/><path class="cls-2" d="M31,12.14A.47.47,0,0,1,30.7,12L25.91,7.49a.46.46,0,0,1,0-.65.45.45,0,0,1,.64,0l4.79,4.53a.46.46,0,0,1,0,.65A.47.47,0,0,1,31,12.14Z"/><path class="cls-2" d="M24.94,29H6.43a1.75,1.75,0,0,1-1.75-1.76V8.45A1.75,1.75,0,0,1,6.43,6.69H26.1a.47.47,0,0,1,.33.14.48.48,0,0,1,.13.32v4.33L31,11.39a.45.45,0,0,1,.33.13.49.49,0,0,1,.13.33v7.82a.46.46,0,1,1-.91,0V12.31l-4.45.09a.39.39,0,0,1-.33-.13.45.45,0,0,1-.14-.33V7.61H6.43a.85.85,0,0,0-.84.84V27.21a.85.85,0,0,0,.84.84H24.94a.46.46,0,0,1,.46.46A.47.47,0,0,1,24.94,29Z"/><path class="cls-2" d="M30.94,32.83a6.66,6.66,0,1,1,6.65-6.66A6.67,6.67,0,0,1,30.94,32.83Zm0-12.4a5.74,5.74,0,1,0,5.74,5.74A5.75,5.75,0,0,0,30.94,20.43Z"/><path class="cls-2" d="M29.52,27.21h3.54a.2.2,0,0,0,.19-.14L34,24.32a.22.22,0,0,0,0-.17.18.18,0,0,0-.15-.08H29.07l-.14-.63a.19.19,0,0,0-.19-.15H27.55a.2.2,0,0,0-.2.2.19.19,0,0,0,.2.19h1l.71,3.19A.59.59,0,0,0,29.52,28h3.54a.2.2,0,1,0,0-.4H29.52a.18.18,0,0,1-.19-.19A.19.19,0,0,1,29.52,27.21Z"/><path class="cls-2" d="M29.61,28.92a.58.58,0,1,0,.57-.57A.58.58,0,0,0,29.61,28.92Z"/><path class="cls-2" d="M31.83,28.92a.57.57,0,1,0,.57-.57A.57.57,0,0,0,31.83,28.92Z"/><path class="cls-2" d="M14.24,11.13A.47.47,0,0,1,14,11a.46.46,0,0,1-.08-.65l.4-.52-.4-.52A.46.46,0,0,1,14,8.71a.47.47,0,0,1,.65.08l.61.79.06.1a.41.41,0,0,1,0,.19.48.48,0,0,1,0,.2l-.06.09-.62.8A.48.48,0,0,1,14.24,11.13Z"/><path class="cls-2" d="M16.45,11.13a.49.49,0,0,1-.28-.09.47.47,0,0,1-.08-.65l.41-.52-.4-.51a.46.46,0,1,1,.72-.57l.61.79a.21.21,0,0,1,.06.1.59.59,0,0,1,.05.19.49.49,0,0,1-.05.2.24.24,0,0,1-.06.09l-.62.8A.46.46,0,0,1,16.45,11.13Z"/></g></g></svg>