<!-- Generated by IcoMoon.io -->
<svg version="1.1" xmlns="http://www.w3.org/2000/svg" width="32" height="32" viewBox="0 0 32 32">
<title>builder</title>
<path d="M15.415 30.139l-13.792-6.836c-0.438-0.22-0.734-0.666-0.734-1.181 0-0.214 0.051-0.416 0.142-0.595l-0.003 0.008c0.22-0.438 0.667-0.734 1.182-0.734 0.213 0 0.414 0.050 0.592 0.14l-0.008-0.003 13.205 6.544 13.205-6.544c0.171-0.087 0.372-0.137 0.586-0.137 0.515 0 0.962 0.296 1.178 0.727l0.003 0.008c0.087 0.171 0.138 0.373 0.138 0.587 0 0.516-0.296 0.962-0.728 1.178l-0.008 0.003-13.79 6.836c-0.171 0.086-0.372 0.137-0.585 0.137h-0c-0 0-0 0-0 0-0.213 0-0.414-0.051-0.592-0.14l0.008 0.003zM15.415 24.005l-13.792-6.836c-0.44-0.221-0.736-0.668-0.736-1.184 0-0.216 0.052-0.421 0.144-0.601l-0.003 0.007c0.22-0.438 0.667-0.734 1.182-0.734 0.213 0 0.414 0.050 0.592 0.14l-0.008-0.003 13.205 6.546 13.205-6.546c0.171-0.086 0.372-0.137 0.585-0.137 0.515 0 0.962 0.296 1.179 0.726l0.003 0.008c0.089 0.173 0.141 0.377 0.141 0.593 0 0.517-0.297 0.965-0.731 1.181l-0.008 0.003-13.79 6.836c-0.17 0.087-0.371 0.139-0.585 0.139-0 0-0 0-0 0h0c-0.214-0.002-0.415-0.055-0.592-0.147l0.007 0.003zM15.415 17.95l-13.79-6.836c-0.437-0.222-0.732-0.667-0.732-1.182v-0c0-0.001 0-0.001 0-0.002 0-0.514 0.295-0.96 0.725-1.177l0.008-0.003 13.792-6.836c0.171-0.087 0.372-0.138 0.586-0.138s0.415 0.051 0.593 0.141l-0.007-0.003 13.79 6.836c0.439 0.22 0.734 0.667 0.734 1.182v0c-0 0.515-0.296 0.961-0.727 1.179l-0.008 0.003-13.79 6.836c-0.17 0.085-0.371 0.135-0.583 0.135-0.001 0-0.001 0-0.002 0h0c-0.005 0-0.011 0-0.017 0-0.208 0-0.405-0.048-0.581-0.133l0.008 0.003z"></path>
</svg>
