<svg xmlns="http://www.w3.org/2000/svg" viewBox="0 0 40 40"><defs><style>.cls-1{fill:none;}.cls-2{fill:#6e7883;}</style></defs><title>calendar_1</title><g id="Layer_2" data-name="Layer 2"><g id="Layer_1-2" data-name="Layer 1"><rect class="cls-1" width="40" height="40"/><g id="_Group_" data-name="&lt;Group&gt;"><path class="cls-2" d="M30.43,33.83a.46.46,0,0,1-.32-.13l-3-2.94a.58.58,0,0,1-.14-.33.47.47,0,0,1,.14-.33l1.31-1.29a.46.46,0,0,1,.37-.13.45.45,0,0,1,.33.2l.83,1.21a17.65,17.65,0,0,1,6.42-6.26.43.43,0,0,1,.46,0,.45.45,0,0,1,.23.39v2.93a.46.46,0,0,1-.31.43,10.44,10.44,0,0,0-5.87,6,.47.47,0,0,1-.32.29Zm-2.37-3.4,2.2,2.14a11.26,11.26,0,0,1,5.85-5.74V25a16,16,0,0,0-5.7,6.07.56.56,0,0,1-.44.31.46.46,0,0,1-.38-.2l-.94-1.37Z"/></g><g id="_Group_2" data-name="&lt;Group&gt;"><path class="cls-2" d="M32.4,13h0L5.6,13a.45.45,0,0,1-.46-.46V8.93A1.9,1.9,0,0,1,7.05,7h3.26a.45.45,0,0,1,.45.45V9.36a1,1,0,0,0,.92,1h1.94a1,1,0,0,0,1-1V7.48A.46.46,0,0,1,15,7h7.51a.45.45,0,0,1,.45.45V9.36a1,1,0,0,0,.94,1h1.92a1,1,0,0,0,1-1V7.48A.46.46,0,0,1,27.28,7h3.6a2,2,0,0,1,2,1.9v3.62a.46.46,0,0,1-.13.32A.47.47,0,0,1,32.4,13ZM6.05,12.07l25.9,0V9a1.1,1.1,0,0,0-1.07-1H27.74V9.36a1.89,1.89,0,0,1-1.88,1.88H23.92a1.88,1.88,0,0,1-1.83-1.88V7.94H15.5V9.36a1.89,1.89,0,0,1-1.88,1.88h-2A1.87,1.87,0,0,1,9.85,9.36V7.94H7.05a1,1,0,0,0-1,1Z"/></g><g id="_Group_3" data-name="&lt;Group&gt;"><path class="cls-2" d="M11.77,18.68H8.08a.45.45,0,0,1-.46-.46V15a.45.45,0,0,1,.46-.45h3.69a.46.46,0,0,1,.46.45v3.26A.46.46,0,0,1,11.77,18.68Zm-3.24-.91h2.78V15.42H8.53Z"/></g><g id="_Group_4" data-name="&lt;Group&gt;"><path class="cls-2" d="M11.77,24.44H8.08A.45.45,0,0,1,7.62,24V20.73a.45.45,0,0,1,.46-.46h3.69a.46.46,0,0,1,.46.46V24A.46.46,0,0,1,11.77,24.44Zm-3.24-.91h2.78V21.18H8.53Z"/></g><g id="_Group_5" data-name="&lt;Group&gt;"><path class="cls-2" d="M11.77,30.49H8.08A.45.45,0,0,1,7.62,30V26.77a.45.45,0,0,1,.46-.45h3.69a.46.46,0,0,1,.46.45V30A.46.46,0,0,1,11.77,30.49Zm-3.24-.91h2.78V27.23H8.53Z"/></g><g id="_Group_6" data-name="&lt;Group&gt;"><path class="cls-2" d="M17.88,18.68H14.19a.46.46,0,0,1-.46-.46V15a.46.46,0,0,1,.46-.45h3.69a.45.45,0,0,1,.46.45v3.26A.45.45,0,0,1,17.88,18.68Zm-3.23-.91h2.78V15.42H14.65Z"/></g><g id="_Group_7" data-name="&lt;Group&gt;"><path class="cls-2" d="M17.88,24.44H14.19a.46.46,0,0,1-.46-.45V20.73a.46.46,0,0,1,.46-.46h3.69a.45.45,0,0,1,.46.46V24A.45.45,0,0,1,17.88,24.44Zm-3.23-.91h2.78V21.18H14.65Z"/></g><g id="_Group_8" data-name="&lt;Group&gt;"><path class="cls-2" d="M17.88,30.49H14.19a.46.46,0,0,1-.46-.46V26.77a.46.46,0,0,1,.46-.45h3.69a.45.45,0,0,1,.46.45V30A.45.45,0,0,1,17.88,30.49Zm-3.23-.91h2.78V27.23H14.65Z"/></g><g id="_Group_9" data-name="&lt;Group&gt;"><path class="cls-2" d="M24,18.68H20.3a.46.46,0,0,1-.46-.46V15a.46.46,0,0,1,.46-.45H24a.45.45,0,0,1,.45.45v3.26A.45.45,0,0,1,24,18.68Zm-3.24-.91h2.78V15.42H20.76Z"/></g><g id="_Group_10" data-name="&lt;Group&gt;"><path class="cls-2" d="M24,24.44H20.3a.46.46,0,0,1-.46-.45V20.73a.46.46,0,0,1,.46-.46H24a.45.45,0,0,1,.45.46V24A.45.45,0,0,1,24,24.44Zm-3.24-.91h2.78V21.18H20.76Z"/></g><g id="_Group_11" data-name="&lt;Group&gt;"><path class="cls-2" d="M30.13,18.68H26.44a.46.46,0,0,1-.46-.46V15a.46.46,0,0,1,.46-.45h3.69a.45.45,0,0,1,.46.45v3.26A.45.45,0,0,1,30.13,18.68Zm-3.23-.91h2.78V15.42H26.9Z"/></g><g id="_Group_12" data-name="&lt;Group&gt;"><path class="cls-2" d="M12.72,9.82a1.24,1.24,0,0,1-1.24-1v-2a.45.45,0,0,1,.46-.46h1.59A.46.46,0,0,1,14,6.9V8.76s0,.07,0,.1A1.26,1.26,0,0,1,12.72,9.82Zm-.34-1.13a.34.34,0,0,0,.34.21.34.34,0,0,0,.34-.2V7.35h-.68Zm1.14.07h0Z"/></g><g id="_Group_13" data-name="&lt;Group&gt;"><path class="cls-2" d="M25.05,9.82a1.24,1.24,0,0,1-1.24-1v-2a.45.45,0,0,1,.45-.46h1.6a.45.45,0,0,1,.45.46V8.76a.34.34,0,0,1,0,.1A1.24,1.24,0,0,1,25.05,9.82Zm-.34-1.13a.33.33,0,0,0,.34.21.35.35,0,0,0,.34-.2V7.35h-.68Zm1.14.07h0Z"/></g><path class="cls-2" d="M20.86,33.69h0l-12.79,0a3,3,0,0,1-3-3l0-18.14a.47.47,0,0,1,.46-.46h0l26.81,0a.45.45,0,0,1,.46.46V23.36a.48.48,0,0,1-.16.35.47.47,0,0,1-.36.1,9.65,9.65,0,0,0-11,9.42A.47.47,0,0,1,20.86,33.69ZM6.05,13,6,30.69a2,2,0,0,0,2,2.05l12.35,0A10.55,10.55,0,0,1,32,22.84V13Z"/><path class="cls-2" d="M22.92,33.69h0a.47.47,0,0,1-.45-.47,8.6,8.6,0,0,1,8.75-8.51,8.79,8.79,0,0,1,1.26.09.46.46,0,1,1-.13.91,7.16,7.16,0,0,0-1.13-.08,7.69,7.69,0,0,0-7.83,7.6A.47.47,0,0,1,22.92,33.69Z"/></g></g></svg>