<svg xmlns="http://www.w3.org/2000/svg" viewBox="0 0 40 40"><defs><style>.cls-1{fill:none;}.cls-2{fill:#6e7883;}</style></defs><title>call to action</title><g id="Layer_2" data-name="Layer 2"><g id="Layer_1-2" data-name="Layer 1"><rect class="cls-1" width="40" height="40"/><path class="cls-2" d="M24.59,32.28a.46.46,0,0,1-.35-.17l-.64-.76a.46.46,0,1,1,.71-.59l.63.76a.47.47,0,0,1-.35.76Z"/><path class="cls-2" d="M22.43,32.24h-.12a.45.45,0,0,1-.32-.31l-1.32-4.44a.45.45,0,0,1,.65-.54l4.09,2.17a.47.47,0,0,1,.24.38.46.46,0,0,1-.2.41l-1.49,1-1.22,1.18A.42.42,0,0,1,22.43,32.24Zm-.57-4,.79,2.67.73-.71.94-.65Z"/><path class="cls-2" d="M21.17,28.73H18.12a.46.46,0,0,1-.45-.46.45.45,0,0,1,.45-.46h3.05a.45.45,0,0,1,.45.46A.46.46,0,0,1,21.17,28.73Z"/><path class="cls-2" d="M25.73,19H14.32a.46.46,0,1,1,0-.91H25.73a.46.46,0,1,1,0,.91Z"/><path class="cls-2" d="M25.73,16.81H14.32a.46.46,0,0,1-.46-.46.47.47,0,0,1,.46-.46H25.73a.47.47,0,0,1,.46.46A.46.46,0,0,1,25.73,16.81Z"/><path class="cls-2" d="M23.32,14.65H17.24a.46.46,0,1,1,0-.91h6.08a.46.46,0,1,1,0,.91Z"/><path class="cls-2" d="M27.88,34.68H12.42A1.73,1.73,0,0,1,10.69,33V7a1.73,1.73,0,0,1,1.73-1.72H27.88A1.72,1.72,0,0,1,29.61,7V33A1.72,1.72,0,0,1,27.88,34.68ZM12.42,6.16a.81.81,0,0,0-.81.81V33a.81.81,0,0,0,.81.81H27.88a.81.81,0,0,0,.81-.81V7a.81.81,0,0,0-.81-.81Z"/></g></g></svg>