<!-- Generated by IcoMoon.io -->
<svg version="1.1" xmlns="http://www.w3.org/2000/svg" width="35" height="32" viewBox="0 0 35 32">
<title>cart-solid</title>
<path d="M11.188 20.218h18.265c0.002 0 0.004 0 0.006 0 0.457 0 0.843-0.307 0.962-0.725l0.002-0.007 4.045-14.152c0.027-0.087 0.043-0.187 0.043-0.29 0-0.552-0.448-1-1-1-0.004 0-0.007 0-0.011 0h-24.647l-0.723-3.25c-0.099-0.456-0.499-0.793-0.978-0.793-0.002 0-0.005 0-0.007 0h-6.145c-0.558 0-1.011 0.453-1.011 1.011s0.453 1.011 1.011 1.011v0h5.332l3.65 16.427c-1.086 0.477-1.831 1.543-1.831 2.782 0 1.673 1.357 3.030 3.030 3.030 0.002 0 0.004 0 0.006 0h18.265c0.558 0 1.011-0.453 1.011-1.011s-0.453-1.011-1.011-1.011v0h-18.265c-0.559 0-1.011-0.453-1.011-1.011s0.453-1.011 1.011-1.011v0z"></path>
<path d="M14.61 26.090c-1.632 0-2.955 1.323-2.955 2.955s1.323 2.955 2.955 2.955c1.632 0 2.955-1.323 2.955-2.955v0c-0.001-1.631-1.324-2.954-2.955-2.955h-0z"></path>
<path d="M26.030 26.090c-1.632 0-2.955 1.323-2.955 2.955s1.323 2.955 2.955 2.955c1.632 0 2.955-1.323 2.955-2.955v0c-0.001-1.631-1.324-2.954-2.955-2.955h-0z"></path>
</svg>
