<!-- Generated by IcoMoon.io -->
<svg version="1.1" xmlns="http://www.w3.org/2000/svg" width="34" height="32" viewBox="0 0 34 32">
<title>cart-medium</title>
<path d="M11.403 20.747h17.447c0.764-0.002 1.408-0.511 1.614-1.208l0.003-0.012 3.862-13.521c0.044-0.143 0.070-0.307 0.070-0.478 0-0.923-0.748-1.672-1.672-1.672-0.005 0-0.010 0-0.016 0h-22.963l-0.566-2.538c-0.168-0.759-0.836-1.318-1.634-1.318-0.002 0-0.005 0-0.007 0h-5.869c-0.929 0-1.682 0.753-1.682 1.682s0.753 1.682 1.682 1.682v0h4.518l3.245 14.603c-0.998 0.653-1.648 1.766-1.648 3.030 0 1.994 1.617 3.611 3.611 3.611 0.002 0 0.003 0 0.005 0h17.447c0.929 0 1.682-0.753 1.682-1.682s-0.753-1.682-1.682-1.682v0h-17.447c-0.137 0-0.248-0.111-0.248-0.248s0.111-0.248 0.248-0.248v0zM11.403 22.677h17.447c0.138 0 0.25 0.112 0.25 0.25s-0.112 0.25-0.25 0.25v0h-17.447c-0.002 0-0.003 0-0.005 0-1.203 0-2.178-0.975-2.178-2.178 0-0.892 0.537-1.659 1.305-1.996l0.014-0.005c0.255-0.113 0.43-0.365 0.43-0.657 0-0.055-0.006-0.109-0.018-0.16l0.001 0.005-3.487-15.692c-0.074-0.323-0.359-0.561-0.699-0.561-0 0-0 0-0 0h-5.094c-0.138 0-0.25-0.112-0.25-0.25s0.112-0.25 0.25-0.25v0h5.87c0.116 0.004 0.213 0.085 0.238 0.194l0 0.002 0.69 3.104c0.075 0.322 0.359 0.559 0.699 0.559 0 0 0.001 0 0.001 0h23.546c0.082 0.001 0.154 0.040 0.2 0.1l0 0.001c0.031 0.040 0.049 0.090 0.049 0.145 0 0.026-0.004 0.050-0.012 0.074l0-0.002-3.866 13.526c-0.032 0.104-0.126 0.178-0.239 0.179h-17.447c-0.928 0-1.681 0.753-1.681 1.681s0.753 1.681 1.681 1.681v0z"></path>
<path d="M14.672 24.922c-1.955 0-3.539 1.584-3.539 3.539s1.585 3.539 3.539 3.539c1.955 0 3.539-1.584 3.539-3.539v0c-0.003-1.954-1.586-3.536-3.539-3.539h-0zM14.672 30.567c-1.163 0-2.106-0.943-2.106-2.106s0.943-2.106 2.106-2.106c1.163 0 2.106 0.943 2.106 2.106v0c-0.001 1.163-0.944 2.105-2.106 2.106h-0z"></path>
<path d="M25.581 24.922c-1.955 0-3.539 1.584-3.539 3.539s1.584 3.539 3.539 3.539c1.955 0 3.539-1.584 3.539-3.539v0c-0.003-1.954-1.586-3.536-3.539-3.539h-0zM25.581 30.567c-1.163 0-2.106-0.943-2.106-2.106s0.943-2.106 2.106-2.106c1.163 0 2.106 0.943 2.106 2.106v0c-0.001 1.163-0.944 2.105-2.106 2.106h-0z"></path>
</svg>
