<!-- Generated by IcoMoon.io -->
<svg version="1.1" xmlns="http://www.w3.org/2000/svg" width="34" height="32" viewBox="0 0 34 32">
<title>cart-light</title>
<path d="M11.298 20.49h17.847c0.613-0 1.131-0.408 1.297-0.968l0.002-0.010 3.952-13.828c0.033-0.112 0.053-0.241 0.053-0.374 0-0.747-0.606-1.353-1.353-1.353-0 0-0.001 0-0.001 0h-23.783l-0.642-2.897c-0.136-0.611-0.673-1.060-1.315-1.060-0.002 0-0.004 0-0.007 0h-5.994c-0.724 0.032-1.298 0.626-1.298 1.355s0.575 1.323 1.295 1.354l0.003 0h4.907l3.439 15.482c-1.042 0.576-1.735 1.668-1.735 2.922 0 1.837 1.49 3.327 3.327 3.327 0.002 0 0.004 0 0.006 0h17.846c0.724-0.032 1.298-0.626 1.298-1.355s-0.575-1.323-1.295-1.354l-0.003-0h-17.847c-0.343 0-0.62-0.278-0.62-0.62s0.278-0.62 0.62-0.62v0zM11.298 22.463h17.847c0.327 0.021 0.584 0.291 0.584 0.622s-0.257 0.601-0.582 0.622l-0.002 0h-17.847c-0.001 0-0.002 0-0.004 0-1.434 0-2.597-1.163-2.597-2.597 0-1.060 0.635-1.972 1.546-2.375l0.017-0.007c0.134-0.056 0.226-0.187 0.226-0.339 0-0.024-0.002-0.048-0.007-0.072l0 0.002-3.569-16.059c-0.038-0.165-0.183-0.285-0.357-0.286h-5.201c-0.327-0.021-0.584-0.291-0.584-0.622s0.257-0.601 0.582-0.622l0.002-0h5.995c0 0 0.001 0 0.002 0 0.295 0 0.542 0.207 0.604 0.484l0.001 0.004 0.706 3.176c0.037 0.165 0.182 0.286 0.355 0.286 0.001 0 0.003 0 0.004-0h24.076c0.344 0 0.622 0.279 0.622 0.623 0 0.061-0.009 0.12-0.025 0.175l0.001-0.004-3.952 13.821c-0.077 0.261-0.315 0.448-0.596 0.449h-17.847c-0.747 0-1.353 0.606-1.353 1.353s0.606 1.353 1.353 1.353v0z"></path>
<path d="M14.642 25.493c-1.797 0-3.254 1.457-3.254 3.254s1.457 3.254 3.254 3.254c1.797 0 3.254-1.457 3.254-3.254v0c-0.001-1.796-1.457-3.252-3.254-3.254h-0zM14.642 31.267c-1.392 0-2.521-1.129-2.521-2.521s1.129-2.521 2.521-2.521c1.392 0 2.521 1.129 2.521 2.521v0c-0.001 1.392-1.129 2.52-2.521 2.521h-0z"></path>
<path d="M25.8 25.493c-1.797 0-3.254 1.457-3.254 3.254s1.457 3.254 3.254 3.254c1.797 0 3.254-1.457 3.254-3.254v0c-0.001-1.796-1.457-3.252-3.254-3.254h-0zM25.8 31.267c-1.392 0-2.521-1.129-2.521-2.521s1.129-2.521 2.521-2.521c1.392 0 2.521 1.129 2.521 2.521v0c-0.001 1.392-1.129 2.52-2.521 2.521h-0z"></path>
</svg>
