<svg xmlns="http://www.w3.org/2000/svg" viewBox="0 0 40 40"><defs><style>.cls-1{fill:none;}.cls-2{fill:#6e7883;}</style></defs><title>countdown</title><g id="Layer_2" data-name="Layer 2"><g id="Layer_1-2" data-name="Layer 1"><rect class="cls-1" width="40" height="40"/><path class="cls-2" d="M35.5,13.14a.42.42,0,0,1-.31-.13L29.45,7.59a.46.46,0,1,1,.63-.67l5.73,5.43a.46.46,0,0,1-.31.79Z"/><path class="cls-2" d="M34,33.29H6.05a2,2,0,0,1-2-2V8.81a2,2,0,0,1,2-2H29.61a.44.44,0,0,1,.46.46v5.26l5.42-.1a.47.47,0,0,1,.33.13.45.45,0,0,1,.14.33v18.4A2,2,0,0,1,34,33.29ZM6.05,7.71A1.09,1.09,0,0,0,5,8.81V31.28a1.09,1.09,0,0,0,1.09,1.09H34A1.09,1.09,0,0,0,35,31.28V13.34l-5.42.11a.5.5,0,0,1-.33-.13.47.47,0,0,1-.14-.33V7.71Z"/><path class="cls-2" d="M20,22.37h-.22a.46.46,0,1,1,0-.91H20a.46.46,0,1,1,0,.91Z"/><path class="cls-2" d="M20,21h-.22a.47.47,0,0,1-.46-.46.46.46,0,0,1,.46-.46H20a.46.46,0,0,1,.46.46A.47.47,0,0,1,20,21Z"/><path class="cls-2" d="M32,26.35H29.1a1.46,1.46,0,0,1-1.46-1.46v-4a.47.47,0,0,1,.46-.46h.7a.46.46,0,0,1,0,.92h-.24v3.56a.54.54,0,0,0,.54.54H32a.55.55,0,0,0,.55-.54V21.33H32.3a.46.46,0,0,1,0-.92H33a.46.46,0,0,1,.46.46v4A1.46,1.46,0,0,1,32,26.35Z"/><path class="cls-2" d="M33,21.35h-.7a.45.45,0,0,1-.45-.46.46.46,0,0,1,.45-.46h.25V16.87a.55.55,0,0,0-.55-.54H29.1a.54.54,0,0,0-.54.54v3.56h.24a.47.47,0,0,1,.46.46.46.46,0,0,1-.46.46h-.7a.46.46,0,0,1-.46-.46v-4a1.47,1.47,0,0,1,1.46-1.46H32a1.46,1.46,0,0,1,1.46,1.46v4A.45.45,0,0,1,33,21.35Z"/><path class="cls-2" d="M25.22,26.35h-2.9a1.46,1.46,0,0,1-1.46-1.46v-4a.46.46,0,0,1,.45-.46H22a.46.46,0,0,1,0,.92h-.25v3.56a.55.55,0,0,0,.55.54h2.9a.54.54,0,0,0,.54-.54V21.33h-.24a.46.46,0,0,1,0-.92h.7a.47.47,0,0,1,.46.46v4A1.46,1.46,0,0,1,25.22,26.35Z"/><path class="cls-2" d="M26.22,21.35h-.7a.46.46,0,0,1-.46-.46.47.47,0,0,1,.46-.46h.24V16.87a.54.54,0,0,0-.54-.54h-2.9a.55.55,0,0,0-.55.54v3.56H22a.46.46,0,0,1,.45.46.45.45,0,0,1-.45.46h-.71a.45.45,0,0,1-.45-.46v-4a1.46,1.46,0,0,1,1.46-1.46h2.9a1.47,1.47,0,0,1,1.46,1.46v4A.46.46,0,0,1,26.22,21.35Z"/><path class="cls-2" d="M17.42,26.35H14.51a1.46,1.46,0,0,1-1.46-1.46v-4a.47.47,0,0,1,.46-.46h.7a.46.46,0,1,1,0,.92H14v3.56a.54.54,0,0,0,.54.54h2.91a.54.54,0,0,0,.54-.54V21.33h-.24a.46.46,0,0,1,0-.92h.7a.47.47,0,0,1,.46.46v4A1.46,1.46,0,0,1,17.42,26.35Z"/><path class="cls-2" d="M18.42,21.35h-.7a.45.45,0,0,1-.46-.46.46.46,0,0,1,.46-.46H18V16.87a.54.54,0,0,0-.54-.54H14.51a.54.54,0,0,0-.54.54v3.56h.24a.46.46,0,0,1,.46.46.45.45,0,0,1-.46.46h-.7a.46.46,0,0,1-.46-.46v-4a1.47,1.47,0,0,1,1.46-1.46h2.91a1.47,1.47,0,0,1,1.46,1.46v4A.46.46,0,0,1,18.42,21.35Z"/><path class="cls-2" d="M10.85,26.35H8a1.46,1.46,0,0,1-1.46-1.46v-4A.46.46,0,0,1,7,20.41h.7a.46.46,0,0,1,0,.92H7.4v3.56a.55.55,0,0,0,.55.54h2.9a.54.54,0,0,0,.54-.54V21.33h-.24a.46.46,0,0,1,0-.92h.7a.47.47,0,0,1,.46.46v4A1.46,1.46,0,0,1,10.85,26.35Z"/><path class="cls-2" d="M11.85,21.35h-.7a.46.46,0,0,1-.46-.46.47.47,0,0,1,.46-.46h.24V16.87a.54.54,0,0,0-.54-.54H8a.55.55,0,0,0-.55.54v3.56h.25a.46.46,0,0,1,.45.46.45.45,0,0,1-.45.46H7a.45.45,0,0,1-.46-.46v-4A1.46,1.46,0,0,1,8,15.41h2.9a1.47,1.47,0,0,1,1.46,1.46v4A.46.46,0,0,1,11.85,21.35Z"/><path class="cls-2" d="M9.6,23.5a.46.46,0,0,1-.46-.45V19.46l-.42.35a.47.47,0,0,1-.65-.06.46.46,0,0,1,.06-.64l1.18-1a.44.44,0,0,1,.48-.06.47.47,0,0,1,.27.41v4.57A.46.46,0,0,1,9.6,23.5Z"/><path class="cls-2" d="M16,23.5a1.22,1.22,0,0,1-1.22-1.21V19.14a1.22,1.22,0,1,1,2.43,0v3.15A1.21,1.21,0,0,1,16,23.5Zm0-4.66a.3.3,0,0,0-.3.3v3.15a.3.3,0,1,0,.59,0V19.14A.3.3,0,0,0,16,18.84Z"/><path class="cls-2" d="M23.77,23.5a1.22,1.22,0,0,1-1.22-1.21V19.14a1.22,1.22,0,1,1,2.43,0v3.15A1.21,1.21,0,0,1,23.77,23.5Zm0-4.66a.31.31,0,0,0-.3.3v3.15a.3.3,0,0,0,.3.3.31.31,0,0,0,.3-.3V19.14A.31.31,0,0,0,23.77,18.84Z"/><path class="cls-2" d="M30.55,23.5a1.21,1.21,0,0,1-1.21-1.21V19.14a1.22,1.22,0,1,1,2.43,0v3.15A1.22,1.22,0,0,1,30.55,23.5Zm0-4.66a.31.31,0,0,0-.3.3v3.15a.31.31,0,0,0,.3.3.3.3,0,0,0,.3-.3V19.14A.31.31,0,0,0,30.55,18.84Z"/></g></g></svg>