<svg xmlns="http://www.w3.org/2000/svg" viewBox="0 0 40.92 40"><defs><style>.cls-1{fill:none;}.cls-2{fill:#6e7883;}</style></defs><title>custom add to cart</title><g id="Layer_2" data-name="Layer 2"><g id="Layer_1-2" data-name="Layer 1"><rect class="cls-1" x="0.46" width="40" height="40"/><path class="cls-2" d="M33.65,26.68H7.27a7.27,7.27,0,0,1,0-14.54H33.65a7.27,7.27,0,1,1,0,14.54ZM7.27,13.06a6.35,6.35,0,0,0,0,12.7H33.65a6.35,6.35,0,1,0,0-12.7Z"/><path class="cls-2" d="M7.27,26.68a7.27,7.27,0,1,1,7.26-7.27A7.28,7.28,0,0,1,7.27,26.68Zm0-13.62a6.35,6.35,0,1,0,6.35,6.35A6.35,6.35,0,0,0,7.27,13.06Z"/><path class="cls-2" d="M5.53,20.69h3.8a.19.19,0,0,0,.2-.16l.84-2.94a.19.19,0,0,0,0-.18.21.21,0,0,0-.17-.08H5.05l-.15-.68a.21.21,0,0,0-.21-.17H3.42a.21.21,0,0,0-.21.21.21.21,0,0,0,.21.21H4.53l.75,3.42a.64.64,0,0,0-.38.58.63.63,0,0,0,.63.63h3.8a.21.21,0,0,0,.21-.21.21.21,0,0,0-.21-.21H5.53a.22.22,0,0,1-.21-.21A.21.21,0,0,1,5.53,20.69Z"/><path class="cls-2" d="M5.63,22.52a.62.62,0,1,0,1.23,0,.62.62,0,0,0-1.23,0Z"/><path class="cls-2" d="M8,22.52a.61.61,0,1,0,1.22,0,.61.61,0,0,0-1.22,0Z"/><path class="cls-2" d="M21.8,22.61l-.66-1.84H18.6L18,22.61H16.8l2.49-6.67h1.18L23,22.61Zm-.95-2.78L20.23,18c0-.12-.11-.31-.19-.57s-.13-.45-.16-.57a11.37,11.37,0,0,1-.36,1.22l-.6,1.73Z"/><path class="cls-2" d="M29.24,19.23a3.3,3.3,0,0,1-.91,2.51,3.68,3.68,0,0,1-2.63.87H23.84V16h2.05a3.4,3.4,0,0,1,2.47.85A3.19,3.19,0,0,1,29.24,19.23Zm-1.14,0c0-1.59-.75-2.38-2.23-2.38h-.95V21.7h.78A2.14,2.14,0,0,0,28.1,19.26Z"/><path class="cls-2" d="M36.08,19.23a3.31,3.31,0,0,1-.92,2.51,3.66,3.66,0,0,1-2.63.87H30.67V16h2.06a3.38,3.38,0,0,1,2.46.85A3.19,3.19,0,0,1,36.08,19.23Zm-1.15,0c0-1.59-.74-2.38-2.23-2.38h-.94V21.7h.77A2.14,2.14,0,0,0,34.93,19.26Z"/></g></g></svg>