<svg xmlns="http://www.w3.org/2000/svg" width="178.311" height="165.1" viewBox="0 0 178.311 165.1">
  <g id="Group_20" data-name="Group 20" transform="translate(-743.7 -462.1)">
    <g id="Group_17" data-name="Group 17">
      <path id="Path_23" data-name="Path 23" d="M893.8,588.6H802.5a17.967,17.967,0,0,1-18-17.9,18.265,18.265,0,0,1,8.7-15.4l-17.3-77.4H751.6a7.9,7.9,0,1,1,0-15.8h30.7a7.811,7.811,0,0,1,7.7,6.2l3.1,14h121a8.059,8.059,0,0,1,6.3,3.1,7.769,7.769,0,0,1,1.3,6.9l-20.2,70.5a7.831,7.831,0,0,1-7.6,5.7H802.6a2.2,2.2,0,0,0,0,4.4h91.3a7.851,7.851,0,1,1-.1,15.7ZM751.6,467.8a2.2,2.2,0,1,0,0,4.4h26.6a2.885,2.885,0,0,1,2.8,2.2l18.3,81.8a2.829,2.829,0,0,1-1.6,3.2,12.251,12.251,0,0,0,4.9,23.5h91.3a2.2,2.2,0,0,0,0-4.4H802.6a7.9,7.9,0,0,1,0-15.8h91.3a2.159,2.159,0,0,0,2.1-1.6l20.2-70.5a1.866,1.866,0,0,0-.4-1.9,2.138,2.138,0,0,0-1.8-.9H790.8a2.885,2.885,0,0,1-2.8-2.2l-3.6-16.2a2.171,2.171,0,0,0-2.2-1.7H751.6Z" fill="#6e7882"/>
    </g>
    <g id="Group_18" data-name="Group 18">
      <path id="Path_24" data-name="Path 24" d="M819.6,627.2a17.6,17.6,0,1,1,17.6-17.6A17.626,17.626,0,0,1,819.6,627.2Zm0-29.5a11.865,11.865,0,0,0-11.9,11.9,11.994,11.994,0,0,0,11.9,11.9,11.865,11.865,0,0,0,11.9-11.9A11.994,11.994,0,0,0,819.6,597.7Z" fill="#6e7882"/>
    </g>
    <g id="Group_19" data-name="Group 19">
      <path id="Path_25" data-name="Path 25" d="M876.7,627.2a17.6,17.6,0,1,1,17.6-17.6A17.626,17.626,0,0,1,876.7,627.2Zm0-29.5a11.865,11.865,0,0,0-11.9,11.9,11.994,11.994,0,0,0,11.9,11.9,11.9,11.9,0,0,0,0-23.8Z" fill="#6e7882"/>
    </g>
  </g>
</svg>
