<!-- Generated by IcoMoon.io -->
<svg version="1.1" xmlns="http://www.w3.org/2000/svg" width="32" height="32" viewBox="0 0 32 32">
<title>edit</title>
<path fill="#202020" d="M19.898 5.34l6.509 6.541-16.476 16.559-6.507-6.541zM31.347 3.761l-2.903-2.916c-0.52-0.522-1.24-0.846-2.035-0.846s-1.515 0.323-2.035 0.846l-0 0-2.773 2.795 6.509 6.541 3.243-3.26c0.401-0.404 0.65-0.961 0.65-1.577 0-0.617-0.25-1.176-0.654-1.581l0 0zM0.017 31.093c-0.012 0.049-0.018 0.105-0.018 0.163 0 0.41 0.332 0.742 0.742 0.742 0.061 0 0.12-0.007 0.177-0.021l-0.005 0.001 7.253-1.766-6.505-6.543z"></path>
</svg>
