<!-- Generated by IcoMoon.io -->
<svg version="1.1" xmlns="http://www.w3.org/2000/svg" width="32" height="32" viewBox="0 0 32 32">
<title>external</title>
<path d="M32 19.603v-16.723c0.001-0.023 0.001-0.050 0.001-0.076 0-0.769-0.33-1.461-0.857-1.941l-0.002-0.002c-0.475-0.532-1.163-0.865-1.929-0.865-0.025 0-0.050 0-0.075 0.001l0.004-0h-17.142c-1.591 0-2.88 1.289-2.88 2.88s1.289 2.88 2.88 2.88h10l-21.142 21.632c-0.529 0.511-0.857 1.226-0.857 2.018s0.328 1.507 0.856 2.017l0.001 0.001 0.285 0.288c0.495 0.134 1.080 0.236 1.679 0.286l0.036 0.002c0.689-0.047 1.295-0.371 1.712-0.861l0.003-0.003 21.715-21.334v9.514c0 0 0 0 0 0 0 1.583 1.277 2.867 2.856 2.88h0.001c0.109 0.017 0.234 0.026 0.361 0.026 1.378 0 2.496-1.117 2.496-2.496 0-0.043-0.001-0.086-0.003-0.128l0 0.006z"></path>
</svg>
