<svg xmlns="http://www.w3.org/2000/svg" viewBox="0 0 40 40"><defs><style>.cls-1{fill:none;}.cls-2{fill:#6e7883;}</style></defs><title>facebook page_1</title><g id="Layer_2" data-name="Layer 2"><g id="Layer_1-2" data-name="Layer 1"><rect class="cls-1" width="40" height="40"/><path class="cls-2" d="M28.14,37.28a8,8,0,1,1,8-8A8,8,0,0,1,28.14,37.28Zm0-15.1a7.1,7.1,0,1,0,7.09,7.09A7.11,7.11,0,0,0,28.14,22.18Z"/><path class="cls-2" d="M27.41,34.11h.93a.25.25,0,0,0,.25-.25V30.15a.26.26,0,0,1,.26-.26H30a.25.25,0,0,0,.25-.25v-.88a.25.25,0,0,0-.25-.25H28.85a.26.26,0,0,1-.26-.25v-1a1,1,0,0,1,.21-.71,1,1,0,0,1,.78-.27h.49a.26.26,0,0,0,.26-.25v-.77a.25.25,0,0,0-.25-.25h-.91a1.91,1.91,0,0,0-2,2.08v1.15a.25.25,0,0,1-.25.25H26a.26.26,0,0,0-.26.25v.88a.26.26,0,0,0,.26.25h.95a.26.26,0,0,1,.25.26v3.71A.26.26,0,0,0,27.41,34.11Z"/><path class="cls-2" d="M25.09,17H13.68a.46.46,0,0,1,0-.92H25.09a.46.46,0,1,1,0,.92Z"/><path class="cls-2" d="M25.09,14.8H13.68a.47.47,0,0,1-.46-.46.46.46,0,0,1,.46-.46H25.09a.46.46,0,0,1,.46.46A.47.47,0,0,1,25.09,14.8Z"/><path class="cls-2" d="M22.68,12.64H16.59a.45.45,0,0,1-.45-.46.46.46,0,0,1,.45-.46h6.09a.47.47,0,0,1,.46.46A.46.46,0,0,1,22.68,12.64Z"/><path class="cls-2" d="M27.5,2.33H11.27A1.79,1.79,0,0,0,9.48,4.11V31.38a1.79,1.79,0,0,0,1.79,1.78h10a.46.46,0,0,0,0-.91h-10a.87.87,0,0,1-.87-.87V6.3h18V21.5a.46.46,0,1,0,.91,0V4.11A1.78,1.78,0,0,0,27.5,2.33ZM10.4,5.38V4.11a.87.87,0,0,1,.87-.87H27.5a.87.87,0,0,1,.87.87V5.38Z"/><path class="cls-2" d="M11.81,4.84a.37.37,0,0,1-.18,0,.44.44,0,0,1-.15-.1.46.46,0,0,1-.13-.32.57.57,0,0,1,0-.18.71.71,0,0,1,.1-.14.46.46,0,0,1,.65,0,.42.42,0,0,1,.13.32.44.44,0,0,1-.13.32.31.31,0,0,1-.15.1A.35.35,0,0,1,11.81,4.84Z"/><path class="cls-2" d="M13.26,4.84a.45.45,0,0,1-.32-.14.4.4,0,0,1-.1-.15.38.38,0,0,1,0-.34.4.4,0,0,1,.1-.15.31.31,0,0,1,.15-.1.47.47,0,0,1,.5.1.56.56,0,0,1,.1.15.47.47,0,0,1,0,.17.48.48,0,0,1-.13.32A.45.45,0,0,1,13.26,4.84Z"/><path class="cls-2" d="M14.72,4.84a.33.33,0,0,1-.17,0,.31.31,0,0,1-.15-.1.43.43,0,0,1-.14-.32.58.58,0,0,1,0-.18.45.45,0,0,1,.1-.14.47.47,0,0,1,.65,0,.71.71,0,0,1,.1.14.57.57,0,0,1,0,.18.48.48,0,0,1-.13.32.44.44,0,0,1-.15.1A.39.39,0,0,1,14.72,4.84Z"/></g></g></svg>