<svg xmlns="http://www.w3.org/2000/svg" viewBox="0 0 40 40"><defs><style>.cls-1{fill:none;}.cls-2{fill:#6e7883;}</style></defs><title>FAQ_1</title><g id="Layer_2" data-name="Layer 2"><g id="Layer_1-2" data-name="Layer 1"><rect class="cls-1" width="40" height="40"/><g id="_Group_" data-name="&lt;Group&gt;"><path class="cls-2" d="M33.12,34.56a.46.46,0,0,1-.2-.05L25,30.64a.52.52,0,0,1-.22-.22l-1.22-2.63a.45.45,0,0,1,.21-.6,9.36,9.36,0,1,0-8.4-.08h0a.51.51,0,0,1,.28.4.42.42,0,0,1-.05.24l-1.3,2.58a.43.43,0,0,1-.32.24.44.44,0,0,1-.39-.1A13,13,0,0,1,6.54,19.65a13.15,13.15,0,0,1,26.24-1.72A13,13,0,0,1,29,28.06l4.48,5.76a.46.46,0,0,1-.36.74Zm-7.56-4.67,6,2.92L28,28.3a.46.46,0,0,1,.05-.61,12.24,12.24,0,1,0-14.35,1.8l.89-1.76a10.3,10.3,0,0,1-5.19-8.27A10.28,10.28,0,0,1,19,8.55a10.26,10.26,0,0,1,5.6,19.25Z"/></g><g id="_Group_2" data-name="&lt;Group&gt;"><path class="cls-2" d="M17.54,25.4a.44.44,0,0,1-.45-.39,7.31,7.31,0,0,1,.09-2.34,9.92,9.92,0,0,1,1.88-3.45c.22-.3.43-.61.63-.9s.4-.69.29-1-.46-.45-1-.57a5.09,5.09,0,0,0-2.72.73.45.45,0,0,1-.39,0,.46.46,0,0,1-.27-.29l-1.09-3.4a.44.44,0,0,1,.21-.53c3.44-2,8-1.77,10,.38s1,5.22.16,6.24c-.24.3-.48.56-.72.82a7.32,7.32,0,0,0-1.47,2.07,6.43,6.43,0,0,0-.31,2.05.47.47,0,0,1-.45.45l-4.36.07Zm1.09-9.57a2.24,2.24,0,0,1,.52.06A2.12,2.12,0,0,1,20.83,17a2,2,0,0,1-.38,1.83c-.2.29-.42.6-.65.91a9.54,9.54,0,0,0-1.72,3.1A7.41,7.41,0,0,0,18,24.48l3.5-.06a6.21,6.21,0,0,1,.37-2,8.37,8.37,0,0,1,1.64-2.31c.22-.24.45-.49.67-.77.57-.7,1.59-3.21-.11-5s-5.56-1.93-8.56-.39l.81,2.52A6,6,0,0,1,18.63,15.83Z"/></g><g id="_Group_3" data-name="&lt;Group&gt;"><path class="cls-2" d="M19.73,32.51a3.15,3.15,0,0,1-.2-6.29h0a3.17,3.17,0,0,1,3.35,2.94,3.14,3.14,0,0,1-.78,2.28,3.1,3.1,0,0,1-2.16,1.06Zm-.14-5.37a2.23,2.23,0,1,0,.29,4.45A2.24,2.24,0,0,0,22,29.22a2.25,2.25,0,0,0-2.37-2.08Z"/></g></g></g></svg>