<svg xmlns="http://www.w3.org/2000/svg" viewBox="0 0 40 40"><defs><style>.cls-1{fill:none;}.cls-2{fill:#6e7883;}</style></defs><title>featured image</title><g id="Layer_2" data-name="Layer 2"><g id="Layer_1-2" data-name="Layer 1"><rect class="cls-1" width="40" height="40"/><path class="cls-2" d="M29,11.4H24.44a.46.46,0,0,1-.46-.46V5.74a.46.46,0,0,1,.3-.43.44.44,0,0,1,.5.13l4.56,5.2a.46.46,0,0,1,.08.49A.48.48,0,0,1,29,11.4Zm-4.11-.92H28L24.89,7Z"/><path class="cls-2" d="M27.73,34.72H12.27A1.74,1.74,0,0,1,10.54,33V7a1.74,1.74,0,0,1,1.73-1.73H24.44a.46.46,0,1,1,0,.92H12.27a.81.81,0,0,0-.81.81V33a.81.81,0,0,0,.81.81H27.73a.81.81,0,0,0,.81-.81V10.93a.46.46,0,0,1,.92,0V33A1.74,1.74,0,0,1,27.73,34.72Z"/><path class="cls-2" d="M26.15,24.51H13a.46.46,0,0,1,0-.91H26.15a.46.46,0,1,1,0,.91Z"/><path class="cls-2" d="M23.74,26.67H13a.46.46,0,0,1,0-.92H23.74a.46.46,0,1,1,0,.92Z"/><path class="cls-2" d="M20.82,28.82H13a.46.46,0,0,1,0-.91h7.86a.46.46,0,1,1,0,.91Z"/><path class="cls-2" d="M16.89,31H13a.46.46,0,0,1,0-.92h3.93a.46.46,0,0,1,0,.92Z"/><path class="cls-2" d="M16.32,19.75a.44.44,0,0,1-.32-.13A.46.46,0,0,1,16,19l2.13-2.13a.46.46,0,0,1,.62,0l1.84,1.53a.46.46,0,0,1-.58.71l-1.53-1.27-1.84,1.84A.42.42,0,0,1,16.32,19.75Z"/><path class="cls-2" d="M25.77,19.75a.45.45,0,0,1-.29-.1l-3.87-3.09-1.79,1.79a.46.46,0,0,1-.65-.65l2.09-2.08a.46.46,0,0,1,.61,0l4.18,3.36a.45.45,0,0,1,.07.64A.46.46,0,0,1,25.77,19.75Z"/><path class="cls-2" d="M26.25,21H13.75a1.24,1.24,0,0,1-1.24-1.24V14.29a1.23,1.23,0,0,1,1.24-1.24h12.5a1.23,1.23,0,0,1,1.24,1.24v5.49A1.24,1.24,0,0,1,26.25,21ZM13.75,14a.33.33,0,0,0-.33.33v5.49a.33.33,0,0,0,.33.32h12.5a.33.33,0,0,0,.33-.32V14.29a.33.33,0,0,0-.33-.33Z"/><path class="cls-2" d="M15,16.56a1,1,0,1,1,1-1A1,1,0,0,1,15,16.56Zm0-1.16a.12.12,0,0,0-.12.12c0,.13.24.13.24,0A.12.12,0,0,0,15,15.4Z"/></g></g></svg>