<svg xmlns="http://www.w3.org/2000/svg" viewBox="0 0 40 40"><defs><style>.cls-1{fill:none;}.cls-2{fill:#6e7883;}</style></defs><title>Flipbox</title><g id="Layer_2" data-name="Layer 2"><g id="Layer_1-2" data-name="Layer 1"><rect class="cls-1" width="40" height="40"/><path class="cls-2" d="M26.05,21.75H25a.46.46,0,1,1,0-.91h1a.46.46,0,0,1,0,.91Z"/><path class="cls-2" d="M23.21,21.75h-1a.46.46,0,0,1,0-.91h1a.46.46,0,1,1,0,.91Z"/><path class="cls-2" d="M20.5,21.75h-1a.46.46,0,1,1,0-.91h1a.46.46,0,0,1,0,.91Z"/><path class="cls-2" d="M17.68,21.75h-1a.46.46,0,1,1,0-.91h1a.46.46,0,1,1,0,.91Z"/><path class="cls-2" d="M14.84,21.75h-1a.46.46,0,1,1,0-.91h1a.46.46,0,1,1,0,.91Z"/><path class="cls-2" d="M24.19,28.47H15.55a.73.73,0,0,1-.65-.36.78.78,0,0,1,0-.78c.06-.12.18-.35,4.37-3.59a.9.9,0,0,1,1.16,0c1.28,1,4.27,3.34,4.43,3.61a.78.78,0,0,1,0,.78A.75.75,0,0,1,24.19,28.47Zm-8.26-.91h7.89c-.82-.68-3.39-2.7-4-3.14C17.65,26.15,16.44,27.12,15.93,27.56Z"/><path class="cls-2" d="M19.81,19.15a.88.88,0,0,1-.55-.19l-.11-.09c-4.14-3.21-4.25-3.41-4.33-3.54a.8.8,0,0,1,0-.78.76.76,0,0,1,.66-.37h8.64a.77.77,0,0,1,.66,1.16c-.06.11-.15.27-4.41,3.61A.92.92,0,0,1,19.81,19.15Zm-3.95-4c.39.33,1.38,1.14,3.85,3l.11.09c1.86-1.47,3.31-2.63,3.92-3.14Zm8.27,0h0Z"/><path class="cls-2" d="M29,11.29H24.44a.45.45,0,0,1-.46-.46V5.64a.46.46,0,0,1,.3-.43.45.45,0,0,1,.5.12l4.56,5.2a.47.47,0,0,1,.08.49A.46.46,0,0,1,29,11.29Zm-4.11-.91H28l-3.1-3.53Z"/><path class="cls-2" d="M27.73,34.62H12.27a1.73,1.73,0,0,1-1.73-1.72V6.9a1.73,1.73,0,0,1,1.73-1.72H24.44a.46.46,0,1,1,0,.91H12.27a.81.81,0,0,0-.81.81v26a.81.81,0,0,0,.81.81H27.73a.81.81,0,0,0,.81-.81V10.83a.46.46,0,1,1,.92,0V32.9A1.73,1.73,0,0,1,27.73,34.62Z"/></g></g></svg>