<svg xmlns="http://www.w3.org/2000/svg" viewBox="0 0 40 40"><defs><style>.cls-1{fill:none;}.cls-2{fill:#6e7883;}</style></defs><title>Form maker</title><g id="Layer_2" data-name="Layer 2"><g id="Layer_1-2" data-name="Layer 1"><rect class="cls-1" width="40" height="40"/><path class="cls-2" d="M24.07,13.09H17.56a.45.45,0,0,1-.46-.45V10.33a.45.45,0,0,1,.46-.46h6.51a.46.46,0,0,1,.46.46v2.31A.46.46,0,0,1,24.07,13.09ZM18,12.18h5.59v-1.4H18Z"/><path class="cls-2" d="M24.07,17.12H17.56a.45.45,0,0,1-.46-.46v-2.3a.45.45,0,0,1,.46-.46h6.51a.46.46,0,0,1,.46.46v2.3A.46.46,0,0,1,24.07,17.12ZM18,16.2h5.59V14.81H18Z"/><path class="cls-2" d="M32.35,13.09H25.84a.45.45,0,0,1-.46-.45V10.33a.45.45,0,0,1,.46-.46h6.51a.46.46,0,0,1,.46.46v2.31A.46.46,0,0,1,32.35,13.09Zm-6.06-.91h5.6v-1.4h-5.6Z"/><path class="cls-2" d="M32.35,17.12H25.84a.45.45,0,0,1-.46-.46v-2.3a.45.45,0,0,1,.46-.46h6.51a.46.46,0,0,1,.46.46v2.3A.46.46,0,0,1,32.35,17.12Zm-6.06-.92h5.6V14.81h-5.6Z"/><path class="cls-2" d="M14.31,17.12H7.81a.46.46,0,0,1-.46-.46V10.33a.46.46,0,0,1,.46-.46h6.5a.47.47,0,0,1,.46.46v6.33A.47.47,0,0,1,14.31,17.12Zm-6-.92h5.58V10.79H8.27Z"/><path class="cls-2" d="M32.34,22H7.81a.46.46,0,0,1-.46-.46V19.15a.45.45,0,0,1,.46-.45H32.34a.45.45,0,0,1,.46.45v2.36A.46.46,0,0,1,32.34,22ZM8.27,21.05H31.88V19.61H8.27Z"/><path class="cls-2" d="M32.34,30.06H7.81a.45.45,0,0,1-.46-.46V24a.46.46,0,0,1,.46-.46H32.34a.46.46,0,0,1,.46.46V29.6A.45.45,0,0,1,32.34,30.06ZM8.27,29.14H31.88V24.45H8.27Z"/><path class="cls-2" d="M34,33.21H6.05a2,2,0,0,1-2-2V8.73a2,2,0,0,1,2-2H34a2,2,0,0,1,2,2V31.2A2,2,0,0,1,34,33.21ZM6.05,7.64A1.09,1.09,0,0,0,5,8.73V31.2a1.09,1.09,0,0,0,1.09,1.09H34A1.09,1.09,0,0,0,35,31.2V8.73A1.09,1.09,0,0,0,34,7.64Z"/></g></g></svg>