<?xml version="1.0" encoding="utf-8"?>
<!-- Generator: Adobe Illustrator 23.0.1, SVG Export Plug-In . SVG Version: 6.00 Build 0)  -->
<svg version="1.1" id="Layer_1" xmlns="http://www.w3.org/2000/svg" xmlns:xlink="http://www.w3.org/1999/xlink" x="0px" y="0px"
	 viewBox="0 0 40 40" style="enable-background:new 0 0 40 40;" xml:space="preserve">
<style type="text/css">
	.st0{clip-path:url(#SVGID_2_);}
	.st1{fill:none;}
	.st2{clip-path:url(#SVGID_2_);fill:none;}
	.st3{fill:#6E7883;}
</style>
<g>
	<defs>
		<rect id="SVGID_1_" width="40" height="40"/>
	</defs>
	<clipPath id="SVGID_2_">
		<use xlink:href="#SVGID_1_"  style="overflow:visible;"/>
	</clipPath>
	<g class="st0">
		<rect class="st1" width="40" height="40"/>
	</g>
	<rect class="st2" width="40" height="40"/>
	<g class="st0">
		<path class="st3" d="M33.9,6.8l-27.5,0c-1.2,0-2.2,1-2.2,2.2v22.1c0,1.2,1,2.2,2.2,2.2h27.5c1.2,0,2.2-1,2.2-2.2V9
			C36,7.7,35.1,6.8,33.9,6.8z M35.1,31.1c0,0.7-0.6,1.3-1.3,1.3H6.3c-0.7,0-1.3-0.6-1.3-1.3V8.9c0-0.7,0.6-1.3,1.3-1.3h23.4l4.2,0
			c0.7,0,1.3,0.6,1.3,1.3V31.1z"/>
		<path class="st3" d="M32.3,9.6h-24c-0.2,0-0.5,0.2-0.5,0.5v2.8c0,0.2,0.2,0.5,0.5,0.5h24c0.2,0,0.5-0.2,0.5-0.5v-2.8
			C32.7,9.8,32.5,9.6,32.3,9.6z M31.8,12.4H8.7v-1.9h23.1V12.4z"/>
		<path class="st3" d="M25.1,26.8h-10c-0.2,0-0.5,0.2-0.5,0.5v2.6c0,0.2,0.2,0.5,0.5,0.5h10c0.2,0,0.5-0.2,0.5-0.5v-2.6
			C25.5,27,25.3,26.8,25.1,26.8z M24.6,29.4h-9.1v-1.7h9.1V29.4z"/>
		<path class="st3" d="M32.3,15.3H8c-0.2,0-0.5,0.2-0.5,0.5v8.6c0,0.2,0.2,0.5,0.5,0.5h24.3c0.2,0,0.5-0.2,0.5-0.5v-8.6
			C32.7,15.5,32.5,15.3,32.3,15.3z M31.8,23.9h-1.5l1.5-1.5V23.9z M31.8,21.1C31.8,21.1,31.8,21.1,31.8,21.1L29,23.9c0,0,0,0,0,0
			H8.4v-7.7h23.4V21.1z"/>
	</g>
</g>
</svg>
