<?xml version="1.0" encoding="utf-8"?>
<!-- Generator: Adobe Illustrator 23.0.1, SVG Export Plug-In . SVG Version: 6.00 Build 0)  -->
<svg version="1.1" id="Layer_1" xmlns="http://www.w3.org/2000/svg" xmlns:xlink="http://www.w3.org/1999/xlink" x="0px" y="0px"
	 viewBox="0 0 40 40" style="enable-background:new 0 0 40 40;" xml:space="preserve">
<style type="text/css">
	.st0{fill:#FFFFFF;}
	
		.st1{fill-rule:evenodd;clip-rule:evenodd;fill:none;stroke:#6E7883;stroke-width:0.9156;stroke-linecap:round;stroke-linejoin:round;stroke-miterlimit:10;}
	
		.st2{fill-rule:evenodd;clip-rule:evenodd;fill:none;stroke:#6E7883;stroke-width:0.916;stroke-linecap:round;stroke-linejoin:round;stroke-miterlimit:10;}
	.st3{fill-rule:evenodd;clip-rule:evenodd;fill:#6F7883;}
	.st4{fill:none;stroke:#6E7883;stroke-width:0.9156;stroke-linecap:round;stroke-linejoin:round;stroke-miterlimit:10;}
	.st5{fill:none;stroke:#6E7883;stroke-width:0.763;stroke-linecap:round;stroke-linejoin:round;stroke-miterlimit:10;}
	.st6{fill:#6E7883;}
	.st7{fill:#00A0D2;}
	.st8{fill:#E64D3D;}
	.st9{fill:#C03A2C;}
	.st10{fill:none;stroke:#6E7883;stroke-width:6;stroke-linecap:round;stroke-linejoin:round;stroke-miterlimit:10;}
	.st11{fill:none;stroke:#000000;stroke-linejoin:round;}
	.st12{fill:none;}
	.st13{fill:#6E7883;stroke:#FFFFFF;stroke-width:0.1526;stroke-miterlimit:10;}
	
		.st14{fill-rule:evenodd;clip-rule:evenodd;fill:none;stroke:#6E7883;stroke-width:0.8135;stroke-linecap:round;stroke-linejoin:round;stroke-miterlimit:10;}
	.st15{fill:none;stroke:#6E7883;stroke-width:0.8135;stroke-linecap:round;stroke-linejoin:round;stroke-miterlimit:10;}
	.st16{opacity:0.5;}
	.st17{opacity:0.3;}
	.st18{opacity:0.1;}
	.st19{opacity:0.03;}
	
		.st20{fill-rule:evenodd;clip-rule:evenodd;fill:none;stroke:#6E7883;stroke-width:0.763;stroke-linecap:round;stroke-linejoin:round;stroke-miterlimit:10;}
	
		.st21{fill-rule:evenodd;clip-rule:evenodd;fill:none;stroke:#6E7882;stroke-width:0.9156;stroke-linecap:round;stroke-linejoin:round;stroke-miterlimit:10;}
	
		.st22{fill-rule:evenodd;clip-rule:evenodd;fill:none;stroke:#6E7882;stroke-width:0.763;stroke-linecap:round;stroke-linejoin:round;stroke-miterlimit:10;}
	.st23{fill:none;stroke:#6E7882;stroke-width:0.6104;stroke-linecap:round;stroke-linejoin:round;stroke-miterlimit:10;}
	.st24{fill:none;stroke:#6E7882;stroke-width:0.9156;stroke-linecap:round;stroke-linejoin:round;stroke-miterlimit:10;}
	.st25{fill:none;stroke:#6E7882;stroke-width:0.4578;stroke-linecap:round;stroke-linejoin:round;stroke-miterlimit:10;}
	.st26{fill:#6E7882;}
	.st27{fill:#FFFFFF;stroke:#6E7883;stroke-width:0.9156;stroke-linecap:round;stroke-linejoin:round;stroke-miterlimit:10;}
	
		.st28{fill-rule:evenodd;clip-rule:evenodd;fill:none;stroke:#6E7883;stroke-width:1.0732;stroke-linecap:round;stroke-linejoin:round;stroke-miterlimit:10;}
	
		.st29{fill-rule:evenodd;clip-rule:evenodd;fill:none;stroke:#6E7883;stroke-width:0.9755;stroke-linecap:round;stroke-linejoin:round;stroke-miterlimit:10;}
	
		.st30{fill-rule:evenodd;clip-rule:evenodd;fill:none;stroke:#6E7883;stroke-width:0.8736;stroke-linecap:round;stroke-linejoin:round;stroke-miterlimit:10;}
	
		.st31{fill-rule:evenodd;clip-rule:evenodd;fill:none;stroke:#6E7883;stroke-width:1.2449;stroke-linecap:round;stroke-linejoin:round;stroke-miterlimit:10;}
	
		.st32{fill-rule:evenodd;clip-rule:evenodd;fill:none;stroke:#6E7883;stroke-width:1.108;stroke-linecap:round;stroke-linejoin:round;stroke-miterlimit:10;}
	
		.st33{fill-rule:evenodd;clip-rule:evenodd;fill:#FFFFFF;stroke:#6E7883;stroke-width:0.9554;stroke-linecap:round;stroke-linejoin:round;stroke-miterlimit:10;}
	
		.st34{fill-rule:evenodd;clip-rule:evenodd;fill:#FFFFFF;stroke:#6E7883;stroke-width:1.0013;stroke-linecap:round;stroke-linejoin:round;stroke-miterlimit:10;}
	
		.st35{fill-rule:evenodd;clip-rule:evenodd;fill:none;stroke:#6E7883;stroke-width:1.0013;stroke-linecap:round;stroke-linejoin:round;stroke-miterlimit:10;}
	.st36{fill:none;stroke:#6E7883;stroke-width:0.9376;stroke-linecap:round;stroke-linejoin:round;stroke-miterlimit:10;}
	.st37{fill:none;stroke:#6E7883;stroke-width:0.8365;stroke-linecap:round;stroke-linejoin:round;stroke-miterlimit:10;}
	.st38{fill:#092E49;}
	.st39{fill:#B2B2B2;}
	.st40{fill:url(#XMLID_227_);}
	.st41{fill:url(#XMLID_228_);}
	.st42{fill:url(#XMLID_229_);}
	.st43{fill:url(#XMLID_230_);}
	.st44{fill:url(#XMLID_231_);}
	.st45{fill:url(#XMLID_232_);}
	.st46{fill:url(#XMLID_233_);}
	.st47{fill:url(#XMLID_234_);}
	.st48{fill:url(#XMLID_235_);}
	.st49{fill:#923A44;}
	.st50{fill:#853039;}
	.st51{fill:#D5BD58;}
	.st52{fill:#C8B14D;}
	.st53{fill:#103856;}
	.st54{fill:#1C425F;}
	.st55{opacity:0.29;}
	.st56{fill-rule:evenodd;clip-rule:evenodd;fill:#6E7883;}
	.st57{fill:#FFFFFF;stroke:#6E7883;stroke-width:2.3838;stroke-linecap:round;stroke-linejoin:round;stroke-miterlimit:10;}
	
		.st58{fill-rule:evenodd;clip-rule:evenodd;fill:#FFFFFF;stroke:#6E7883;stroke-width:2.3838;stroke-linecap:round;stroke-linejoin:round;stroke-miterlimit:10;}
	.st59{fill:none;stroke:#6E7883;stroke-width:0.9417;stroke-linecap:round;stroke-linejoin:round;stroke-miterlimit:10;}
	.st60{fill:none;stroke:#6E7883;stroke-width:1.0639;stroke-linecap:round;stroke-linejoin:round;stroke-miterlimit:10;}
	.st61{fill:none;stroke:#6E7883;stroke-width:0.7591;stroke-linecap:round;stroke-linejoin:round;stroke-miterlimit:10;}
	
		.st62{fill-rule:evenodd;clip-rule:evenodd;fill:none;stroke:#6E7883;stroke-width:1.085;stroke-linecap:round;stroke-linejoin:round;stroke-miterlimit:10;}
	
		.st63{fill-rule:evenodd;clip-rule:evenodd;fill:none;stroke:#6E7883;stroke-width:0.69;stroke-linecap:round;stroke-linejoin:round;stroke-miterlimit:10;}
	.st64{fill:#C8D3D6;}
	.st65{fill:#1D8BBC;}
	.st66{fill:none;stroke:#36B2E2;stroke-width:8;stroke-miterlimit:10;}
	.st67{fill:#36B2E2;}
	
		.st68{fill-rule:evenodd;clip-rule:evenodd;fill:none;stroke:#36B2E2;stroke-width:14.9859;stroke-linecap:round;stroke-linejoin:round;stroke-miterlimit:10;}
	.st69{fill:none;stroke:#6E7883;stroke-width:2;stroke-linecap:round;stroke-linejoin:round;stroke-miterlimit:10;}
	
		.st70{fill-rule:evenodd;clip-rule:evenodd;fill:none;stroke:#6E7883;stroke-width:0.9077;stroke-linecap:round;stroke-linejoin:round;stroke-miterlimit:10;}
	
		.st71{fill-rule:evenodd;clip-rule:evenodd;fill:none;stroke:#6E7883;stroke-width:0.8251;stroke-linecap:round;stroke-linejoin:round;stroke-miterlimit:10;}
	
		.st72{fill-rule:evenodd;clip-rule:evenodd;fill:none;stroke:#6E7883;stroke-width:0.7389;stroke-linecap:round;stroke-linejoin:round;stroke-miterlimit:10;}
	.st73{fill:none;stroke:#6E7883;stroke-width:1.7;stroke-linecap:round;stroke-linejoin:round;stroke-miterlimit:10;}
	.st74{fill:none;stroke:#6E7883;stroke-width:1.0825;stroke-linecap:round;stroke-linejoin:round;stroke-miterlimit:10;}
	.st75{clip-path:url(#SVGID_2_);}
	.st76{fill:none;stroke:#6E7883;stroke-width:0.9;stroke-linecap:round;stroke-miterlimit:10;}
	.st77{fill:none;stroke:#FF0000;stroke-width:0.1;stroke-miterlimit:10;}
	.st78{fill:none;stroke:#6E7883;stroke-width:0.9;stroke-linecap:round;stroke-linejoin:round;stroke-miterlimit:10;}
	.st79{clip-path:url(#SVGID_4_);}
	.st80{clip-path:url(#SVGID_6_);}
</style>
<g>
	<defs>
		<rect id="SVGID_3_" width="40" height="40"/>
	</defs>
	<clipPath id="SVGID_2_">
		<use xlink:href="#SVGID_3_"  style="overflow:visible;"/>
	</clipPath>
	<g class="st75">
		<path class="st6" d="M14.15,15.25H8.3c-0.6,0-1.09,0.49-1.09,1.09v7.32c0,0.6,0.49,1.09,1.09,1.09h5.85c0.6,0,1.09-0.49,1.09-1.09
			v-7.32C15.24,15.74,14.75,15.25,14.15,15.25z M14.24,23.66c0,0.05-0.04,0.09-0.09,0.09H8.3c-0.05,0-0.09-0.04-0.09-0.09v-7.32
			c0-0.05,0.04-0.09,0.09-0.09h5.85c0.05,0,0.09,0.04,0.09,0.09V23.66z"/>
		<path class="st6" d="M31.7,7.21h-5.85c-0.6,0-1.09,0.49-1.09,1.09v15.36c0,0.6,0.49,1.09,1.09,1.09h5.85
			c0.6,0,1.09-0.49,1.09-1.09V8.3C32.79,7.7,32.3,7.21,31.7,7.21z M31.79,23.66c0,0.05-0.04,0.09-0.09,0.09h-5.85
			c-0.05,0-0.09-0.04-0.09-0.09V8.3c0-0.05,0.04-0.09,0.09-0.09h5.85c0.05,0,0.09,0.04,0.09,0.09V23.66z"/>
		<path class="st6" d="M22.18,7.21h-4.36c-0.6,0-1.09,0.49-1.09,1.09v9.87c0,0.6,0.49,1.09,1.09,1.09h4.36
			c0.6,0,1.09-0.49,1.09-1.09V8.3C23.26,7.7,22.78,7.21,22.18,7.21z M22.27,18.16c0,0.05-0.04,0.09-0.09,0.09h-4.36
			c-0.05,0-0.09-0.04-0.09-0.09V8.3c0-0.05,0.04-0.09,0.09-0.09h4.36c0.05,0,0.09,0.04,0.09,0.09V18.16z"/>
		<path class="st6" d="M22.18,20.75h-4.36c-0.6,0-1.09,0.49-1.09,1.09v9.87c0,0.6,0.49,1.09,1.09,1.09h4.36
			c0.6,0,1.09-0.49,1.09-1.09v-9.87C23.26,21.24,22.78,20.75,22.18,20.75z M22.27,31.7c0,0.05-0.04,0.09-0.09,0.09h-4.36
			c-0.05,0-0.09-0.04-0.09-0.09v-9.87c0-0.05,0.04-0.09,0.09-0.09h4.36c0.05,0,0.09,0.04,0.09,0.09V31.7z"/>
		<path class="st6" d="M14.15,7.21H8.3c-0.6,0-1.09,0.49-1.09,1.09v4.37c0,0.6,0.49,1.09,1.09,1.09h5.85c0.6,0,1.09-0.49,1.09-1.09
			V8.3C15.24,7.7,14.75,7.21,14.15,7.21z M14.24,12.67c0,0.05-0.04,0.09-0.09,0.09H8.3c-0.05,0-0.09-0.04-0.09-0.09V8.3
			c0-0.05,0.04-0.09,0.09-0.09h5.85c0.05,0,0.09,0.04,0.09,0.09V12.67z"/>
		<path class="st6" d="M31.7,26.25h-5.85c-0.6,0-1.09,0.49-1.09,1.09v4.37c0,0.6,0.49,1.09,1.09,1.09h5.85
			c0.6,0,1.09-0.49,1.09-1.09v-4.37C32.79,26.73,32.3,26.25,31.7,26.25z M31.79,31.7c0,0.05-0.04,0.09-0.09,0.09h-5.85
			c-0.05,0-0.09-0.04-0.09-0.09v-4.37c0-0.05,0.04-0.09,0.09-0.09h5.85c0.05,0,0.09,0.04,0.09,0.09V31.7z"/>
		<path class="st6" d="M14.15,26.25H8.3c-0.6,0-1.09,0.49-1.09,1.09v4.37c0,0.6,0.49,1.09,1.09,1.09h5.85c0.6,0,1.09-0.49,1.09-1.09
			v-4.37C15.24,26.73,14.75,26.25,14.15,26.25z M14.24,31.7c0,0.05-0.04,0.09-0.09,0.09H8.3c-0.05,0-0.09-0.04-0.09-0.09v-4.37
			c0-0.05,0.04-0.09,0.09-0.09h5.85c0.05,0,0.09,0.04,0.09,0.09V31.7z"/>
	</g>
</g>
</svg>
