<svg xmlns="http://www.w3.org/2000/svg" width="164.8" height="165.5" viewBox="0 0 164.8 165.5">
  <g id="Group_31" data-name="Group 31" transform="translate(-972.9 -452)">
    <path id="Path_40" data-name="Path 40" d="M979.6,557.7l19-10.6a2.825,2.825,0,0,0,1.5-2.5v-.7a8.25,8.25,0,0,1,16.5.1,10.936,10.936,0,0,1-.1,2,2.769,2.769,0,0,0-.1.9v.1a2.723,2.723,0,0,0,.9,2.1l10.4,9.5a2.585,2.585,0,0,0,1.9,1.3c.2,0,.4.1.6.1a2.41,2.41,0,0,0,1.8-.7,7.319,7.319,0,0,1,4.8-1.9h2.2a2.663,2.663,0,0,0,1.2.3h.1a2.882,2.882,0,0,0,2.7-2l23-33.6a2.73,2.73,0,0,0,.5-1.8,13.974,13.974,0,0,1,0-2.9c.6-4.2,3.8-8.6,8.2-8.6a8.817,8.817,0,0,1,8.6,8.3,2.879,2.879,0,0,0,.8,3l10.3,9.6a3.007,3.007,0,0,0,3.7.2,8.53,8.53,0,0,1,5.2-1.7,6.727,6.727,0,0,1,4.5,1.4,2.928,2.928,0,0,0,2.2.7,3.089,3.089,0,0,0,2-1.1l17.7-24a2.637,2.637,0,0,0,.3-2.7c-12.2-30.6-41.8-50.5-75.3-50.5a80.9,80.9,0,0,0-58,24.2,82.463,82.463,0,0,0-23.8,58.3,88.589,88.589,0,0,0,2.8,21.4,3,3,0,0,0,1.6,1.9A2.675,2.675,0,0,0,979.6,557.7Zm74.8-100.1c30.7,0,57.8,17.8,69.5,45.4l-15.1,20.6a12.611,12.611,0,0,0-5.7-1.2,14.941,14.941,0,0,0-6.6,1.6l-7.7-7.1a14.453,14.453,0,0,0-14.3-13.7c-7.8,0-12.9,6.9-13.8,13.5-.1.9-.1,2.1-.1,3l-21.9,32h-2.2a12.062,12.062,0,0,0-6.3,1.8l-8.1-7.5a14.291,14.291,0,0,0-13.9-16,13.868,13.868,0,0,0-13.8,12.9l-14.3,8a78.4,78.4,0,0,1-1.8-16.4C978.3,492.1,1012.4,457.6,1054.4,457.6Z" fill="#6e7882"/>
    <path id="Path_41" data-name="Path 41" d="M1137.5,532.5v-1.8a2.2,2.2,0,0,0-.1-.8v-.6c0-.5-.1-.8-.1-1.1V528a2.77,2.77,0,0,0-.1-.9V527a2.77,2.77,0,0,0-.1-.9V526a2.921,2.921,0,0,0-.2-.9c0-.3-.1-.6-.1-.8v-.1a2.51,2.51,0,0,0-.2-1c0-.3-.1-.6-.1-.8a4.971,4.971,0,0,0-.2-1.6,78.206,78.206,0,0,0-1.7-7.8,4.4,4.4,0,0,0-.2-1,3.1,3.1,0,0,0-1.8-2.2,2.809,2.809,0,0,0-3.1.9l-17.7,21.7a2.792,2.792,0,0,0-.6,1.8v.1a1.268,1.268,0,0,0,.1.6,6.891,6.891,0,0,1,.2,1.8,8.25,8.25,0,1,1-16.5,0v-.4c0-.3.1-.7.1-1.2a2.724,2.724,0,0,0-.9-2.1l-10-9.1a2.64,2.64,0,0,0-1.9-.7h-.1a2.732,2.732,0,0,0-1.9.8,7.757,7.757,0,0,1-5.3,2,7.561,7.561,0,0,1-3.9-1,2.854,2.854,0,0,0-3.7.9l-23.2,33a2.936,2.936,0,0,0-.2,3,7.818,7.818,0,0,1,1.1,4,8.25,8.25,0,1,1-16.5,0,7.59,7.59,0,0,1,.1-1.6c0-.2.1-.4.1-.6v-.1a2.724,2.724,0,0,0-.9-2.1l-11.2-10a2.968,2.968,0,0,0-3-.5,2.177,2.177,0,0,0-.8.5,7.716,7.716,0,0,1-4.3,1.3,8.613,8.613,0,0,1-6-2.5,2.885,2.885,0,0,0-3.4-.5l-19.8,11a2.631,2.631,0,0,0-1.4,2.1,2.886,2.886,0,0,0,.3,1.8,5.891,5.891,0,0,0,.4.8c.1.1.1.3.2.6,0,.1,0,.1.1.2l.9,2.2c0,.1.1.1.1.2l.4.7a3.6,3.6,0,0,0,.5.9l.1.1c0,.1.1.2.1.3.1.1.1.3.2.4s.1.2.2.4a5.129,5.129,0,0,0,.4,1c0,.1.1.2.1.3.1.2.2.5.3.7.1.1.1.2.2.3a5.891,5.891,0,0,0,.4.8c.5.9.9,1.7,1.3,2.4l.3.6.9,1.5c.1.1.2.3.3.4a2.09,2.09,0,0,0,.4.6c.5.8,1,1.4,1.4,2,.2.2.3.5.5.7.1.2.3.4.4.6a5.738,5.738,0,0,1,.4.7l.1.1c0,.1.1.1.1.2.2.3.4.5.6.8l.2.2a6.224,6.224,0,0,0,.8,1.2,6.83,6.83,0,0,0,.5.7c.1.1.2.2.2.3a2.652,2.652,0,0,1,.5.6c.4.4.8.9,1.2,1.3s.7.8,1.1,1.2l.2.2,1,1,.3.3a2.168,2.168,0,0,1,.6.7,4.347,4.347,0,0,1,.6.7l1.2,1.2.1.1,3.9,3.4c.3.3.5.4.7.6l.1.1a3.277,3.277,0,0,0,.8.6.1.1,0,0,1,.1.1.758.758,0,0,0,.4.2.31.31,0,0,0,.2.1,1.38,1.38,0,0,0,.4.3c.5.3.9.7,1.4,1,.5.4,1,.8,1.6,1.2a2.649,2.649,0,0,1,.6.5,5.553,5.553,0,0,1,.8.6c.1.1.2.1.3.2.1,0,.3.2.4.3a8.782,8.782,0,0,0,1,.6l.2.1c.4.3.9.6,1.5,1l3,1.7a.1.1,0,0,1,.1.1l.1.1a2.09,2.09,0,0,1,.6.4c.6.3,1.2.6,1.7.9.5.2,1,.5,1.4.7l.1.1a3.552,3.552,0,0,0,.9.4l.6.3c.1,0,.1.1.2.1l2.1.8a5.782,5.782,0,0,0,1.4.5h.1a1.445,1.445,0,0,0,.7.2c.1,0,.2.1.3.1a8.347,8.347,0,0,0,1.2.4.368.368,0,0,1,.3.1l.8.3a6.893,6.893,0,0,1,.8.3c.1,0,.1.1.2.1.3.1.5.2.8.3.2,0,.3.1.5.1a8.928,8.928,0,0,0,2,.6l1.5.4a2.016,2.016,0,0,0,1.1.3,7.489,7.489,0,0,1,1.6.4,3.554,3.554,0,0,0,1,.2c.3.1.6.1.9.2a1.7,1.7,0,0,0,.7.1,3.86,3.86,0,0,1,1.1.2,5.162,5.162,0,0,0,1.1.2h.2a1.269,1.269,0,0,0,.6.1,2.676,2.676,0,0,0,1.1.2h.2a1.087,1.087,0,0,1,.5.1,6.478,6.478,0,0,0,1.9.2c.3,0,.8.1,1.2.1h.3c.2,0,.4.1.7.1a7.388,7.388,0,0,0,1.2.2,10.9,10.9,0,0,0,1.7.1h4.2a82.581,82.581,0,0,0,82.5-82.5C1137.6,533.7,1137.6,533.1,1137.5,532.5Zm-82.4,78.8h-4.6a2.769,2.769,0,0,0-.9-.1h-.3a2.769,2.769,0,0,0-.9-.1h-.3c-.4-.1-1.1-.1-1.6-.2-.3,0-.6-.1-1-.1a2.769,2.769,0,0,0-.9-.1h-.2c-.2,0-.5-.1-.9-.1a3.537,3.537,0,0,0-.6-.1c-.3-.1-.6-.1-.8-.2h-.2c-.1,0-.1,0-.2-.1-.8-.2-1.6-.3-2.2-.4-.2-.1-.5-.1-.7-.2-.3-.1-.6-.1-.9-.2-.5-.1-1-.3-1.6-.4-.2-.1-.4-.1-.5-.2l-2.1-.5c-.3-.1-.8-.2-1-.3-.1-.1-.2-.1-.4-.2-.3-.1-.5-.2-.8-.3-.2,0-.3-.1-.5-.1a3.092,3.092,0,0,0-.8-.2c-.1,0-.1-.1-.2-.1l-1.3-.4a.9.9,0,0,0-.5-.1c-.1,0-.1-.1-.2-.1a6.6,6.6,0,0,0-1.1-.4c-.1-.1-.3-.1-.5-.2a2.074,2.074,0,0,0-.6-.2c-.1,0-.1-.1-.2-.1l-2.1-.8a5.932,5.932,0,0,1-.8-.4l-.6-.3c-.6-.3-1.2-.6-1.7-.9-.5-.2-1-.5-1.4-.7a.1.1,0,0,1-.1-.1l-.1-.1a2.09,2.09,0,0,1-.6-.4l-3-1.7-.1-.1a4.7,4.7,0,0,1-.9-.6l-.4-.3c-.1-.1-.2-.1-.3-.2-.1,0-.3-.2-.4-.3a8.782,8.782,0,0,0-1-.6,1,1,0,0,1-.5-.4,6.83,6.83,0,0,1-.7-.5c-.5-.3-.9-.7-1.4-1a16.97,16.97,0,0,0-1.4-1c-.4-.3-.7-.5-1-.7l-.2-.1c-.1-.1-.3-.2-.4-.3a1.756,1.756,0,0,0-.5-.4l-.1-.1-.1-.1-3.8-3.4-1.1-1.1-.5-.5a7.689,7.689,0,0,0-1.3-1.2l-.8-.8c-.4-.4-.8-.9-1.2-1.3s-.7-.8-1.1-1.2c0-.1-.1-.1-.2-.2s-.2-.2-.2-.3a1.38,1.38,0,0,1-.3-.4,3.038,3.038,0,0,0-.5-.7l-.1-.1c-.1-.2-.2-.3-.3-.5-.2-.3-.4-.5-.6-.8-.1-.1-.2-.2-.2-.3a5.915,5.915,0,0,0-.4-.6l-.1-.1c0-.1-.1-.1-.1-.2a5.544,5.544,0,0,1-.6-.8c-.2-.2-.3-.5-.5-.6l-.1-.1a9.061,9.061,0,0,1-1.1-1.6.1.1,0,0,0-.1-.1c-.1-.2-.2-.3-.3-.5a4.354,4.354,0,0,1-.4-.7l-.1-.1a8.782,8.782,0,0,1-.6-1,5.73,5.73,0,0,0-.4-.7c-.4-.7-.8-1.3-1.2-2.1-.1-.1-.1-.2-.2-.3s-.1-.2-.2-.3l-.3-.6c-.1-.2-.2-.5-.3-.7,0-.1-.1-.2-.1-.3-.2-.6-.5-1-.6-1.4v-.1c-.2-.4-.3-.7-.4-.9l-.1-.1c0-.1-.1-.2-.1-.3l-.4-.8-.7-1.7,15.8-8.8a13.74,13.74,0,0,0,8.3,2.7,13.468,13.468,0,0,0,5.9-1.4l8.5,7.6v1.2a13.9,13.9,0,1,0,27.8,0,13.231,13.231,0,0,0-1-5.1l20.9-29.8a14.212,14.212,0,0,0,4.2.6,13.593,13.593,0,0,0,7.1-2l7.3,6.7v.5a13.9,13.9,0,1,0,27.8,0,9.152,9.152,0,0,0-.1-1.6l13.2-16.3c.2,1,.4,2,.5,3,0,.2.1.3.1.4v.3a3.6,3.6,0,0,0,.2,1.1c0,.3.1.6.1.9,0,.4.1.7.1.9v.1a5.021,5.021,0,0,0,.2,1.2c0,.2.1.5.1.8a7.387,7.387,0,0,0,.2,1.2c0,.2.1.4.1.6v.2a12.137,12.137,0,0,0,.1,1.8v1.8a2.77,2.77,0,0,0,.1.9v.7A76.651,76.651,0,0,1,1055.1,611.3Z" fill="#6e7882"/>
  </g>
</svg>
