<svg xmlns="http://www.w3.org/2000/svg" viewBox="0 0 40 40"><defs><style>.cls-1{fill:none;}.cls-2{fill:#6e7883;}</style></defs><title>image sprite</title><g id="Layer_2" data-name="Layer 2"><g id="Layer_1-2" data-name="Layer 1"><rect class="cls-1" width="40" height="40"/><path class="cls-2" d="M34,33.25H6.05a2,2,0,0,1-2-2V8.76a2,2,0,0,1,2-2H34a2,2,0,0,1,2,2V31.24A2,2,0,0,1,34,33.25ZM6.05,7.67A1.09,1.09,0,0,0,5,8.76V31.24a1.09,1.09,0,0,0,1.09,1.09H34A1.09,1.09,0,0,0,35,31.24V8.76A1.09,1.09,0,0,0,34,7.67Z"/><path class="cls-2" d="M8.35,14.32A.45.45,0,0,1,8,14.19a.46.46,0,0,1,0-.65l.91-.91a.46.46,0,0,1,.62,0l.79.66a.45.45,0,0,1,.06.64.46.46,0,0,1-.64.06l-.47-.39-.62.62A.46.46,0,0,1,8.35,14.32Z"/><path class="cls-2" d="M12.41,14.32a.46.46,0,0,1-.29-.1L10.65,13l-.61.6a.46.46,0,0,1-.65,0,.45.45,0,0,1,0-.64l.9-.9a.46.46,0,0,1,.61,0l1.8,1.44a.46.46,0,0,1,.07.64A.48.48,0,0,1,12.41,14.32Z"/><path class="cls-2" d="M13.26,15.68H7.43a1,1,0,0,1-1-1V9.84a1,1,0,0,1,1-1h5.83a1,1,0,0,1,1,1v4.88A1,1,0,0,1,13.26,15.68ZM7.43,9.8l0,4.92,5.87,0a0,0,0,0,0,0,0V9.84Z"/><path class="cls-2" d="M8.62,11.74a.66.66,0,1,1,.66-.65A.65.65,0,0,1,8.62,11.74Zm0-.91a.25.25,0,0,0-.25.26c0,.28.51.28.51,0A.25.25,0,0,0,8.62,10.83Z"/><path class="cls-2" d="M18,14.32a.46.46,0,0,1-.33-.78l.92-.91a.45.45,0,0,1,.61,0l.8.66a.46.46,0,0,1,.06.64.47.47,0,0,1-.65.06L19,13.57l-.62.62A.45.45,0,0,1,18,14.32Z"/><path class="cls-2" d="M22.06,14.32a.42.42,0,0,1-.28-.1L20.3,13l-.61.6A.46.46,0,0,1,19,13l.9-.9a.46.46,0,0,1,.61,0l1.8,1.44a.45.45,0,0,1,.07.64A.46.46,0,0,1,22.06,14.32Z"/><path class="cls-2" d="M22.92,15.68H17.08a1,1,0,0,1-.95-1V9.84a1,1,0,0,1,.95-1h5.84a1,1,0,0,1,.95,1v4.88A1,1,0,0,1,22.92,15.68ZM17.08,9.8l0,4.92,5.88,0a0,0,0,0,0,0,0V9.84Z"/><path class="cls-2" d="M18.28,11.74a.66.66,0,1,1,0-1.31.66.66,0,1,1,0,1.31Zm0-.91a.26.26,0,0,0-.26.26c0,.28.51.28.51,0A.25.25,0,0,0,18.28,10.83Z"/><path class="cls-2" d="M27.66,14.32a.44.44,0,0,1-.32-.13.46.46,0,0,1,0-.65l.91-.91a.46.46,0,0,1,.62,0l.79.66a.45.45,0,0,1,.06.64.47.47,0,0,1-.65.06l-.47-.39-.62.62A.44.44,0,0,1,27.66,14.32Z"/><path class="cls-2" d="M31.72,14.32a.46.46,0,0,1-.29-.1L30,13l-.6.6a.46.46,0,0,1-.65,0,.45.45,0,0,1,0-.64l.9-.9a.45.45,0,0,1,.6,0L32,13.51a.45.45,0,0,1,.07.64A.46.46,0,0,1,31.72,14.32Z"/><path class="cls-2" d="M32.57,15.68H26.74a1,1,0,0,1-1-1V9.84a1,1,0,0,1,1-1h5.83a1,1,0,0,1,1,1v4.88A1,1,0,0,1,32.57,15.68ZM26.74,9.8l0,4.92,5.87,0a0,0,0,0,0,0,0V9.84Z"/><path class="cls-2" d="M27.93,11.74a.66.66,0,1,1,.66-.65A.66.66,0,0,1,27.93,11.74Zm0-.91a.26.26,0,0,0-.26.26c0,.28.52.28.52,0A.26.26,0,0,0,27.93,10.83Z"/><path class="cls-2" d="M8.35,22A.45.45,0,0,1,8,21.91a.46.46,0,0,1,0-.65l.91-.91a.46.46,0,0,1,.62,0l.79.66a.45.45,0,1,1-.58.7l-.47-.39-.62.62A.46.46,0,0,1,8.35,22Z"/><path class="cls-2" d="M12.41,22a.46.46,0,0,1-.29-.1l-1.47-1.18-.61.6a.46.46,0,0,1-.65,0,.45.45,0,0,1,0-.64l.9-.9a.45.45,0,0,1,.61,0l1.8,1.44a.46.46,0,0,1,.07.64A.48.48,0,0,1,12.41,22Z"/><path class="cls-2" d="M13.26,23.4H7.43a1,1,0,0,1-1-1V17.56a1,1,0,0,1,1-1h5.83a1,1,0,0,1,1,1v4.88A1,1,0,0,1,13.26,23.4ZM7.43,17.52l0,4.92,5.87,0a0,0,0,0,0,0,0V17.56Z"/><path class="cls-2" d="M8.62,19.46a.66.66,0,1,1,.66-.65A.65.65,0,0,1,8.62,19.46Zm0-.91a.25.25,0,0,0-.25.26c0,.28.51.28.51,0A.25.25,0,0,0,8.62,18.55Z"/><path class="cls-2" d="M18,22a.46.46,0,0,1-.33-.78l.92-.91a.45.45,0,0,1,.61,0L20,21a.46.46,0,1,1-.59.7L19,21.29l-.62.62A.45.45,0,0,1,18,22Z"/><path class="cls-2" d="M22.06,22a.42.42,0,0,1-.28-.1L20.3,20.76l-.61.6a.46.46,0,0,1-.65-.64l.9-.9a.45.45,0,0,1,.61,0l1.8,1.44a.45.45,0,0,1,.07.64A.46.46,0,0,1,22.06,22Z"/><path class="cls-2" d="M22.92,23.4H17.08a1,1,0,0,1-.95-1V17.56a1,1,0,0,1,.95-1h5.84a1,1,0,0,1,.95,1v4.88A1,1,0,0,1,22.92,23.4Zm-5.84-5.88,0,4.92,5.88,0a0,0,0,0,0,0,0V17.56Z"/><path class="cls-2" d="M18.28,19.46a.66.66,0,1,1,0-1.31.66.66,0,1,1,0,1.31Zm0-.91a.26.26,0,0,0-.26.26c0,.28.51.28.51,0A.25.25,0,0,0,18.28,18.55Z"/><path class="cls-2" d="M8.35,29.76A.45.45,0,0,1,8,29.63.46.46,0,0,1,8,29l.91-.91a.46.46,0,0,1,.62,0l.79.65a.46.46,0,0,1-.58.71L9.3,29l-.62.62A.46.46,0,0,1,8.35,29.76Z"/><path class="cls-2" d="M12.41,29.76a.46.46,0,0,1-.29-.1l-1.47-1.18-.61.6a.46.46,0,0,1-.65,0,.45.45,0,0,1,0-.64l.9-.9a.45.45,0,0,1,.61,0L12.7,29a.46.46,0,0,1,.07.64A.48.48,0,0,1,12.41,29.76Z"/><path class="cls-2" d="M13.26,31.12H7.43a1,1,0,0,1-1-1V25.28a1,1,0,0,1,1-1h5.83a1,1,0,0,1,1,1v4.88A1,1,0,0,1,13.26,31.12ZM7.43,25.24l0,4.92,5.87,0a0,0,0,0,0,0,0V25.28Z"/><path class="cls-2" d="M8.62,27.18a.66.66,0,1,1,.66-.66A.65.65,0,0,1,8.62,27.18Zm0-.91a.25.25,0,0,0-.25.25c0,.29.51.29.51,0A.25.25,0,0,0,8.62,26.27Z"/></g></g></svg>