<svg xmlns="http://www.w3.org/2000/svg" viewBox="0 0 40 40"><defs><style>.cls-1{fill:none;}.cls-2{fill:#6e7883;}</style></defs><title>login</title><g id="Layer_2" data-name="Layer 2"><g id="Layer_1-2" data-name="Layer 1"><rect class="cls-1" width="40" height="40"/><path class="cls-2" d="M19.19,20.62a.47.47,0,0,1-.33-.14L16.2,17.82a.47.47,0,0,1,0-.65.46.46,0,0,1,.65,0l2.67,2.67a.45.45,0,0,1,0,.64A.47.47,0,0,1,19.19,20.62Z"/><path class="cls-2" d="M16.51,23.27a.47.47,0,0,1-.32-.14.45.45,0,0,1,0-.64l2.67-2.67a.45.45,0,0,1,.64,0,.46.46,0,0,1,0,.65l-2.66,2.66A.47.47,0,0,1,16.51,23.27Z"/><path class="cls-2" d="M18.31,20.62H8.25a.46.46,0,0,1,0-.92H18.31a.46.46,0,0,1,0,.92Z"/><path class="cls-2" d="M29.49,34.57H14.16a1.72,1.72,0,0,1-1.72-1.71V25.13a.46.46,0,1,1,.92,0v7.73a.79.79,0,0,0,.8.79H29.49a.79.79,0,0,0,.8-.79V7.09a.8.8,0,0,0-.8-.8H14.16a.8.8,0,0,0-.8.8v8a.46.46,0,0,1-.92,0V7.09a1.72,1.72,0,0,1,1.72-1.72H29.49a1.72,1.72,0,0,1,1.72,1.72V32.86A1.72,1.72,0,0,1,29.49,34.57Z"/></g></g></svg>