<svg xmlns="http://www.w3.org/2000/svg" viewBox="0 0 40 40"><defs><style>.cls-1{fill:none;}.cls-2{fill:#6e7883;}</style></defs><title>mailchimp</title><g id="Layer_2" data-name="Layer 2"><g id="Layer_1-2" data-name="Layer 1"><rect class="cls-1" width="40" height="40"/><g id="_Group_" data-name="&lt;Group&gt;"><path class="cls-2" d="M4.28,33.25a2.63,2.63,0,0,1-2.62-2.62l0-21.23A2.62,2.62,0,0,1,4.26,6.78l31.46,0h0a2.63,2.63,0,0,1,2.62,2.62l0,21.23a2.62,2.62,0,0,1-2.62,2.62ZM35.72,7.67l-31.46,0A1.71,1.71,0,0,0,2.56,9.4l0,21.22a1.7,1.7,0,0,0,1.7,1.71l31.46,0a1.71,1.71,0,0,0,1.7-1.71l0-21.22a1.71,1.71,0,0,0-1.7-1.71Z"/></g><g id="_Group_2" data-name="&lt;Group&gt;"><path class="cls-2" d="M19.65,23.85a.45.45,0,0,1-.45-.45V21.72a.48.48,0,0,1,.46-.46H35.18a.46.46,0,0,1,.46.45v1.68a.46.46,0,0,1-.13.32.47.47,0,0,1-.33.14Zm.46-1.67v.76l14.61,0v-.76Z"/></g><g id="_Group_3" data-name="&lt;Group&gt;"><path class="cls-2" d="M19.65,20.25a.45.45,0,0,1-.45-.45V18.12a.48.48,0,0,1,.46-.46H35.18a.46.46,0,0,1,.46.45v1.68a.46.46,0,0,1-.13.32.47.47,0,0,1-.33.14Zm.46-1.67v.76l14.61,0v-.76Z"/></g><g id="_Group_4" data-name="&lt;Group&gt;"><path class="cls-2" d="M19.66,16.65a.46.46,0,0,1-.32-.13.47.47,0,0,1-.14-.33v-6a.47.47,0,0,1,.46-.46h6.88a.46.46,0,0,1,.46.46v6a.49.49,0,0,1-.13.33.51.51,0,0,1-.33.13Zm.45-6v5.1h6V10.62Z"/></g><g id="_Group_5" data-name="&lt;Group&gt;"><path class="cls-2" d="M28.3,16.65a.48.48,0,0,1-.32-.13.47.47,0,0,1-.14-.33v-6a.46.46,0,0,1,.46-.46h6.88a.48.48,0,0,1,.46.46v6a.45.45,0,0,1-.46.46Zm.45-6v5.1h6V10.62Z"/></g><g id="_Group_6" data-name="&lt;Group&gt;"><path class="cls-2" d="M4.82,30.3a.48.48,0,0,1-.46-.46V25.33a.45.45,0,0,1,.46-.46l30.36,0h0a.46.46,0,0,1,.46.45v4.52a.48.48,0,0,1-.13.32.44.44,0,0,1-.33.13l-30.36,0Zm.45-4.52v3.6l29.45,0v-3.6Z"/></g><path class="cls-2" d="M14.85,13.44l-.35.4a3.24,3.24,0,0,1,.62,2.39,5.58,5.58,0,0,1,.69.23,1.5,1.5,0,0,1,.41.23,1,1,0,0,1,.28,1.16,1.4,1.4,0,0,0-.09.17l.19.59a.59.59,0,0,1,.46.55,2.56,2.56,0,0,1-.15,1.13A4.19,4.19,0,0,1,14.37,23a5.59,5.59,0,0,1-5.06-.37h0a5.33,5.33,0,0,1-1.21-1.06,4.13,4.13,0,0,1-.6-1A2.16,2.16,0,0,1,6,19.8a2.31,2.31,0,0,1-.36-2A1.55,1.55,0,0,1,5,17.2a2.26,2.26,0,0,1,.21-2.11,10.29,10.29,0,0,1,3.86-4.2,2.88,2.88,0,0,1,1.5-.49,1.09,1.09,0,0,1,.82.34l.56.59.81-.31a3.47,3.47,0,0,1,1.69-.18,1.12,1.12,0,0,1,1,.95V12a2.63,2.63,0,0,1-.58,1.36Zm-4.09,3.84h0a4,4,0,0,0,.37.45c.14.17.14.21,0,.38a2.35,2.35,0,0,0-.56,2A2.21,2.21,0,0,0,12.32,22a3.51,3.51,0,0,0,3-.5,2.79,2.79,0,0,0,1.33-2c.05-.33,0-.43-.34-.51a2.78,2.78,0,0,0-.2-.68,5.08,5.08,0,0,1-2.82.95,8,8,0,0,1-1.09-.05.29.29,0,0,0-.36.23,4.72,4.72,0,0,0,2,.21c0,.06,0,.07,0,.08a3.29,3.29,0,0,1-2,0,.48.48,0,0,0,.29.39,2.08,2.08,0,0,0,1,.23,5,5,0,0,0,2.55-.68l.37-.22a1,1,0,0,1-.32.37,4.12,4.12,0,0,1-2.41.82,2.38,2.38,0,0,1-1.33-.26.81.81,0,0,1-.46-.69.67.67,0,0,1,.8-.77l.44,0a5,5,0,0,0,2.77-.66,1.39,1.39,0,0,0,.61-.59.48.48,0,0,0-.15-.62,1,1,0,0,0-.37-.19q-.29-.11-.57-.18c-.24-.08-.31-.15-.32-.4l0-.65a4,4,0,0,0-.09-.77.55.55,0,0,0-1-.3,1.62,1.62,0,0,1-1.32.37,2.16,2.16,0,0,0-.84,0,1.44,1.44,0,0,0-.78,2.19l0,0A.71.71,0,0,0,10.76,17.28Zm.78-5.71c-.17-.19-.34-.36-.51-.53a.57.57,0,0,0-.43-.17,2.71,2.71,0,0,0-1.3.43,9.34,9.34,0,0,0-3.08,2.95,5.3,5.3,0,0,0-.89,1.89c-.14.71,0,.87.51,1.23a1.77,1.77,0,0,1,1.07-.67A9.5,9.5,0,0,1,11.54,11.57ZM8.45,18.74a2.17,2.17,0,0,0-.16-.87,1.12,1.12,0,0,0-1-.71,1.16,1.16,0,0,0-1.16.62A1.52,1.52,0,0,0,7.31,20a.92.92,0,0,0,1.07-.71A1.7,1.7,0,0,0,8.45,18.74Zm1-4.67a5.17,5.17,0,0,1,3.95-.79,2.46,2.46,0,0,0-1.22-.34c.06-.13.17-.19.25-.29h-.12a3.32,3.32,0,0,0-1.36.51,1.52,1.52,0,0,1,.16-.45A5.51,5.51,0,0,0,9.42,14.07Z"/><path class="cls-2" d="M14.13,15.58l0,0a1.36,1.36,0,0,1,.14.33h0a1.22,1.22,0,0,1,0,.57H14a1.17,1.17,0,0,1-.19-.82C13.87,15.56,14,15.53,14.13,15.58Z"/><path class="cls-2" d="M11.33,16.79v-.07a.9.9,0,0,1,1-.26c.21.09.36.24.35.38s-.1,0-.14,0a1.2,1.2,0,0,0-1-.06C11.48,16.79,11.41,16.83,11.33,16.79Z"/><path class="cls-2" d="M11.84,17.23c0-.17.12-.23.24-.27a.5.5,0,0,1,.62.18A1.91,1.91,0,0,0,11.84,17.23Z"/><path class="cls-2" d="M13.5,17.13s0,0,0,0a.32.32,0,0,1,.27.16.13.13,0,0,1-.11.2.27.27,0,0,1-.25-.08C13.32,17.3,13.35,17.2,13.5,17.13Z"/><path class="cls-2" d="M14.41,17.06c0,.13-.07.23-.17.23s-.17-.11-.16-.23.07-.23.17-.23S14.41,16.93,14.41,17.06Z"/><path class="cls-2" d="M8,19.1a.1.1,0,0,1,0,.15.34.34,0,0,1-.5-.08.67.67,0,0,1,0-.6.38.38,0,0,0-.07-.42.37.37,0,0,0-.59.09c0,.06,0,.13-.08.19s0,.13-.14.11a.12.12,0,0,1,0-.09.78.78,0,0,1,.34-.71.63.63,0,0,1,.91.76c0,.11-.09.21-.12.32s0,.32.25.29Z"/></g></g></svg>