<svg xmlns="http://www.w3.org/2000/svg" viewBox="0 0 40 40"><defs><style>.cls-1{fill:none;}.cls-2{fill:#6e7883;}</style></defs><title>media carousel</title><g id="Layer_2" data-name="Layer 2"><g id="Layer_1-2" data-name="Layer 1"><rect class="cls-1" width="40" height="40"/><path class="cls-2" d="M28.28,22.61a.44.44,0,0,1-.32-.13l-1.59-1.59a.46.46,0,1,1,.65-.65l1.58,1.59a.47.47,0,0,1,0,.65A.46.46,0,0,1,28.28,22.61Z"/><path class="cls-2" d="M26.69,24.19a.46.46,0,0,1-.33-.13.47.47,0,0,1,0-.65L28,21.82a.45.45,0,0,1,.64,0,.46.46,0,0,1,0,.65L27,24.06A.44.44,0,0,1,26.69,24.19Z"/><path class="cls-2" d="M27.76,22.61H22.34a.46.46,0,1,1,0-.91h5.42a.46.46,0,1,1,0,.91Z"/><path class="cls-2" d="M11.72,22.61a.46.46,0,0,1-.33-.13.48.48,0,0,1,0-.65L13,20.24a.46.46,0,1,1,.65.65L12,22.48A.44.44,0,0,1,11.72,22.61Z"/><path class="cls-2" d="M13.31,24.19a.44.44,0,0,1-.32-.13L11.4,22.47a.46.46,0,0,1,.65-.65l1.58,1.59a.46.46,0,0,1,0,.65A.42.42,0,0,1,13.31,24.19Z"/><path class="cls-2" d="M17.66,22.61H12.24a.46.46,0,1,1,0-.91h5.42a.46.46,0,1,1,0,.91Z"/><path class="cls-2" d="M29.29,29H10.71a1.36,1.36,0,0,1-1.36-1.36V16.62a1.36,1.36,0,0,1,1.36-1.36H29.29a1.36,1.36,0,0,1,1.36,1.36V27.68A1.36,1.36,0,0,1,29.29,29ZM10.71,16.17a.45.45,0,0,0-.44.45V27.68a.44.44,0,0,0,.44.44H29.29a.44.44,0,0,0,.44-.44V16.62a.45.45,0,0,0-.44-.45Z"/><path class="cls-2" d="M19.91,29a.45.45,0,0,1-.46-.46V15.72a.46.46,0,1,1,.91,0V28.58A.45.45,0,0,1,19.91,29Z"/><path class="cls-2" d="M35.5,13.1a.46.46,0,0,1-.31-.13L29.45,7.55a.47.47,0,0,1,0-.65.46.46,0,0,1,.65,0l5.73,5.42a.45.45,0,0,1,0,.65A.44.44,0,0,1,35.5,13.1Z"/><path class="cls-2" d="M34,33.25H6.05a2,2,0,0,1-2-2V8.76a2,2,0,0,1,2-2H29.61a.45.45,0,0,1,.33.14.48.48,0,0,1,.13.32v5.27l5.42-.1a.47.47,0,0,1,.33.13.43.43,0,0,1,.14.32V31.24A2,2,0,0,1,34,33.25ZM6.05,7.67A1.09,1.09,0,0,0,5,8.76V31.24a1.09,1.09,0,0,0,1.09,1.09H34A1.09,1.09,0,0,0,35,31.24V13.3l-5.42.11a.55.55,0,0,1-.33-.13.47.47,0,0,1-.14-.33V7.67Z"/></g></g></svg>