<!-- Generated by IcoMoon.io -->
<svg version="1.1" xmlns="http://www.w3.org/2000/svg" width="29" height="32" viewBox="0 0 29 32">
<title>menu</title>
<path d="M7.367 32c-0.675-0.001-1.222-0.548-1.223-1.223v-22.313c0.001-0.675 0.548-1.222 1.223-1.223h14.102c0.675 0.001 1.222 0.548 1.223 1.223v22.313c-0.001 0.675-0.548 1.222-1.223 1.223h-0zM6.848 8.464v22.313c0 0 0 0.001 0 0.001 0 0.287 0.232 0.519 0.519 0.519 0 0 0.001 0 0.001 0h14.101c0 0 0.001 0 0.001 0 0.287 0 0.519-0.232 0.519-0.519 0-0 0-0.001 0-0.001v0-22.313c0-0 0-0.001 0-0.001 0-0.287-0.232-0.519-0.519-0.519-0 0-0.001 0-0.001 0h-14.102c0 0 0 0 0 0-0.287 0-0.519 0.232-0.519 0.519 0 0 0 0.001 0 0.001v-0zM8.872 29.343c-0.233 0-0.422-0.189-0.422-0.422s0.189-0.422 0.422-0.422h5.553c0.002-0 0.005-0 0.008-0 0.229 0 0.414 0.185 0.414 0.414 0 0.003-0 0.005-0 0.008v-0c-0.001 0.233-0.189 0.421-0.422 0.422h-0zM8.858 27.231c-0.233 0-0.422-0.189-0.422-0.422s0.189-0.422 0.422-0.422h11.11c0.233 0 0.422 0.189 0.422 0.422s-0.189 0.422-0.422 0.422v0zM8.872 23.814c-0.233 0-0.422-0.189-0.422-0.422s0.189-0.422 0.422-0.422h5.553c0.002-0 0.005-0 0.008-0 0.229 0 0.414 0.185 0.414 0.414 0 0.003-0 0.005-0 0.008v-0c-0.001 0.233-0.189 0.421-0.422 0.422h-0zM8.858 21.702c-0.233 0-0.422-0.189-0.422-0.422s0.189-0.422 0.422-0.422h11.11c0.233 0 0.422 0.189 0.422 0.422s-0.189 0.422-0.422 0.422v0zM8.872 18.286c-0.233 0-0.422-0.189-0.422-0.422s0.189-0.422 0.422-0.422h5.553c0.002-0 0.005-0 0.008-0 0.229 0 0.414 0.185 0.414 0.414 0 0.003-0 0.005-0 0.008v-0c-0.001 0.233-0.189 0.421-0.422 0.422h-0zM8.858 16.174c-0.233 0-0.422-0.189-0.422-0.422s0.189-0.422 0.422-0.422h11.11c0.233 0 0.422 0.189 0.422 0.422s-0.189 0.422-0.422 0.422v0zM8.872 12.758c-0.233 0-0.422-0.189-0.422-0.422s0.189-0.422 0.422-0.422h5.553c0.002-0 0.005-0 0.008-0 0.229 0 0.414 0.185 0.414 0.414 0 0.003-0 0.005-0 0.008v-0c-0.001 0.233-0.189 0.421-0.422 0.422h-0zM8.858 10.646c-0.233 0-0.422-0.189-0.422-0.422s0.189-0.422 0.422-0.422h11.11c0.233 0 0.422 0.189 0.422 0.422s-0.189 0.422-0.422 0.422v0zM1.223 5.581c-0.675-0.001-1.222-0.548-1.223-1.223v-3.136c0.001-0.675 0.548-1.222 1.223-1.222h26.39c0.675 0.001 1.222 0.548 1.223 1.223v3.136c-0.001 0.675-0.548 1.222-1.223 1.223h-0zM0.704 1.237v3.136c0 0 0 0.001 0 0.001 0 0.287 0.232 0.519 0.519 0.519 0 0 0.001 0 0.001 0h26.389c0 0 0.001 0 0.001 0 0.287 0 0.519-0.232 0.519-0.519 0-0 0-0.001 0-0.001v0-3.136c0-0 0-0.001 0-0.001 0-0.287-0.232-0.519-0.519-0.519-0 0-0.001 0-0.001 0h-26.39c0 0 0 0 0 0-0.287 0-0.519 0.232-0.519 0.519 0 0 0 0.001 0 0.001v-0zM2.488 4.16c-0.179 0-0.324-0.145-0.324-0.324s0.145-0.324 0.324-0.324h2.868c0.001 0 0.002-0 0.003-0 0.177 0 0.32 0.143 0.32 0.32 0 0.002-0 0.005-0 0.007v-0c-0.004 0.176-0.147 0.318-0.323 0.32h-0zM2.488 3.119c-0.179 0-0.324-0.145-0.324-0.324s0.145-0.324 0.324-0.324h2.868c0.001 0 0.002-0 0.003-0 0.177 0 0.32 0.143 0.32 0.32 0 0.001 0 0.002-0 0.003v-0c-0.002 0.178-0.146 0.321-0.323 0.323h-0zM2.488 2.065c-0.179 0-0.324-0.145-0.324-0.324s0.145-0.324 0.324-0.324h2.868c0.001 0 0.002-0 0.003-0 0.177 0 0.32 0.143 0.32 0.32 0 0.001 0 0.002-0 0.003v-0c-0.002 0.178-0.146 0.321-0.323 0.323h-0z"></path>
</svg>
