<svg xmlns="http://www.w3.org/2000/svg" viewBox="0 0 40 40"><defs><style>.cls-1{fill:none;}.cls-2{fill:#6e7883;}</style></defs><title>nav menu</title><g id="Layer_2" data-name="Layer 2"><g id="Layer_1-2" data-name="Layer 1"><rect class="cls-1" width="40" height="40"/><path class="cls-2" d="M26.52,34.94h-13a1.26,1.26,0,0,1-1.26-1.26V13a1.26,1.26,0,0,1,1.26-1.26h13A1.26,1.26,0,0,1,27.78,13V33.68A1.26,1.26,0,0,1,26.52,34.94Zm-13-22.24a.35.35,0,0,0-.35.34V33.68a.35.35,0,0,0,.35.34h13a.35.35,0,0,0,.35-.34V13a.35.35,0,0,0-.35-.34Z"/><path class="cls-2" d="M32.2,10.65H7.8A1.27,1.27,0,0,1,6.54,9.39V6.49A1.26,1.26,0,0,1,7.8,5.23H32.2a1.26,1.26,0,0,1,1.26,1.26v2.9A1.27,1.27,0,0,1,32.2,10.65ZM7.8,6.14a.35.35,0,0,0-.34.35v2.9a.34.34,0,0,0,.34.34H32.2a.34.34,0,0,0,.34-.34V6.49a.35.35,0,0,0-.34-.35Z"/><path class="cls-2" d="M20,17.09H14.87a.46.46,0,1,1,0-.91H20a.46.46,0,1,1,0,.91Z"/><path class="cls-2" d="M25.13,15.14H14.87a.46.46,0,0,1,0-.92H25.13a.46.46,0,0,1,0,.92Z"/><path class="cls-2" d="M11.41,7.35H8.88a.46.46,0,0,1,0-.92h2.53a.46.46,0,1,1,0,.92Z"/><path class="cls-2" d="M11.41,8.4H8.88a.46.46,0,0,1,0-.92h2.53a.46.46,0,1,1,0,.92Z"/><path class="cls-2" d="M11.41,9.45H8.88A.46.46,0,0,1,8.42,9a.45.45,0,0,1,.46-.46h2.53a.45.45,0,0,1,.46.46A.46.46,0,0,1,11.41,9.45Z"/><path class="cls-2" d="M20,22.2H14.87a.46.46,0,1,1,0-.91H20a.46.46,0,1,1,0,.91Z"/><path class="cls-2" d="M25.13,20.25H14.87a.46.46,0,0,1,0-.92H25.13a.46.46,0,1,1,0,.92Z"/><path class="cls-2" d="M20,27.32H14.87a.46.46,0,0,1-.46-.46.45.45,0,0,1,.46-.46H20a.46.46,0,0,1,.46.46A.47.47,0,0,1,20,27.32Z"/><path class="cls-2" d="M25.13,25.36H14.87a.45.45,0,0,1-.46-.46.46.46,0,0,1,.46-.46H25.13a.46.46,0,0,1,.46.46A.45.45,0,0,1,25.13,25.36Z"/><path class="cls-2" d="M20,32.43H14.87a.46.46,0,0,1,0-.92H20a.46.46,0,1,1,0,.92Z"/><path class="cls-2" d="M25.13,30.47H14.87a.46.46,0,1,1,0-.91H25.13a.46.46,0,1,1,0,.91Z"/></g></g></svg>