<svg xmlns="http://www.w3.org/2000/svg" viewBox="0 0 40 40"><defs><style>.cls-1{fill:none;}.cls-2{fill:#6e7883;}</style></defs><title>Photo gallery</title><g id="Layer_2" data-name="Layer 2"><g id="Layer_1-2" data-name="Layer 1"><rect class="cls-1" width="40" height="40"/><path class="cls-2" d="M36.44,14.8a.46.46,0,0,1-.43-.29L33.26,7.17A1.51,1.51,0,0,0,31.67,6H18c-1,0-1.92.58-1.92,1.27V10a.45.45,0,0,1-.46.45.46.46,0,0,1-.46-.45V7.28C15.12,6.07,16.4,5.1,18,5.1H31.67a2.42,2.42,0,0,1,2.44,1.74l2.76,7.34a.46.46,0,0,1-.27.59A.41.41,0,0,1,36.44,14.8Z"/><path class="cls-2" d="M16.46,32.9H7.31c-3,0-5.12-2.36-5.12-5.63V15.21c0-3,1.76-5.21,4.34-5.58,0-.32,0-.79,0-1.49A.46.46,0,0,1,7,7.68h5.67a.47.47,0,0,1,.46.46V9.58h2.3a.46.46,0,1,1,0,.91H12.65a.46.46,0,0,1-.46-.45V8.6H7.44V10a.52.52,0,0,1,0,.17A.45.45,0,0,1,7,10.5c-2.33.15-3.9,2-3.9,4.71V27.27c0,2.78,1.73,4.72,4.2,4.72h9.15a.46.46,0,0,1,0,.91Z"/><path class="cls-2" d="M16.32,32.75a.47.47,0,0,1-.32-.14,13.71,13.71,0,0,1-4.09-9.82A13.86,13.86,0,0,1,25.75,9a14.68,14.68,0,0,1,11,5.19.46.46,0,0,1-.7.6A13.72,13.72,0,0,0,25.75,9.87,12.93,12.93,0,0,0,16.65,32a.46.46,0,0,1,0,.64A.47.47,0,0,1,16.32,32.75Z"/><path class="cls-2" d="M25.84,29.77a6.55,6.55,0,1,1,0-13.1,6.56,6.56,0,0,1,3.63.92.45.45,0,0,1,.14.63.48.48,0,0,1-.64.14,5.6,5.6,0,0,0-3.13-.78,5.64,5.64,0,1,0,4.78,8.62.46.46,0,0,1,.78.48A6.53,6.53,0,0,1,25.84,29.77Z"/><path class="cls-2" d="M25.84,34.84a12,12,0,1,1,0-23.93,12.58,12.58,0,0,1,11.07,6.84.48.48,0,0,1,0,.31c-.1.39-.09.39-7.73.37a.46.46,0,0,1,0-.92h6.52a11.69,11.69,0,0,0-9.9-5.68,11.05,11.05,0,0,0,0,22.1A10.77,10.77,0,0,0,36.89,23.22a4.45,4.45,0,0,0,0-.53H27.14V26h3.78a.46.46,0,0,1,0,.92H26.69a.46.46,0,0,1-.46-.46v-4.2a.45.45,0,0,1,.46-.45H37.27a.46.46,0,0,1,.46.39,9.46,9.46,0,0,1,.08,1A11.67,11.67,0,0,1,25.84,34.84Z"/></g></g></svg>