<!-- Generated by IcoMoon.io -->
<svg version="1.1" xmlns="http://www.w3.org/2000/svg" width="39" height="32" viewBox="0 0 39 32">
<title>post-navigation</title>
<path d="M2.433 32c-0.001 0-0.003 0-0.005 0-1.341 0-2.428-1.087-2.428-2.428 0-0.002 0-0.003 0-0.005v0-27.134c0-0.001 0-0.003 0-0.005 0-1.341 1.087-2.428 2.428-2.428 0.002 0 0.003 0 0.005 0h28.444c0 0 0 0 0 0 0.043 0 0.084 0.004 0.124 0.013l-0.004-0.001c0.018-0.002 0.038-0.003 0.059-0.003 0.149 0 0.285 0.061 0.382 0.159l0 0 6.924 6.55c0.109 0.1 0.178 0.244 0.178 0.404 0 0.029-0.002 0.058-0.007 0.086l0-0.003c0.010 0.039 0.016 0.083 0.016 0.129 0 0.001 0 0.001 0 0.002v-0 22.213c0 0.006 0 0.012 0 0.019 0 1.344-1.089 2.433-2.433 2.433-0 0-0 0-0 0v0zM1.123 2.433v27.134c-0 0.002-0 0.005-0 0.008 0 0.719 0.583 1.302 1.302 1.302 0.003 0 0.006 0 0.009-0h33.684c0.002 0 0.005 0 0.008 0 0.719 0 1.302-0.583 1.302-1.302 0-0.003 0-0.006-0-0.009v0-21.651l-6.531 0.131c-0.001 0-0.002 0-0.003 0-0.16 0-0.304-0.064-0.409-0.168l0 0c-0.104-0.098-0.168-0.237-0.168-0.391 0-0.001 0-0.001 0-0.002v0-6.363h-27.883c-0.002-0-0.005-0-0.008-0-0.719 0-1.302 0.583-1.302 1.302 0 0.003 0 0.006 0 0.009v-0zM31.439 6.905l5.389-0.108-5.389-5.098zM19.163 26.929h-11.097c-0.909-0.001-1.645-0.738-1.647-1.647v-13.343c0.001-0.909 0.738-1.645 1.647-1.647h10.948c0.045-0.012 0.096-0.019 0.149-0.019s0.104 0.007 0.153 0.020l-0.004-0.001h11.172c0.909 0.002 1.645 0.738 1.647 1.647v13.343c0 0.003 0 0.006 0 0.009 0 0.904-0.733 1.637-1.637 1.637-0.003 0-0.007 0-0.010-0h0zM30.484 25.787c0.289 0 0.524-0.235 0.524-0.524v0-13.343c0-0.289-0.235-0.524-0.524-0.524v0h-10.76v14.391zM7.542 11.92v13.343c0 0.289 0.235 0.524 0.524 0.524v0h10.536v-14.391h-10.536c-0.289 0-0.524 0.235-0.524 0.524v0zM26.966 20.903c-0.104-0.099-0.168-0.238-0.168-0.393s0.065-0.294 0.168-0.393l0.955-0.955h-5.801c-0.31 0-0.561-0.251-0.561-0.561s0.251-0.561 0.561-0.561v0h5.811l-0.964-0.954c-0.098-0.1-0.159-0.238-0.159-0.389 0-0.307 0.249-0.556 0.556-0.556 0.151 0 0.289 0.061 0.389 0.159l-0-0 1.815 1.798c0.043 0.026 0.080 0.057 0.112 0.092l0 0c0.104 0.103 0.168 0.245 0.168 0.403 0 0.002 0 0.005-0 0.007v-0c0 0.004 0 0.008 0 0.012 0 0.152-0.065 0.288-0.168 0.383l-0 0c-0.029 0.029-0.060 0.054-0.094 0.076l-0.002 0.001-1.831 1.831c-0.101 0.101-0.239 0.165-0.392 0.168h-0.001c-0.001 0-0.001 0-0.002 0-0.154 0-0.293-0.065-0.391-0.168l-0-0zM10.816 20.903l-1.826-1.826c-0.038-0.025-0.072-0.053-0.102-0.083l-0-0c-0.104-0.103-0.168-0.245-0.168-0.403 0-0.002 0-0.005 0-0.007v0c-0-0.004-0-0.008-0-0.012 0-0.151 0.065-0.288 0.168-0.383l0-0c0.030-0.030 0.062-0.056 0.098-0.079l0.002-0.001 1.828-1.81c0.101-0.103 0.242-0.167 0.397-0.167 0.307 0 0.556 0.249 0.556 0.556 0 0.155-0.064 0.296-0.167 0.397l-0 0-0.964 0.954h5.811c0.31 0 0.561 0.251 0.561 0.561s-0.251 0.561-0.561 0.561v0h-5.801l0.954 0.954c0.104 0.099 0.168 0.238 0.168 0.393s-0.065 0.294-0.168 0.393l-0 0c-0.101 0.101-0.239 0.165-0.392 0.168h-0.001c-0.001 0-0.001 0-0.002 0-0.154 0-0.293-0.065-0.391-0.168l-0-0z"></path>
</svg>
