<svg xmlns="http://www.w3.org/2000/svg" viewBox="0 0 40 40"><defs><style>.cls-1{fill:none;}.cls-2{fill:#6e7883;}.cls-3{fill:#6f7883;}</style></defs><title>post excerpt</title><g id="Layer_2" data-name="Layer 2"><g id="Layer_1-2" data-name="Layer 1"><rect class="cls-1" width="40" height="40"/><path class="cls-2" d="M30.53,16.26h-22a.46.46,0,0,1,0-.91h22a.46.46,0,1,1,0,.91Z"/><path class="cls-2" d="M28.55,19.31h-20a.46.46,0,0,1,0-.91h20a.46.46,0,0,1,0,.91Z"/><path class="cls-2" d="M27.33,22.37H8.55a.46.46,0,0,1-.45-.46.45.45,0,0,1,.45-.46H27.33a.45.45,0,0,1,.45.46A.46.46,0,0,1,27.33,22.37Z"/><path class="cls-2" d="M35.26,13.21a.42.42,0,0,1-.31-.13L29.3,7.74a.46.46,0,0,1,0-.64.45.45,0,0,1,.65,0l5.65,5.34a.46.46,0,0,1,0,.65A.47.47,0,0,1,35.26,13.21Z"/><path class="cls-2" d="M33.73,33.05H6.27a2,2,0,0,1-2-2V8.94a2,2,0,0,1,2-2h23.2a.45.45,0,0,1,.32.14.42.42,0,0,1,.13.32v5.18l5.33-.1a.51.51,0,0,1,.33.13.45.45,0,0,1,.14.33V31.06A2,2,0,0,1,33.73,33.05ZM6.27,7.87A1.07,1.07,0,0,0,5.2,8.94V31.06a1.07,1.07,0,0,0,1.07,1.07H33.73a1.07,1.07,0,0,0,1.07-1.07V13.41l-5.33.1a.38.38,0,0,1-.33-.13.43.43,0,0,1-.14-.32V7.87Z"/><circle class="cls-3" cx="9.07" cy="25.53" r="0.97"/><circle class="cls-3" cx="12.35" cy="25.53" r="0.97"/><circle class="cls-3" cx="15.63" cy="25.53" r="0.97"/></g></g></svg>