<svg xmlns="http://www.w3.org/2000/svg" viewBox="0 0 40 40"><defs><style>.cls-1{fill:none;}.cls-2{fill:#6e7883;}</style></defs><title>posts</title><g id="Layer_2" data-name="Layer 2"><g id="Layer_1-2" data-name="Layer 1"><rect class="cls-1" width="40" height="40"/><path class="cls-2" d="M28.6,34.8H25a.46.46,0,0,1-.46-.45V32.26A.46.46,0,0,1,25,31.8H28.6a.45.45,0,0,1,.46.46v2.09A.45.45,0,0,1,28.6,34.8Zm-3.18-.91h2.72V32.71H25.42Z"/><path class="cls-2" d="M23.26,32.71H17.52a.46.46,0,1,1,0-.91h5.74a.46.46,0,1,1,0,.91Z"/><path class="cls-2" d="M23.26,34.8H17.52a.46.46,0,1,1,0-.91h5.74a.46.46,0,1,1,0,.91Z"/><path class="cls-2" d="M29,30.62H17.52a.46.46,0,1,1,0-.91H29a.46.46,0,1,1,0,.91Z"/><path class="cls-2" d="M14.48,34.8H11.7a1.15,1.15,0,0,1-1.16-1.15V30.86a1.16,1.16,0,0,1,1.16-1.15h2.78a1.16,1.16,0,0,1,1.15,1.15v2.79A1.15,1.15,0,0,1,14.48,34.8ZM11.7,30.62a.24.24,0,0,0-.24.24v2.79a.24.24,0,0,0,.24.24h2.78a.24.24,0,0,0,.24-.24V30.86a.24.24,0,0,0-.24-.24Z"/><path class="cls-2" d="M28.6,26.61H25a.46.46,0,0,1-.46-.46V24.06A.47.47,0,0,1,25,23.6H28.6a.46.46,0,0,1,.46.46v2.09A.45.45,0,0,1,28.6,26.61Zm-3.18-.92h2.72V24.52H25.42Z"/><path class="cls-2" d="M23.26,24.52H17.52a.46.46,0,0,1-.46-.46.47.47,0,0,1,.46-.46h5.74a.47.47,0,0,1,.46.46A.46.46,0,0,1,23.26,24.52Z"/><path class="cls-2" d="M23.26,26.61H17.52a.46.46,0,0,1-.46-.46.47.47,0,0,1,.46-.46h5.74a.47.47,0,0,1,.46.46A.46.46,0,0,1,23.26,26.61Z"/><path class="cls-2" d="M29,22.43H17.52a.46.46,0,0,1-.46-.46.47.47,0,0,1,.46-.46H29a.47.47,0,0,1,.46.46A.46.46,0,0,1,29,22.43Z"/><path class="cls-2" d="M14.48,26.61H11.7a1.16,1.16,0,0,1-1.16-1.15V22.67a1.16,1.16,0,0,1,1.16-1.16h2.78a1.16,1.16,0,0,1,1.15,1.16v2.79A1.16,1.16,0,0,1,14.48,26.61ZM11.7,22.43a.24.24,0,0,0-.24.24v2.79a.23.23,0,0,0,.24.23h2.78a.23.23,0,0,0,.24-.23V22.67a.24.24,0,0,0-.24-.24Z"/><path class="cls-2" d="M28.6,18.41H25A.46.46,0,0,1,24.5,18V15.87a.46.46,0,0,1,.46-.46H28.6a.45.45,0,0,1,.46.46V18A.45.45,0,0,1,28.6,18.41Zm-3.18-.91h2.72V16.33H25.42Z"/><path class="cls-2" d="M23.26,16.33H17.52a.47.47,0,0,1-.46-.46.46.46,0,0,1,.46-.46h5.74a.46.46,0,0,1,.46.46A.47.47,0,0,1,23.26,16.33Z"/><path class="cls-2" d="M23.26,18.42H17.52a.46.46,0,0,1,0-.92h5.74a.46.46,0,0,1,0,.92Z"/><path class="cls-2" d="M29,14.24H17.52a.46.46,0,0,1,0-.92H29a.46.46,0,0,1,0,.92Z"/><path class="cls-2" d="M14.48,18.42H11.7a1.16,1.16,0,0,1-1.16-1.16V14.47a1.16,1.16,0,0,1,1.16-1.15h2.78a1.16,1.16,0,0,1,1.15,1.15v2.79A1.16,1.16,0,0,1,14.48,18.42ZM11.7,14.24a.23.23,0,0,0-.24.23v2.79a.24.24,0,0,0,.24.24h2.78a.24.24,0,0,0,.24-.24V14.47a.23.23,0,0,0-.24-.23Z"/><path class="cls-2" d="M28.6,10.22H25a.46.46,0,0,1-.46-.46V7.67A.46.46,0,0,1,25,7.22H28.6a.45.45,0,0,1,.46.45V9.76A.45.45,0,0,1,28.6,10.22Zm-3.18-.91h2.72V8.13H25.42Z"/><path class="cls-2" d="M23.26,8.13H17.52a.46.46,0,1,1,0-.91h5.74a.46.46,0,1,1,0,.91Z"/><path class="cls-2" d="M23.26,10.22H17.52a.46.46,0,1,1,0-.91h5.74a.46.46,0,1,1,0,.91Z"/><path class="cls-2" d="M29,6H17.52a.46.46,0,1,1,0-.91H29A.46.46,0,1,1,29,6Z"/><path class="cls-2" d="M14.48,10.22H11.7a1.16,1.16,0,0,1-1.16-1.15V6.28A1.15,1.15,0,0,1,11.7,5.13h2.78a1.15,1.15,0,0,1,1.15,1.15V9.07A1.16,1.16,0,0,1,14.48,10.22ZM11.7,6a.24.24,0,0,0-.24.24V9.07a.24.24,0,0,0,.24.24h2.78a.24.24,0,0,0,.24-.24V6.28A.24.24,0,0,0,14.48,6Z"/></g></g></svg>