<svg xmlns="http://www.w3.org/2000/svg" viewBox="0 0 206 171"><defs><style>.cls-1{fill:#6e7883;}</style></defs><title>post slider</title><g id="Layer_2" data-name="Layer 2"><g id="Layer_1-2" data-name="Layer 1"><path class="cls-1" d="M159.2,98.24a3.06,3.06,0,0,0-.67-1l-.19-.16-10-10a3,3,0,0,0-4.24,4.24l5.13,5.13H118.1a3,3,0,0,0,0,6h31L144,107.47a3,3,0,1,0,4.24,4.24l9.83-9.83a3.83,3.83,0,0,0,.44-.36A3,3,0,0,0,159.2,98.24Z"/><path class="cls-1" d="M87.9,96.4H56.82l5.12-5.13A3,3,0,1,0,57.7,87l-10,10-.19.16a3.06,3.06,0,0,0-.67,1,3,3,0,0,0,.65,3.28,4.94,4.94,0,0,0,.44.36l9.83,9.83A3,3,0,1,0,62,107.47l-5.08-5.07h31a3,3,0,0,0,0-6Z"/><path class="cls-1" d="M162.92,54.87H43.08a8.85,8.85,0,0,0-8.84,8.84V135a8.85,8.85,0,0,0,8.84,8.84H162.92a8.85,8.85,0,0,0,8.84-8.84V63.71A8.85,8.85,0,0,0,162.92,54.87ZM40.24,135V63.71a2.84,2.84,0,0,1,2.84-2.84H99.39v77H43.08A2.84,2.84,0,0,1,40.24,135Zm125.52,0a2.84,2.84,0,0,1-2.84,2.84H105.39v-77h57.53a2.84,2.84,0,0,1,2.84,2.84Z"/><path class="cls-1" d="M205.06,35.82l-37-35a3,3,0,0,0-2.53-.77,2.73,2.73,0,0,0-.5,0H13A13,13,0,0,0,0,13V158a13,13,0,0,0,13,13H193a13,13,0,0,0,13-13V39.27a2.74,2.74,0,0,0-.08-.64A3,3,0,0,0,205.06,35.82Zm-8.13.57L168,36.94,168,9ZM200,158a7,7,0,0,1-7,7H13a7,7,0,0,1-7-7V13a7,7,0,0,1,7-7H162l0,34a3,3,0,0,0,3.06,3L200,42.33Z"/></g></g></svg>