<svg xmlns="http://www.w3.org/2000/svg" viewBox="0 0 40 40"><defs><style>.cls-1{fill:none;}.cls-2{fill:#6e7883;}</style></defs><title>post comments</title><g id="Layer_2" data-name="Layer 2"><g id="Layer_1-2" data-name="Layer 1"><rect class="cls-1" width="40" height="40"/><path class="cls-2" d="M35.5,13.1a.46.46,0,0,1-.31-.13L29.45,7.55a.47.47,0,0,1,0-.65.46.46,0,0,1,.65,0l5.73,5.42a.45.45,0,0,1,0,.65A.44.44,0,0,1,35.5,13.1Z"/><path class="cls-2" d="M34,33.25H6.05a2,2,0,0,1-2-2V8.76a2,2,0,0,1,2-2H29.61a.45.45,0,0,1,.33.14.48.48,0,0,1,.13.32v5.27l5.42-.1a.42.42,0,0,1,.33.13.43.43,0,0,1,.14.32V31.24A2,2,0,0,1,34,33.25ZM6.05,7.67A1.09,1.09,0,0,0,5,8.76V31.24a1.09,1.09,0,0,0,1.09,1.09H34A1.09,1.09,0,0,0,35,31.24V13.3l-5.42.11a.45.45,0,0,1-.33-.14.43.43,0,0,1-.14-.32V7.67Z"/><path class="cls-2" d="M13.85,29.47a.51.51,0,0,1-.17,0,.47.47,0,0,1-.29-.43V26.9H11.64a1.53,1.53,0,0,1-1.53-1.54V19.58A1.53,1.53,0,0,1,11.64,18L21,18a1.54,1.54,0,0,1,1.54,1.54v5.78A1.54,1.54,0,0,1,21,26.88H16.39l-2.2,2.43A.46.46,0,0,1,13.85,29.47ZM21,18.94l-9.34,0a.62.62,0,0,0-.62.62v5.78a.62.62,0,0,0,.62.62h1.93a.74.74,0,0,1,.74.73v1.12l1.46-1.61a.75.75,0,0,1,.54-.24L21,26a.62.62,0,0,0,.62-.62V19.56A.62.62,0,0,0,21,18.94Zm-4.67,8Z"/><path class="cls-2" d="M26.15,26.45a.46.46,0,0,1-.34-.15l-2.2-2.42H22.06a.45.45,0,0,1-.46-.46V19.57A.62.62,0,0,0,21,19h-3a.42.42,0,0,1-.32-.13.45.45,0,0,1-.14-.32v-2A1.53,1.53,0,0,1,19,15l9.34,0a1.52,1.52,0,0,1,1.53,1.53v5.79a1.53,1.53,0,0,1-1.53,1.53H26.61V26a.45.45,0,0,1-.29.42A.51.51,0,0,1,26.15,26.45ZM22.52,23h1.17a.75.75,0,0,1,.54.24l1.46,1.61V23.69a.74.74,0,0,1,.74-.73h1.93a.61.61,0,0,0,.62-.61V16.56a.62.62,0,0,0-.62-.62h0l-9.34,0a.62.62,0,0,0-.62.62V18H21a1.54,1.54,0,0,1,1.54,1.54Zm1.17.92Z"/></g></g></svg>