<svg xmlns="http://www.w3.org/2000/svg" viewBox="0 0 40 40"><defs><style>.cls-1{fill:none;}.cls-2{fill:#6e7883;}</style></defs><title>post title</title><g id="Layer_2" data-name="Layer 2"><g id="Layer_1-2" data-name="Layer 1"><rect class="cls-1" width="40" height="40"/><path class="cls-2" d="M27.1,16.85H25.63a.46.46,0,0,1,0-.91H27.1a.46.46,0,1,1,0,.91Z"/><path class="cls-2" d="M27.1,18.52H25.63a.46.46,0,0,1,0-.91H27.1a.46.46,0,1,1,0,.91Z"/><path class="cls-2" d="M27.1,15.18H25.63a.46.46,0,0,1,0-.92H27.1a.46.46,0,0,1,0,.92Z"/><path class="cls-2" d="M25.47,18.36A.47.47,0,0,1,25,17.9v-3a.46.46,0,0,1,.92,0v3A.47.47,0,0,1,25.47,18.36Z"/><path class="cls-2" d="M23.68,18.59H22.12a.47.47,0,0,1-.46-.46V14.66a.46.46,0,1,1,.92,0v3h1.1a.46.46,0,1,1,0,.92Z"/><path class="cls-2" d="M19.26,18.67a.45.45,0,0,1-.46-.45V15.27a.45.45,0,0,1,.46-.46.46.46,0,0,1,.46.46v2.95A.46.46,0,0,1,19.26,18.67Z"/><path class="cls-2" d="M20.21,15.12H18.13a.47.47,0,0,1-.46-.46.46.46,0,0,1,.46-.46h2.08a.45.45,0,0,1,.46.46A.46.46,0,0,1,20.21,15.12Z"/><path class="cls-2" d="M16.31,18.67a.45.45,0,0,1-.46-.45V14.57a.46.46,0,1,1,.91,0v3.65A.45.45,0,0,1,16.31,18.67Z"/><path class="cls-2" d="M13.53,18.67a.46.46,0,0,1-.46-.45V15.27a.46.46,0,0,1,.92,0v2.95A.46.46,0,0,1,13.53,18.67Z"/><path class="cls-2" d="M14.48,15.12H12.4a.47.47,0,0,1-.46-.46.46.46,0,0,1,.46-.46h2.08a.45.45,0,0,1,.46.46A.46.46,0,0,1,14.48,15.12Z"/><path class="cls-2" d="M30.2,28.1H9.35a.46.46,0,1,1,0-.91H30.2a.46.46,0,1,1,0,.91Z"/><path class="cls-2" d="M30.2,25H9.35a.46.46,0,0,1-.46-.46A.47.47,0,0,1,9.35,24H30.2a.47.47,0,0,1,.46.46A.46.46,0,0,1,30.2,25Z"/><path class="cls-2" d="M30.2,22H9.35a.46.46,0,0,1-.46-.46A.47.47,0,0,1,9.35,21H30.2a.47.47,0,0,1,.46.46A.46.46,0,0,1,30.2,22Z"/><path class="cls-2" d="M35,13.05a.45.45,0,0,1-.31-.12L29.14,7.68A.46.46,0,0,1,29.76,7l5.55,5.25a.45.45,0,0,1,0,.65A.47.47,0,0,1,35,13.05Z"/><path class="cls-2" d="M33.5,32.55H6.5a2,2,0,0,1-2-2V8.84a2,2,0,0,1,2-1.95H29.3a.44.44,0,0,1,.33.13.48.48,0,0,1,.13.32v5.09l5.23-.1a.44.44,0,0,1,.33.13.43.43,0,0,1,.14.32V30.59A2,2,0,0,1,33.5,32.55ZM6.5,7.8a1,1,0,0,0-1,1V30.59a1,1,0,0,0,1,1.05h27a1,1,0,0,0,1-1.05V13.25l-5.23.1a.51.51,0,0,1-.33-.13.45.45,0,0,1-.14-.33V7.8Z"/></g></g></svg>