<svg xmlns="http://www.w3.org/2000/svg" viewBox="0 0 40 40"><defs><style>.cls-1{fill:none;}.cls-2{fill:#6e7883;}</style></defs><title>post info</title><g id="Layer_2" data-name="Layer 2"><g id="Layer_1-2" data-name="Layer 1"><rect class="cls-1" width="40" height="40"/><path class="cls-2" d="M30.54,29.36H9a.46.46,0,0,1-.46-.46A.45.45,0,0,1,9,28.44H30.54a.46.46,0,0,1,.46.46A.47.47,0,0,1,30.54,29.36Z"/><path class="cls-2" d="M30.54,26.1H9a.45.45,0,0,1-.46-.46A.46.46,0,0,1,9,25.18H30.54a.47.47,0,0,1,.46.46A.46.46,0,0,1,30.54,26.1Z"/><path class="cls-2" d="M30.54,23H9a.46.46,0,0,1,0-.92H30.54a.46.46,0,0,1,0,.92Z"/><path class="cls-2" d="M35.5,13.1a.46.46,0,0,1-.31-.13L29.45,7.55a.47.47,0,0,1,0-.65.46.46,0,0,1,.65,0l5.73,5.42a.45.45,0,0,1,0,.65A.44.44,0,0,1,35.5,13.1Z"/><path class="cls-2" d="M34,33.25H6.05a2,2,0,0,1-2-2V8.76a2,2,0,0,1,2-2H29.61a.45.45,0,0,1,.33.14.48.48,0,0,1,.13.32v5.27l5.42-.1a.46.46,0,0,1,.47.45V31.24A2,2,0,0,1,34,33.25ZM6.05,7.67A1.09,1.09,0,0,0,5,8.76V31.24a1.09,1.09,0,0,0,1.09,1.09H34A1.09,1.09,0,0,0,35,31.24V13.3l-5.42.11a.49.49,0,0,1-.33-.14.43.43,0,0,1-.14-.32V7.67Z"/><path class="cls-2" d="M18.55,19.89a1.22,1.22,0,0,1-.88-.37l-2.46-2.46a1.24,1.24,0,0,1,0-1.76L19,11.48a1.27,1.27,0,0,1,.91-.37l2.42,0a1.24,1.24,0,0,1,1.24,1.23l0,2.43a1.26,1.26,0,0,1-.37.9l-3.82,3.81a1.2,1.2,0,0,1-.88.37ZM19.91,12a.31.31,0,0,0-.24.1l-3.82,3.81a.37.37,0,0,0,0,.48l2.46,2.46a.37.37,0,0,0,.24.1h0a.37.37,0,0,0,.24-.1l3.82-3.82a.34.34,0,0,0,.09-.24l0-2.43a.33.33,0,0,0-.33-.33l-2.43,0Z"/><path class="cls-2" d="M21.56,13.61a.43.43,0,0,1-.32-.14c-.61-.6-.4-1.75.48-2.63a2.8,2.8,0,0,1,1.3-.77,1.38,1.38,0,0,1,1.33.29c.6.6.39,1.76-.48,2.63a.46.46,0,0,1-.65,0,.45.45,0,0,1,0-.64c.55-.56.66-1.17.48-1.34a.52.52,0,0,0-.46,0,2,2,0,0,0-.88.53c-.55.56-.65,1.16-.48,1.34a.46.46,0,0,1-.32.78Z"/></g></g></svg>