<svg xmlns="http://www.w3.org/2000/svg" viewBox="0 0 40 40"><defs><style>.cls-1{fill:none;}.cls-2{fill:#6e7883;}</style></defs><title>posts archive</title><g id="Layer_2" data-name="Layer 2"><g id="Layer_1-2" data-name="Layer 1"><rect class="cls-1" width="40" height="40"/><path class="cls-2" d="M35.26,13.21a.42.42,0,0,1-.31-.13L29.3,7.74a.46.46,0,0,1,0-.64.45.45,0,0,1,.65,0l5.65,5.34a.46.46,0,0,1,0,.65A.47.47,0,0,1,35.26,13.21Z"/><path class="cls-2" d="M33.73,33.05H6.27a2,2,0,0,1-2-2V8.94a2,2,0,0,1,2-2h23.2a.45.45,0,0,1,.32.14.42.42,0,0,1,.13.32v5.18l5.33-.1a.44.44,0,0,1,.33.13.45.45,0,0,1,.14.33V31.06A2,2,0,0,1,33.73,33.05ZM6.27,7.87A1.07,1.07,0,0,0,5.2,8.94V31.06a1.07,1.07,0,0,0,1.07,1.07H33.73a1.07,1.07,0,0,0,1.07-1.07V13.41l-5.33.1a.41.41,0,0,1-.33-.13.43.43,0,0,1-.14-.32V7.87Z"/><path class="cls-2" d="M26.28,21H12.74a.45.45,0,0,1-.46-.45V13.48A.69.69,0,0,1,13,12.8H26.05a.68.68,0,0,1,.68.68v7.09A.45.45,0,0,1,26.28,21ZM13.2,20.11H25.82v-6.4H13.2Zm12.85-6.4h0Z"/><path class="cls-2" d="M26.05,28.34H13a.69.69,0,0,1-.68-.69V20.57a.45.45,0,0,1,.46-.46H26.28a.45.45,0,0,1,.45.46v7.08A.68.68,0,0,1,26.05,28.34ZM13.2,27.42H25.82V21H13.2Z"/><path class="cls-2" d="M20.58,18.3H18.43a1.63,1.63,0,0,1-1.63-1.64v-.41a.46.46,0,1,1,.91,0v.41a.72.72,0,0,0,.72.72h2.15a.72.72,0,0,0,.72-.72v-.41a.46.46,0,1,1,.91,0v.41A1.63,1.63,0,0,1,20.58,18.3Z"/><path class="cls-2" d="M20.58,25.48H18.43a1.64,1.64,0,0,1-1.63-1.64v-.41a.46.46,0,1,1,.91,0v.41a.72.72,0,0,0,.72.72h2.15a.72.72,0,0,0,.72-.72v-.41a.46.46,0,1,1,.91,0v.41A1.64,1.64,0,0,1,20.58,25.48Z"/></g></g></svg>