<svg xmlns="http://www.w3.org/2000/svg" viewBox="0 0 40 40"><defs><style>.cls-1{fill:none;}.cls-2{fill:#6e7883;}</style></defs><title>price list</title><g id="Layer_2" data-name="Layer 2"><g id="Layer_1-2" data-name="Layer 1"><rect class="cls-1" width="40" height="40"/><path class="cls-2" d="M28.84,11.47H24.27a.46.46,0,0,1-.45-.46V5.81a.46.46,0,0,1,.29-.43.49.49,0,0,1,.51.13l4.56,5.2a.44.44,0,0,1,.07.49A.45.45,0,0,1,28.84,11.47Zm-4.11-.92h3.1L24.73,7Z"/><path class="cls-2" d="M27.57,34.79H12.11a1.72,1.72,0,0,1-1.73-1.72v-26a1.73,1.73,0,0,1,1.73-1.73H24.28a.47.47,0,0,1,.46.46.46.46,0,0,1-.46.46H12.11a.81.81,0,0,0-.81.81v26a.81.81,0,0,0,.81.81H27.57a.81.81,0,0,0,.81-.81V11a.45.45,0,0,1,.46-.46.46.46,0,0,1,.46.46V33.07A1.73,1.73,0,0,1,27.57,34.79Z"/><path class="cls-2" d="M20,19.31A2.29,2.29,0,0,1,18.76,19a.46.46,0,0,1,.5-.77,1.18,1.18,0,0,0,1,.13s.14-.08.14-.33-.1-.37-.56-.52-1.12-.36-1.12-1.28a1.3,1.3,0,0,1,.77-1.27,1.77,1.77,0,0,1,1.75.28.47.47,0,0,1,0,.65.46.46,0,0,1-.65,0,.89.89,0,0,0-.76-.09c-.06,0-.21.08-.21.42s0,.26.49.41A1.38,1.38,0,0,1,21.3,18a1.24,1.24,0,0,1-.62,1.14A1.54,1.54,0,0,1,20,19.31Z"/><path class="cls-2" d="M20,15.48a.46.46,0,0,1-.46-.46v-.56a.46.46,0,0,1,.92,0V15A.46.46,0,0,1,20,15.48Z"/><path class="cls-2" d="M20,20a.47.47,0,0,1-.46-.46V19a.46.46,0,1,1,.92,0v.56A.47.47,0,0,1,20,20Z"/><path class="cls-2" d="M20,21.77A4.75,4.75,0,1,1,24.75,17,4.75,4.75,0,0,1,20,21.77Zm0-8.58A3.84,3.84,0,1,0,23.83,17,3.85,3.85,0,0,0,20,13.19Z"/><path class="cls-2" d="M26.38,31.7H24.27a.35.35,0,0,1-.34-.35V30.14a.35.35,0,0,1,.34-.35h2.11a.35.35,0,0,1,.35.35v1.21A.35.35,0,0,1,26.38,31.7ZM24.62,31H26v-.53H24.62Z"/><path class="cls-2" d="M23.28,30.48H16.85a.35.35,0,0,1-.35-.34.35.35,0,0,1,.35-.35h6.43a.35.35,0,0,1,.35.35A.35.35,0,0,1,23.28,30.48Z"/><path class="cls-2" d="M23.28,31.7H16.85a.35.35,0,0,1-.35-.35.35.35,0,0,1,.35-.34h6.43a.35.35,0,0,1,.35.34A.35.35,0,0,1,23.28,31.7Z"/><path class="cls-2" d="M26.62,29.27H16.85a.35.35,0,1,1,0-.69h9.77a.35.35,0,0,1,0,.69Z"/><path class="cls-2" d="M15.08,31.7H13.46a.75.75,0,0,1-.74-.75V29.33a.75.75,0,0,1,.74-.75h1.62a.76.76,0,0,1,.75.75V31A.76.76,0,0,1,15.08,31.7Zm-1.62-2.43a.06.06,0,0,0-.05.06V31l1.67.06.06-1.68Z"/><path class="cls-2" d="M26.38,26.74H24.27a.34.34,0,0,1-.34-.34V25.19a.35.35,0,0,1,.34-.35h2.11a.35.35,0,0,1,.35.35V26.4A.34.34,0,0,1,26.38,26.74Zm-1.76-.68H26v-.53H24.62Z"/><path class="cls-2" d="M23.28,25.53H16.85a.35.35,0,0,1-.35-.34.35.35,0,0,1,.35-.35h6.43a.35.35,0,0,1,.35.35A.35.35,0,0,1,23.28,25.53Z"/><path class="cls-2" d="M23.28,26.74H16.85a.34.34,0,1,1,0-.68h6.43a.34.34,0,1,1,0,.68Z"/><path class="cls-2" d="M26.62,24.32H16.85A.35.35,0,0,1,16.5,24a.35.35,0,0,1,.35-.34h9.77A.34.34,0,0,1,27,24,.35.35,0,0,1,26.62,24.32Z"/><path class="cls-2" d="M15.08,26.74H13.46a.74.74,0,0,1-.74-.74V24.38a.74.74,0,0,1,.74-.75h1.62a.75.75,0,0,1,.75.75V26A.75.75,0,0,1,15.08,26.74Zm-1.62-2.42s-.05,0-.05.06V26l1.67.06.06-1.68Z"/></g></g></svg>