<svg xmlns="http://www.w3.org/2000/svg" viewBox="0 0 40 40"><defs><style>.cls-1{fill:none;}.cls-2{fill:#6e7883;}</style></defs><title>Pricing table</title><g id="Layer_2" data-name="Layer 2"><g id="Layer_1-2" data-name="Layer 1"><rect class="cls-1" width="40" height="40"/><path class="cls-2" d="M39.28,27.94H27.39a.46.46,0,0,1,0-.92H39.28a.46.46,0,0,1,0,.92Z"/><path class="cls-2" d="M12.87,27.94H.46a.46.46,0,0,1,0-.92H12.87a.46.46,0,1,1,0,.92Z"/><path class="cls-2" d="M35.43,30H30.54a.46.46,0,0,1,0-.92h4.89a.46.46,0,0,1,0,.92Z"/><path class="cls-2" d="M35.26,16.79h-4.2a.46.46,0,1,1,0-.92h4.2a.46.46,0,0,1,0,.92Z"/><path class="cls-2" d="M33.23,25.19a.46.46,0,0,1-.46-.46V24a.46.46,0,0,1,.46-.46.47.47,0,0,1,.46.46v.69A.47.47,0,0,1,33.23,25.19Z"/><path class="cls-2" d="M33.23,20.22a.45.45,0,0,1-.46-.45v-.69a.45.45,0,0,1,.46-.46.46.46,0,0,1,.46.46v.69A.46.46,0,0,1,33.23,20.22Z"/><path class="cls-2" d="M33.27,24.27a3.79,3.79,0,0,1-1.17-.21.46.46,0,1,1,.3-.86,2,2,0,0,0,1.3.06s.09-.06.08-.27-.11-.37-.6-.53A1.54,1.54,0,0,1,31.89,21a1.18,1.18,0,0,1,.49-1.11,2.22,2.22,0,0,1,1.9.16.46.46,0,1,1-.42.81,1.54,1.54,0,0,0-1-.2c-.05,0-.07.15-.07.31,0,.39.17.46.66.62S34.69,22,34.7,23a1.18,1.18,0,0,1-.47,1A1.67,1.67,0,0,1,33.27,24.27Z"/><path class="cls-2" d="M36.31,14.35H30a.46.46,0,1,1,0-.92h6.3a.46.46,0,0,1,0,.92Z"/><path class="cls-2" d="M37.18,11.73H29a.46.46,0,1,1,0-.91h8.22a.46.46,0,1,1,0,.91Z"/><path class="cls-2" d="M6.65,25.19a.47.47,0,0,1-.46-.46V24a.46.46,0,0,1,.92,0v.69A.47.47,0,0,1,6.65,25.19Z"/><path class="cls-2" d="M6.65,20.22a.46.46,0,0,1-.46-.45v-.69a.46.46,0,0,1,.92,0v.69A.46.46,0,0,1,6.65,20.22Z"/><path class="cls-2" d="M6.69,24.27a3.79,3.79,0,0,1-1.17-.21.46.46,0,0,1,.3-.86,2,2,0,0,0,1.3.06s.09-.06.09-.27-.11-.37-.61-.53A1.54,1.54,0,0,1,5.31,21a1.17,1.17,0,0,1,.5-1.11c.67-.42,1.69.06,1.89.16a.46.46,0,1,1-.42.81,1.53,1.53,0,0,0-1-.2s-.07.15-.07.31c0,.39.17.46.66.62S8.11,22,8.13,23a1.18,1.18,0,0,1-.47,1A1.73,1.73,0,0,1,6.69,24.27Z"/><path class="cls-2" d="M9,30H4.13a.46.46,0,0,1,0-.92H9A.46.46,0,1,1,9,30Z"/><path class="cls-2" d="M8.85,16.79H4.66a.46.46,0,0,1,0-.92H8.85a.46.46,0,0,1,0,.92Z"/><path class="cls-2" d="M9.9,14.35H3.61a.46.46,0,1,1,0-.92H9.9a.46.46,0,0,1,0,.92Z"/><path class="cls-2" d="M10.78,11.73H2.56a.46.46,0,1,1,0-.91h8.22a.46.46,0,1,1,0,.91Z"/><path class="cls-2" d="M12.7,27.94H.63a.46.46,0,0,1,0-.92H12.7a.46.46,0,0,1,0,.92Z"/><path class="cls-2" d="M20,25.32a.46.46,0,0,1-.46-.45V24a.46.46,0,0,1,.46-.45.45.45,0,0,1,.46.45v.88A.45.45,0,0,1,20,25.32Z"/><path class="cls-2" d="M20,19.05a.46.46,0,0,1-.46-.46v-.87a.47.47,0,0,1,.46-.46.46.46,0,0,1,.46.46v.87A.45.45,0,0,1,20,19.05Z"/><path class="cls-2" d="M20.1,24.16a4.61,4.61,0,0,1-1.43-.26A.46.46,0,0,1,19,23c.4.14,1.35.34,1.72.07,0,0,.17-.12.16-.45s-.21-.57-.83-.78a1.81,1.81,0,0,1-1.53-1.73,1.33,1.33,0,0,1,.57-1.3c.79-.5,2,.09,2.24.21a.44.44,0,0,1,.2.61.45.45,0,0,1-.62.2c-.4-.2-1.09-.4-1.33-.24s-.15.34-.14.49c0,.57.29.69.9.89s1.44.48,1.46,1.64a1.38,1.38,0,0,1-.54,1.21A2,2,0,0,1,20.1,24.16Z"/><path class="cls-2" d="M27,28.46H12.87a.46.46,0,0,1,0-.92H27a.46.46,0,0,1,0,.92Z"/><path class="cls-2" d="M23.19,31.25H16.72a.46.46,0,1,1,0-.92h6.47a.46.46,0,0,1,0,.92Z"/><path class="cls-2" d="M22.84,14.52H17.25a.46.46,0,1,1,0-.91h5.59a.46.46,0,1,1,0,.91Z"/><path class="cls-2" d="M23.89,12.08H16.2a.46.46,0,1,1,0-.91h7.69a.46.46,0,1,1,0,.91Z"/><path class="cls-2" d="M24.76,9.47H15.15a.46.46,0,0,1,0-.92h9.61a.46.46,0,1,1,0,.92Z"/><path class="cls-2" d="M37.79,32.55H27.3a.46.46,0,1,1,0-.91H37.79a1.29,1.29,0,0,0,1.29-1.29V9.79a1.29,1.29,0,0,0-1.29-1.28H27.3a.46.46,0,0,1-.46-.46.47.47,0,0,1,.46-.46H37.79A2.21,2.21,0,0,1,40,9.79V30.35A2.2,2.2,0,0,1,37.79,32.55Z"/><path class="cls-2" d="M12.7,32.47H2.21A2.21,2.21,0,0,1,0,30.27V9.71a2.2,2.2,0,0,1,2.21-2.2H12.7a.46.46,0,1,1,0,.91H2.21A1.29,1.29,0,0,0,.92,9.71V30.27a1.29,1.29,0,0,0,1.29,1.28H12.7a.46.46,0,1,1,0,.92Z"/><path class="cls-2" d="M25.46,34.38H14.62a2.2,2.2,0,0,1-2.2-2.2V7.62a2.2,2.2,0,0,1,2.2-2.2H25.46a2.2,2.2,0,0,1,2.21,2.2V32.18A2.2,2.2,0,0,1,25.46,34.38ZM14.62,6.33a1.29,1.29,0,0,0-1.29,1.29V32.18a1.29,1.29,0,0,0,1.29,1.29H25.46a1.29,1.29,0,0,0,1.29-1.29V7.62a1.29,1.29,0,0,0-1.29-1.29Z"/></g></g></svg>