<svg xmlns="http://www.w3.org/2000/svg" viewBox="0 0 40 40"><defs><style>.cls-1{fill:none;}.cls-2{fill:#6e7883;}</style></defs><title>product content</title><g id="Layer_2" data-name="Layer 2"><g id="Layer_1-2" data-name="Layer 1"><rect class="cls-1" width="40" height="40"/><path class="cls-2" d="M25.82,15.42H7.23a.46.46,0,1,1,0-.91H25.82a.46.46,0,0,1,0,.91Z"/><path class="cls-2" d="M24.14,18.14H7.23a.46.46,0,0,1,0-.92H24.14a.46.46,0,0,1,0,.92Z"/><path class="cls-2" d="M23.11,20.86H7.23a.46.46,0,1,1,0-.92H23.11a.46.46,0,0,1,0,.92Z"/><path class="cls-2" d="M21.07,23.57H7.23a.46.46,0,1,1,0-.91H21.07a.46.46,0,1,1,0,.91Z"/><path class="cls-2" d="M29.82,12.42a.45.45,0,0,1-.32-.13L24.73,7.77a.45.45,0,0,1,0-.64.46.46,0,0,1,.65,0l4.77,4.52a.45.45,0,0,1,0,.64A.44.44,0,0,1,29.82,12.42Z"/><path class="cls-2" d="M23.9,29.2H5.29a1.76,1.76,0,0,1-1.75-1.75V8.73A1.76,1.76,0,0,1,5.29,7H24.92a.48.48,0,0,1,.46.46v4.31l4.44-.08a.49.49,0,0,1,.33.13.43.43,0,0,1,.14.32V20a.46.46,0,0,1-.92,0V12.59l-4.44.09a.54.54,0,0,1-.33-.14.42.42,0,0,1-.13-.32V7.9H5.29a.83.83,0,0,0-.83.83V27.45a.83.83,0,0,0,.83.83H23.9a.46.46,0,1,1,0,.92Z"/><path class="cls-2" d="M29.82,33a6.64,6.64,0,1,1,6.64-6.64A6.65,6.65,0,0,1,29.82,33Zm0-12.37a5.73,5.73,0,1,0,5.72,5.73A5.73,5.73,0,0,0,29.82,20.65Z"/><path class="cls-2" d="M28.41,27.42h3.53a.2.2,0,0,0,.19-.15l.78-2.73a.19.19,0,0,0,0-.18.24.24,0,0,0-.16-.07H28l-.14-.63a.2.2,0,0,0-.2-.16H26.44a.2.2,0,0,0,0,.4h1l.7,3.17a.6.6,0,0,0-.35.54.59.59,0,0,0,.59.59h3.53a.2.2,0,0,0,.2-.2.19.19,0,0,0-.2-.19H28.41a.2.2,0,0,1-.2-.2A.19.19,0,0,1,28.41,27.42Z"/><path class="cls-2" d="M28.5,29.12a.56.56,0,0,0,.57.57.57.57,0,0,0,.57-.57.58.58,0,0,0-.57-.57A.57.57,0,0,0,28.5,29.12Z"/><path class="cls-2" d="M30.71,29.12a.56.56,0,0,0,.57.57.57.57,0,0,0,.57-.57.58.58,0,0,0-.57-.57A.57.57,0,0,0,30.71,29.12Z"/></g></g></svg>