<svg xmlns="http://www.w3.org/2000/svg" viewBox="0 0 40 40"><defs><style>.cls-1{fill:none;}.cls-2{fill:#6e7883;}</style></defs><title>product rating</title><g id="Layer_2" data-name="Layer 2"><g id="Layer_1-2" data-name="Layer 1"><rect class="cls-1" width="40" height="40"/><path class="cls-2" d="M30.73,12.53a.5.5,0,0,1-.32-.13L25.64,7.88a.45.45,0,0,1,0-.64.46.46,0,0,1,.65,0L31,11.73a.45.45,0,0,1,0,.65A.44.44,0,0,1,30.73,12.53Z"/><path class="cls-2" d="M24.91,29.31H6.2a1.76,1.76,0,0,1-1.75-1.75V8.84A1.76,1.76,0,0,1,6.2,7.09H25.83a.45.45,0,0,1,.32.14.42.42,0,0,1,.13.32v4.31l4.44-.09a.47.47,0,0,1,.33.14.43.43,0,0,1,.14.32v7.58a.46.46,0,0,1-.92,0V12.7l-4.44.08a.44.44,0,0,1-.46-.45V8H6.2a.83.83,0,0,0-.83.83V27.56a.83.83,0,0,0,.83.83H24.91a.46.46,0,1,1,0,.92Z"/><path class="cls-2" d="M12.88,18a.35.35,0,0,0,.09-.35.36.36,0,0,0-.29-.24l-1.17-.17a.15.15,0,0,1-.11-.08l-.53-1.07a.35.35,0,0,0-.62,0l-.53,1.07a.15.15,0,0,1-.11.08l-1.18.17a.36.36,0,0,0-.28.24.35.35,0,0,0,.09.35l.85.83a.19.19,0,0,1,.05.14l-.21,1.16A.37.37,0,0,0,9,20.4a.35.35,0,0,0,.43.08l1.05-.55a.17.17,0,0,1,.14,0l1,.55a.32.32,0,0,0,.16,0,.36.36,0,0,0,.27-.12.33.33,0,0,0,.07-.29L12,19a.19.19,0,0,1,0-.14Z"/><path class="cls-2" d="M20.19,18a.33.33,0,0,0,.09-.35.35.35,0,0,0-.28-.24l-1.17-.17a.17.17,0,0,1-.12-.08l-.52-1.07a.35.35,0,0,0-.32-.19.34.34,0,0,0-.31.19L17,17.14a.17.17,0,0,1-.12.08l-1.17.17a.35.35,0,0,0-.28.24.33.33,0,0,0,.09.35l.85.83a.18.18,0,0,1,0,.14l-.2,1.16a.35.35,0,0,0,.5.37l1.05-.55a.2.2,0,0,1,.15,0l1.05.55a.29.29,0,0,0,.16,0,.32.32,0,0,0,.26-.12.34.34,0,0,0,.08-.29L19.3,19a.18.18,0,0,1,0-.14Z"/><path class="cls-2" d="M27.51,18a.35.35,0,0,0,.09-.35.36.36,0,0,0-.28-.24l-1.18-.17a.15.15,0,0,1-.11-.08l-.53-1.07a.35.35,0,0,0-.62,0l-.53,1.07a.15.15,0,0,1-.11.08l-1.17.17a.36.36,0,0,0-.29.24.35.35,0,0,0,.09.35l.85.83a.19.19,0,0,1,.05.14l-.2,1.16a.33.33,0,0,0,.07.29.35.35,0,0,0,.43.08l1.05-.55a.17.17,0,0,1,.14,0l1,.55a.32.32,0,0,0,.16,0,.34.34,0,0,0,.27-.12.37.37,0,0,0,.08-.29L26.61,19a.19.19,0,0,1,.05-.14Z"/><path class="cls-2" d="M30.73,32.91a6.64,6.64,0,1,1,6.64-6.64A6.65,6.65,0,0,1,30.73,32.91Zm0-12.36a5.72,5.72,0,1,0,5.72,5.72A5.73,5.73,0,0,0,30.73,20.55Z"/><path class="cls-2" d="M29.32,27.31h3.53a.2.2,0,0,0,.19-.15l.78-2.73a.23.23,0,0,0,0-.18.24.24,0,0,0-.16-.07H28.86l-.13-.63a.2.2,0,0,0-.2-.16H27.35a.2.2,0,0,0,0,.4h1l.7,3.17a.6.6,0,0,0-.35.54.59.59,0,0,0,.59.59h3.53a.19.19,0,0,0,.19-.2.18.18,0,0,0-.19-.19H29.32a.2.2,0,0,1-.2-.2A.19.19,0,0,1,29.32,27.31Z"/><path class="cls-2" d="M29.41,29a.56.56,0,0,0,.57.57.57.57,0,0,0,.57-.57.58.58,0,0,0-.57-.57A.57.57,0,0,0,29.41,29Z"/><path class="cls-2" d="M31.62,29a.56.56,0,0,0,.57.57.57.57,0,0,0,.57-.57.58.58,0,0,0-.57-.57A.57.57,0,0,0,31.62,29Z"/></g></g></svg>