<svg xmlns="http://www.w3.org/2000/svg" viewBox="0 0 40 40"><defs><style>.cls-1{fill:none;}.cls-2{fill:#6e7883;}.cls-3{fill:#6f7883;}</style></defs><title>product meta</title><g id="Layer_2" data-name="Layer 2"><g id="Layer_1-2" data-name="Layer 1"><rect class="cls-1" width="40" height="40"/><path class="cls-2" d="M29.88,12.54a.47.47,0,0,1-.31-.12l-4.92-4.7a.45.45,0,0,1,0-.64.46.46,0,0,1,.65,0l4.91,4.7a.45.45,0,0,1,0,.64A.42.42,0,0,1,29.88,12.54Z"/><path class="cls-2" d="M23.89,29.2H5.29a1.75,1.75,0,0,1-1.75-1.75V8.69A1.76,1.76,0,0,1,5.29,6.93H25a.48.48,0,0,1,.46.46v4.32l4.46-.08a.44.44,0,0,1,.32.13.45.45,0,0,1,.14.33V20a.46.46,0,1,1-.91,0V12.55L25,12.64a.39.39,0,0,1-.32-.13.47.47,0,0,1-.14-.33V7.85H5.29a.84.84,0,0,0-.83.84V27.45a.84.84,0,0,0,.83.84h18.6a.46.46,0,1,1,0,.91Z"/><path class="cls-2" d="M29.8,33.07a6.66,6.66,0,1,1,6.66-6.66A6.66,6.66,0,0,1,29.8,33.07Zm0-12.4a5.74,5.74,0,1,0,5.74,5.74A5.75,5.75,0,0,0,29.8,20.67Z"/><path class="cls-2" d="M28.39,27.45h3.54a.2.2,0,0,0,.19-.14l.78-2.75a.17.17,0,0,0,0-.17.19.19,0,0,0-.16-.08H27.94l-.14-.63a.2.2,0,0,0-.2-.15H26.41a.2.2,0,0,0-.19.2.2.2,0,0,0,.19.19h1l.7,3.19a.6.6,0,0,0-.35.54.58.58,0,0,0,.59.58h3.54a.19.19,0,0,0,.2-.19.2.2,0,0,0-.2-.2H28.39a.2.2,0,1,1,0-.39Z"/><path class="cls-2" d="M28.48,29.16a.58.58,0,0,0,.57.58.58.58,0,1,0-.57-.58Z"/><path class="cls-2" d="M30.69,29.16a.58.58,0,1,0,.58-.57A.58.58,0,0,0,30.69,29.16Z"/><circle class="cls-3" cx="7.48" cy="23.53" r="0.95"/><circle class="cls-3" cx="10.68" cy="23.53" r="0.95"/><circle class="cls-3" cx="13.89" cy="23.53" r="0.95"/></g></g></svg>