<svg xmlns="http://www.w3.org/2000/svg" viewBox="0 0 40 40"><defs><style>.cls-1{fill:none;}.cls-2{fill:#6e7883;}</style></defs><title>product related</title><g id="Layer_2" data-name="Layer 2"><g id="Layer_1-2" data-name="Layer 1"><rect class="cls-1" width="40" height="40"/><path class="cls-2" d="M30.67,33H5.4a1.81,1.81,0,0,1-1.86-1.73V12.7A1.81,1.81,0,0,1,5.4,11H30.67a1.8,1.8,0,0,1,1.86,1.74V31.23A1.8,1.8,0,0,1,30.67,33ZM5.4,11.88a.89.89,0,0,0-.94.82V31.23a.89.89,0,0,0,.94.82H30.67a.9.9,0,0,0,.95-.82V12.7a.9.9,0,0,0-.95-.82Z"/><path class="cls-2" d="M32.63,31h-.56a.46.46,0,0,1,0-.92h.56a.89.89,0,0,0,.95-.82V10.74a.89.89,0,0,0-.95-.82H7.37a.89.89,0,0,0-1,.82v.68a.46.46,0,1,1-.91,0v-.68A1.8,1.8,0,0,1,7.37,9H32.63a1.8,1.8,0,0,1,1.86,1.74V29.26A1.8,1.8,0,0,1,32.63,31Z"/><path class="cls-2" d="M34.6,29H34a.46.46,0,0,1-.46-.46.45.45,0,0,1,.46-.46h.56a.89.89,0,0,0,.94-.82V8.77A.89.89,0,0,0,34.6,8H9.33a.89.89,0,0,0-.94.82v.69a.47.47,0,0,1-.46.46.46.46,0,0,1-.46-.46V8.77A1.8,1.8,0,0,1,9.33,7H34.6a1.81,1.81,0,0,1,1.86,1.73V27.3A1.81,1.81,0,0,1,34.6,29Z"/><path class="cls-2" d="M15.57,23.5h6.64a.38.38,0,0,0,.36-.27L24,18.08a.37.37,0,0,0-.06-.32.37.37,0,0,0-.3-.14h-9l-.26-1.19a.37.37,0,0,0-.36-.28H11.87a.37.37,0,0,0,0,.73h1.94l1.33,6a1.09,1.09,0,0,0-.67,1A1.11,1.11,0,0,0,15.57,25h6.64a.37.37,0,0,0,0-.74H15.57a.37.37,0,0,1,0-.73Z"/><path class="cls-2" d="M15.74,26.71a1.08,1.08,0,1,0,1.08-1.08A1.07,1.07,0,0,0,15.74,26.71Z"/><path class="cls-2" d="M19.9,26.71A1.07,1.07,0,1,0,21,25.63,1.07,1.07,0,0,0,19.9,26.71Z"/></g></g></svg>