<svg xmlns="http://www.w3.org/2000/svg" viewBox="0 0 40 40"><defs><style>.cls-1{fill:none;}.cls-2{fill:#6e7883;}</style></defs><title>product stock</title><g id="Layer_2" data-name="Layer 2"><g id="Layer_1-2" data-name="Layer 1"><rect class="cls-1" width="40" height="40"/><path class="cls-2" d="M25.4,29.31H19a.46.46,0,0,1-.46-.46V7.55A.46.46,0,0,1,19,7.09H31.16a.46.46,0,1,1,0,.92H19.4V28.39h6a.46.46,0,0,1,0,.92Z"/><path class="cls-2" d="M31.16,20.31a.47.47,0,0,1-.46-.46V15.06a.46.46,0,0,1,.92,0v4.79A.47.47,0,0,1,31.16,20.31Z"/><path class="cls-2" d="M19,29.31H7.75a1.48,1.48,0,0,1-1.48-1.48V15.06a.46.46,0,0,1,.92,0V27.83a.56.56,0,0,0,.56.56H18.49V8H6.73a.46.46,0,0,1,0-.92H19a.46.46,0,0,1,.45.46v21.3A.46.46,0,0,1,19,29.31Z"/><path class="cls-2" d="M15.34,15.29H2.66a.46.46,0,0,1-.4-.23.45.45,0,0,1,0-.45L6.33,7.33a.45.45,0,0,1,.4-.24H19a.44.44,0,0,1,.38.22.43.43,0,0,1,0,.44L15.75,15A.45.45,0,0,1,15.34,15.29Zm-11.9-.92H15.06L18.21,8H7Z"/><path class="cls-2" d="M35.23,15.29H22.55a.46.46,0,0,1-.41-.25l-3.6-7.29a.43.43,0,0,1,0-.44A.44.44,0,0,1,19,7.09H31.16a.45.45,0,0,1,.4.24l4.07,7.28a.45.45,0,0,1,0,.45A.46.46,0,0,1,35.23,15.29Zm-12.4-.92H34.45L30.89,8H19.68Z"/><path class="cls-2" d="M31.16,32.91a6.64,6.64,0,1,1,6.64-6.64A6.65,6.65,0,0,1,31.16,32.91Zm0-12.36a5.72,5.72,0,1,0,5.73,5.72A5.73,5.73,0,0,0,31.16,20.55Z"/><path class="cls-2" d="M29.75,27.31h3.53a.19.19,0,0,0,.19-.15l.78-2.73a.19.19,0,0,0,0-.18.21.21,0,0,0-.15-.07H29.3l-.14-.63a.2.2,0,0,0-.19-.16H27.78a.2.2,0,0,0,0,.4h1L29.52,27a.59.59,0,0,0,.23,1.13h3.53a.2.2,0,0,0,.2-.2.19.19,0,0,0-.2-.19H29.75a.2.2,0,0,1-.2-.2A.19.19,0,0,1,29.75,27.31Z"/><path class="cls-2" d="M29.84,29a.57.57,0,0,0,.57.57A.56.56,0,0,0,31,29a.57.57,0,0,0-.57-.57A.58.58,0,0,0,29.84,29Z"/><path class="cls-2" d="M32.05,29a.57.57,0,0,0,.57.57.56.56,0,0,0,.57-.57.57.57,0,0,0-.57-.57A.58.58,0,0,0,32.05,29Z"/></g></g></svg>