<svg xmlns="http://www.w3.org/2000/svg" viewBox="0 0 40 40"><defs><style>.cls-1{fill:none;}.cls-2{fill:#6e7883;}</style></defs><title>products</title><g id="Layer_2" data-name="Layer 2"><g id="Layer_1-2" data-name="Layer 1"><rect class="cls-1" width="40" height="40"/><path class="cls-2" d="M17.75,18.92h-13a1.18,1.18,0,0,1-1.18-1.18V7.25A1.18,1.18,0,0,1,4.72,6.07h13a1.18,1.18,0,0,1,1.18,1.18V17.74A1.18,1.18,0,0,1,17.75,18.92ZM4.72,7a.26.26,0,0,0-.26.26V17.74a.27.27,0,0,0,.26.27h13a.27.27,0,0,0,.26-.27V7.25A.26.26,0,0,0,17.75,7Z"/><path class="cls-2" d="M35.28,18.92h-13a1.18,1.18,0,0,1-1.18-1.18V7.25a1.18,1.18,0,0,1,1.18-1.18h13a1.18,1.18,0,0,1,1.18,1.18V17.74A1.18,1.18,0,0,1,35.28,18.92ZM22.25,7a.26.26,0,0,0-.26.26V17.74a.27.27,0,0,0,.26.27h13a.27.27,0,0,0,.26-.27V7.25A.26.26,0,0,0,35.28,7Z"/><path class="cls-2" d="M17.75,33.93h-13a1.18,1.18,0,0,1-1.18-1.18V22.26a1.18,1.18,0,0,1,1.18-1.18h13a1.18,1.18,0,0,1,1.18,1.18V32.75A1.18,1.18,0,0,1,17.75,33.93ZM4.72,22a.27.27,0,0,0-.26.27V32.75a.26.26,0,0,0,.26.26h13a.26.26,0,0,0,.26-.26V22.26a.27.27,0,0,0-.26-.27Z"/><path class="cls-2" d="M35.28,33.93h-13a1.18,1.18,0,0,1-1.18-1.18V22.26a1.18,1.18,0,0,1,1.18-1.18h13a1.18,1.18,0,0,1,1.18,1.18V32.75A1.18,1.18,0,0,1,35.28,33.93ZM22.25,22a.27.27,0,0,0-.26.27V32.75a.26.26,0,0,0,.26.26h13a.26.26,0,0,0,.26-.26V22.26a.27.27,0,0,0-.26-.27Z"/><path class="cls-2" d="M9.19,13.57h4.63a.26.26,0,0,0,.25-.19l1-3.59a.28.28,0,0,0,0-.23.25.25,0,0,0-.2-.1H8.6l-.19-.82a.25.25,0,0,0-.25-.2H6.61a.25.25,0,0,0-.26.25A.26.26,0,0,0,6.61,9H8l.92,4.17a.77.77,0,0,0,.31,1.47h4.63a.25.25,0,0,0,.26-.25.26.26,0,0,0-.26-.26H9.19a.26.26,0,1,1,0-.51Z"/><path class="cls-2" d="M9.31,15.81a.75.75,0,1,0,.75-.75A.75.75,0,0,0,9.31,15.81Z"/><path class="cls-2" d="M12.21,15.81a.75.75,0,1,0,1.49,0,.75.75,0,1,0-1.49,0Z"/><path class="cls-2" d="M26.89,13.57h4.63a.26.26,0,0,0,.25-.19l1-3.59a.24.24,0,0,0,0-.23.26.26,0,0,0-.2-.1H26.29l-.18-.82a.26.26,0,0,0-.25-.2H24.3a.25.25,0,0,0-.25.25A.26.26,0,0,0,24.3,9h1.35l.93,4.17a.77.77,0,0,0,.31,1.47h4.63a.26.26,0,0,0,.26-.25.26.26,0,0,0-.26-.26H26.89a.26.26,0,1,1,0-.51Z"/><path class="cls-2" d="M27,15.81a.75.75,0,1,0,1.5,0,.75.75,0,0,0-1.5,0Z"/><path class="cls-2" d="M29.9,15.81a.75.75,0,1,0,1.5,0,.75.75,0,0,0-1.5,0Z"/><path class="cls-2" d="M9.19,28.57h4.63a.25.25,0,0,0,.25-.18l1-3.59a.28.28,0,0,0,0-.23.25.25,0,0,0-.2-.1H8.6l-.19-.83a.26.26,0,0,0-.25-.2H6.61a.26.26,0,1,0,0,.52H8l.92,4.16a.77.77,0,0,0,.31,1.48h4.63a.26.26,0,1,0,0-.51H9.19a.26.26,0,0,1,0-.52Z"/><path class="cls-2" d="M9.31,30.81a.75.75,0,0,0,1.5,0,.75.75,0,0,0-1.5,0Z"/><path class="cls-2" d="M12.21,30.81a.75.75,0,1,0,.75-.75A.74.74,0,0,0,12.21,30.81Z"/><path class="cls-2" d="M26.89,28.57h4.63a.25.25,0,0,0,.25-.18l1-3.59a.24.24,0,0,0,0-.23.26.26,0,0,0-.2-.1H26.29l-.18-.83a.27.27,0,0,0-.25-.2H24.3a.26.26,0,0,0,0,.52h1.35l.93,4.16a.77.77,0,0,0,.31,1.48h4.63a.26.26,0,1,0,0-.51H26.89a.26.26,0,0,1,0-.52Z"/><path class="cls-2" d="M27,30.81a.75.75,0,1,0,.75-.75A.75.75,0,0,0,27,30.81Z"/><path class="cls-2" d="M29.9,30.81a.75.75,0,1,0,.75-.75A.75.75,0,0,0,29.9,30.81Z"/></g></g></svg>