<svg xmlns="http://www.w3.org/2000/svg" viewBox="0 0 40 40"><defs><style>.cls-1{fill:none;}.cls-2{fill:#6e7883;}</style></defs><title>product title</title><g id="Layer_2" data-name="Layer 2"><g id="Layer_1-2" data-name="Layer 1"><rect class="cls-1" width="40" height="40"/><path class="cls-2" d="M21,21.92H12A.46.46,0,0,1,12,21h9a.46.46,0,0,1,0,.92Z"/><path class="cls-2" d="M24.44,20.12H8.65a.45.45,0,0,1-.46-.46.46.46,0,0,1,.46-.46H24.44a.46.46,0,0,1,.45.46A.45.45,0,0,1,24.44,20.12Z"/><path class="cls-2" d="M29.82,12.53a.5.5,0,0,1-.32-.13L24.73,7.88a.45.45,0,0,1,0-.64.46.46,0,0,1,.65,0l4.77,4.51a.45.45,0,0,1,0,.65A.44.44,0,0,1,29.82,12.53Z"/><path class="cls-2" d="M24.1,29.31H5.29a1.76,1.76,0,0,1-1.75-1.75V8.84A1.76,1.76,0,0,1,5.29,7.09H24.92a.45.45,0,0,1,.32.14.42.42,0,0,1,.13.32v4.31l4.44-.09a.44.44,0,0,1,.33.14.43.43,0,0,1,.14.32v7.63a.46.46,0,0,1-.92,0V12.7l-4.44.08a.45.45,0,0,1-.33-.13.43.43,0,0,1-.14-.32V8H5.29a.83.83,0,0,0-.83.83V27.56a.83.83,0,0,0,.83.83H24.1a.46.46,0,0,1,0,.92Z"/><path class="cls-2" d="M29.82,32.91a6.64,6.64,0,1,1,6.64-6.64A6.65,6.65,0,0,1,29.82,32.91Zm0-12.36a5.72,5.72,0,1,0,5.72,5.72A5.72,5.72,0,0,0,29.82,20.55Z"/><path class="cls-2" d="M28.41,27.31h3.53a.2.2,0,0,0,.19-.15l.78-2.73a.19.19,0,0,0,0-.18.24.24,0,0,0-.16-.07H28l-.14-.63a.2.2,0,0,0-.2-.16H26.44a.2.2,0,0,0,0,.4h1l.7,3.17a.6.6,0,0,0-.35.54.59.59,0,0,0,.59.59h3.53a.2.2,0,0,0,.2-.2.19.19,0,0,0-.2-.19H28.41a.2.2,0,0,1-.2-.2A.19.19,0,0,1,28.41,27.31Z"/><path class="cls-2" d="M28.5,29a.56.56,0,0,0,.57.57.57.57,0,0,0,.57-.57.58.58,0,0,0-.57-.57A.57.57,0,0,0,28.5,29Z"/><path class="cls-2" d="M30.71,29a.56.56,0,0,0,.57.57.57.57,0,0,0,.57-.57.58.58,0,0,0-.57-.57A.57.57,0,0,0,30.71,29Z"/><path class="cls-2" d="M22.31,15.69H21.22a.46.46,0,1,1,0-.91h1.09a.46.46,0,1,1,0,.91Z"/><path class="cls-2" d="M22.31,16.94H21.22a.47.47,0,0,1-.46-.46.46.46,0,0,1,.46-.46h1.09a.45.45,0,0,1,.46.46A.46.46,0,0,1,22.31,16.94Z"/><path class="cls-2" d="M22.31,14.45H21.22a.46.46,0,0,1,0-.92h1.09a.46.46,0,1,1,0,.92Z"/><path class="cls-2" d="M21.1,16.81a.45.45,0,0,1-.46-.46V14.11a.45.45,0,0,1,.46-.45.46.46,0,0,1,.46.45v2.24A.46.46,0,0,1,21.1,16.81Z"/><path class="cls-2" d="M19.77,17H18.61a.45.45,0,0,1-.46-.46V13.94a.46.46,0,1,1,.91,0v2.13h.71a.46.46,0,1,1,0,.91Z"/><path class="cls-2" d="M16.48,17.05a.46.46,0,0,1-.46-.46v-2.2a.46.46,0,0,1,.91,0v2.2A.46.46,0,0,1,16.48,17.05Z"/><path class="cls-2" d="M17.19,14.4H15.64a.45.45,0,0,1-.46-.46.46.46,0,0,1,.46-.46h1.55a.46.46,0,0,1,.45.46A.45.45,0,0,1,17.19,14.4Z"/><path class="cls-2" d="M14.28,17.05a.47.47,0,0,1-.46-.46V13.88a.46.46,0,0,1,.92,0v2.71A.47.47,0,0,1,14.28,17.05Z"/><path class="cls-2" d="M12.22,17.05a.46.46,0,0,1-.46-.46v-2.2a.46.46,0,0,1,.91,0v2.2A.46.46,0,0,1,12.22,17.05Z"/><path class="cls-2" d="M12.93,14.4H11.38a.45.45,0,0,1-.46-.46.46.46,0,0,1,.46-.46h1.55a.46.46,0,0,1,.45.46A.45.45,0,0,1,12.93,14.4Z"/></g></g></svg>