<svg xmlns="http://www.w3.org/2000/svg" viewBox="0 0 40 40"><defs><style>.cls-1{fill:none;}.cls-2{fill:#6e7883;}</style></defs><title>product tabs</title><g id="Layer_2" data-name="Layer 2"><g id="Layer_1-2" data-name="Layer 1"><rect class="cls-1" width="40" height="40"/><path class="cls-2" d="M27.75,9.6H6.06a.46.46,0,1,1,0-.91H27.75a.46.46,0,1,1,0,.91Z"/><path class="cls-2" d="M25.87,7.9H8A.46.46,0,0,1,8,7H25.87a.46.46,0,1,1,0,.92Z"/><path class="cls-2" d="M24.9,30.71H5.29a1.7,1.7,0,0,1-1.75-1.63V12a1.7,1.7,0,0,1,1.75-1.63H28.52A1.69,1.69,0,0,1,30.27,12v8a.46.46,0,1,1-.91,0V12a.79.79,0,0,0-.84-.72H5.29a.79.79,0,0,0-.83.72v17a.78.78,0,0,0,.83.71H24.9a.47.47,0,0,1,.46.46A.46.46,0,0,1,24.9,30.71Z"/><path class="cls-2" d="M29.82,33a6.64,6.64,0,1,1,6.64-6.64A6.65,6.65,0,0,1,29.82,33Zm0-12.36a5.72,5.72,0,1,0,5.72,5.72A5.73,5.73,0,0,0,29.82,20.66Z"/><path class="cls-2" d="M28.41,27.42h3.53a.2.2,0,0,0,.19-.14l.78-2.74a.17.17,0,0,0,0-.17.21.21,0,0,0-.16-.08H28l-.14-.63a.19.19,0,0,0-.19-.15H26.44a.19.19,0,0,0-.2.19.2.2,0,0,0,.2.2h1l.71,3.18a.58.58,0,0,0-.36.53.58.58,0,0,0,.59.59h3.53a.2.2,0,1,0,0-.39H28.41a.2.2,0,1,1,0-.39Z"/><path class="cls-2" d="M28.5,29.12a.57.57,0,0,0,.57.58.58.58,0,0,0,0-1.15A.57.57,0,0,0,28.5,29.12Z"/><path class="cls-2" d="M30.71,29.12a.57.57,0,0,0,.57.58.58.58,0,0,0,0-1.15A.57.57,0,0,0,30.71,29.12Z"/></g></g></svg>