<svg xmlns="http://www.w3.org/2000/svg" viewBox="0 0 40 40"><defs><style>.cls-1{fill:none;}.cls-2{fill:#6e7883;}</style></defs><title>product price</title><g id="Layer_2" data-name="Layer 2"><g id="Layer_1-2" data-name="Layer 1"><rect class="cls-1" width="40" height="40"/><path class="cls-2" d="M29.88,12.54a.43.43,0,0,1-.31-.13L24.65,7.72a.46.46,0,0,1,0-.65.47.47,0,0,1,.65,0l4.91,4.7a.46.46,0,0,1,0,.65A.47.47,0,0,1,29.88,12.54Z"/><path class="cls-2" d="M23.9,29.2H5.29a1.76,1.76,0,0,1-1.75-1.76V8.68A1.75,1.75,0,0,1,5.29,6.93H25a.46.46,0,0,1,.32.13.45.45,0,0,1,.14.33v4.32l4.45-.09a.58.58,0,0,1,.33.13.47.47,0,0,1,.14.33V20a.46.46,0,1,1-.91,0V12.55L25,12.63a.47.47,0,0,1-.32-.13.45.45,0,0,1-.14-.33V7.84H5.29a.84.84,0,0,0-.83.84V27.44a.83.83,0,0,0,.83.84H23.9a.46.46,0,1,1,0,.92Z"/><path class="cls-2" d="M29.8,33.06a6.66,6.66,0,1,1,6.66-6.66A6.66,6.66,0,0,1,29.8,33.06Zm0-12.4a5.74,5.74,0,1,0,5.74,5.74A5.75,5.75,0,0,0,29.8,20.66Z"/><path class="cls-2" d="M28.39,27.44h3.54a.19.19,0,0,0,.19-.14l.78-2.74a.19.19,0,0,0,0-.18.22.22,0,0,0-.16-.07H27.94l-.14-.63a.2.2,0,0,0-.2-.16H26.41a.2.2,0,0,0-.19.2.19.19,0,0,0,.19.19h1l.7,3.19a.6.6,0,0,0-.35.54.59.59,0,0,0,.59.59h3.54a.2.2,0,0,0,.2-.2.19.19,0,0,0-.2-.19H28.39a.2.2,0,0,1,0-.4Z"/><path class="cls-2" d="M28.48,29.16a.58.58,0,0,0,.57.57.58.58,0,0,0,0-1.15A.58.58,0,0,0,28.48,29.16Z"/><path class="cls-2" d="M30.69,29.16a.58.58,0,1,0,.58-.58A.58.58,0,0,0,30.69,29.16Z"/><path class="cls-2" d="M20.37,24.82H13.51a.46.46,0,0,1-.46-.46.47.47,0,0,1,.46-.46h6.86a.46.46,0,0,1,.46.46A.45.45,0,0,1,20.37,24.82Z"/><path class="cls-2" d="M23,22.66h-12a.46.46,0,1,1,0-.91H23a.46.46,0,0,1,0,.91Z"/><path class="cls-2" d="M16.92,18.41a2.86,2.86,0,0,1-1.5-.43.45.45,0,0,1-.13-.63.44.44,0,0,1,.63-.13,1.78,1.78,0,0,0,1.48.17c.12-.06.27-.19.27-.58,0-.55-.25-.65-.85-.84s-1.4-.45-1.4-1.57a1.56,1.56,0,0,1,.94-1.55,2.22,2.22,0,0,1,2.17.35.45.45,0,0,1,0,.64.46.46,0,0,1-.65,0,1.35,1.35,0,0,0-1.18-.16c-.16.07-.37.22-.37.71s.15.5.76.7,1.48.47,1.48,1.71a1.48,1.48,0,0,1-.74,1.39A1.94,1.94,0,0,1,16.92,18.41Z"/><path class="cls-2" d="M17,13.29a.46.46,0,0,1-.46-.46v-.75a.46.46,0,1,1,.91,0v.75A.46.46,0,0,1,17,13.29Z"/><path class="cls-2" d="M17,19.39a.46.46,0,0,1-.46-.46v-.75a.46.46,0,1,1,.91,0v.75A.46.46,0,0,1,17,19.39Z"/></g></g></svg>