<!-- Generated by IcoMoon.io -->
<svg version="1.1" xmlns="http://www.w3.org/2000/svg" width="32" height="32" viewBox="0 0 32 32">
<title>redo</title>
<path d="M27.866 20.22c-0.148-0.050-0.319-0.078-0.496-0.078-0.747 0-1.375 0.507-1.559 1.196l-0.003 0.011c-1.142 4.187-4.882 7.225-9.343 7.288l-0.007 0h-0.188c-5.319-0.060-9.641-4.251-9.91-9.512l-0.001-0.024c0-0.006-0-0.013-0-0.020 0-2.744 1.067-5.238 2.81-7.091l-0.005 0.005c1.575-1.664 3.727-2.768 6.134-2.992l0.038-0.003-3.366 2.805c-0.379 0.318-0.618 0.793-0.618 1.323 0 0.952 0.772 1.724 1.724 1.724 0.437 0 0.836-0.162 1.139-0.43l-0.002 0.002 6.17-5.423c0.304-0.314 0.492-0.743 0.492-1.215s-0.188-0.901-0.492-1.216l0 0-5.235-5.98c-0.324-0.362-0.793-0.588-1.314-0.588-0.426 0-0.816 0.151-1.121 0.402l0.003-0.002c-0.359 0.284-0.587 0.72-0.587 1.21 0 0.399 0.151 0.762 0.4 1.035l-0.001-0.001 2.62 2.989c-5.666 0.416-10.307 4.362-11.756 9.63l-0.022 0.092c-0.245 0.964-0.386 2.071-0.386 3.21 0 6.193 4.153 11.415 9.826 13.034l0.096 0.023c0.845 0.248 1.815 0.391 2.818 0.391 0.193 0 0.384-0.005 0.574-0.016l-0.026 0.001c2.401-0.003 4.656-0.627 6.614-1.718l-0.069 0.035c2.995-1.769 5.208-4.591 6.148-7.945l0.023-0.094c0.018-0.098 0.028-0.21 0.028-0.324 0-0.776-0.469-1.442-1.14-1.73l-0.012-0.005z"></path>
</svg>
