<svg xmlns="http://www.w3.org/2000/svg" viewBox="0 0 40 40"><defs><style>.cls-1{fill:none;}.cls-2{fill:#6e7883;}</style></defs><title>search form</title><g id="Layer_2" data-name="Layer 2"><g id="Layer_1-2" data-name="Layer 1"><rect class="cls-1" width="40" height="40"/><path class="cls-2" d="M35.5,13.1a.46.46,0,0,1-.31-.13L29.45,7.55a.47.47,0,0,1,0-.65.46.46,0,0,1,.65,0l5.73,5.42a.45.45,0,0,1,0,.65A.44.44,0,0,1,35.5,13.1Z"/><path class="cls-2" d="M34,33.25H6.05a2,2,0,0,1-2-2V8.76a2,2,0,0,1,2-2H29.61a.45.45,0,0,1,.33.14.48.48,0,0,1,.13.32v5.27l5.42-.1a.47.47,0,0,1,.33.13.43.43,0,0,1,.14.32V31.24A2,2,0,0,1,34,33.25ZM6.05,7.67A1.09,1.09,0,0,0,5,8.76V31.24a1.09,1.09,0,0,0,1.09,1.09H34A1.09,1.09,0,0,0,35,31.24V13.3l-5.42.11a.55.55,0,0,1-.33-.13.47.47,0,0,1-.14-.33V7.67Z"/><path class="cls-2" d="M19.26,24.6A5.58,5.58,0,1,1,24.83,19,5.58,5.58,0,0,1,19.26,24.6Zm0-10.23A4.66,4.66,0,1,0,23.92,19,4.66,4.66,0,0,0,19.26,14.37Z"/><path class="cls-2" d="M26.07,26.76a.46.46,0,0,1-.33-.13l-3.38-3.49a.46.46,0,0,1,0-.65.47.47,0,0,1,.65,0L26.4,26a.45.45,0,0,1,0,.64A.44.44,0,0,1,26.07,26.76Z"/></g></g></svg>