<!-- Generated by IcoMoon.io -->
<svg version="1.1" xmlns="http://www.w3.org/2000/svg" width="32" height="32" viewBox="0 0 32 32">
<title>search</title>
<path d="M30.148 28.373l-7.168-7.456c1.767-2.096 2.841-4.828 2.841-7.81 0-6.713-5.442-12.154-12.154-12.154s-12.154 5.442-12.154 12.154c0 6.712 5.441 12.154 12.154 12.154h0c0.009 0 0.019 0 0.029 0 2.599 0 5.005-0.824 6.972-2.225l-0.037 0.025 7.223 7.512c0.29 0.302 0.697 0.489 1.147 0.489 0.878 0 1.59-0.712 1.59-1.59 0-0.427-0.169-0.815-0.443-1.101l0 0.001zM13.666 4.113c4.964 0 8.988 4.024 8.988 8.988s-4.024 8.988-8.988 8.988c-4.964 0-8.988-4.024-8.988-8.988v0c0.005-4.962 4.026-8.983 8.988-8.988h0.001z"></path>
</svg>
