<!-- Generated by IcoMoon.io -->
<svg version="1.1" xmlns="http://www.w3.org/2000/svg" width="21" height="32" viewBox="0 0 21 32">
<title>share-buttons</title>
<path d="M1.8 32c-0.001 0-0.002 0-0.003 0-0.993 0-1.797-0.805-1.797-1.797 0-0.001 0-0.003 0-0.004v0-28.398c0-0.001 0-0.002 0-0.004 0-0.993 0.805-1.797 1.797-1.797 0.001 0 0.002 0 0.003 0h13.298c0.002-0 0.004-0 0.007-0 0.148 0 0.277 0.078 0.349 0.196l0.001 0.002 4.891 5.568c0.095 0.076 0.155 0.192 0.155 0.321 0 0.002-0 0.004-0 0.007v-0 24.106c0 0.001 0 0.003 0 0.004 0 0.993-0.805 1.797-1.797 1.797-0.001 0-0.002 0-0.003 0h0zM0.832 1.801v28.398c0 0.002-0 0.004-0 0.006 0 0.532 0.432 0.964 0.964 0.964 0.002 0 0.004 0 0.006-0h16.9c0.002 0 0.004 0 0.006 0 0.532 0 0.964-0.432 0.964-0.964 0-0.002 0-0.004-0-0.006v0-23.688h-4.572c-0.002 0-0.005 0-0.007 0-0.226 0-0.408-0.183-0.408-0.408 0-0.003 0-0.005 0-0.007v0-5.263h-12.883c-0.002 0-0.004-0-0.006-0-0.532 0-0.964 0.432-0.964 0.964 0 0.002 0 0.004 0 0.005v-0zM15.516 5.68h3.657l-3.657-4.156zM11.776 25.212c0-0.001 0-0.001 0-0.002 0-0.105 0.010-0.208 0.028-0.308l-0.002 0.010-1.33-0.776c-0.551 0.946-1.56 1.572-2.715 1.574h-0c-0.001 0-0.002 0-0.003 0-1.727 0-3.128-1.4-3.128-3.128 0-0.001 0-0.002 0-0.003v0c0-0.001 0-0.002 0-0.003 0-1.727 1.4-3.128 3.128-3.128 0.001 0 0.002 0 0.003 0h-0c0.002 0 0.005 0 0.008 0 0.812 0 1.552 0.31 2.107 0.819l-0.002-0.002 1.131-0.678c0.061-0.040 0.136-0.064 0.216-0.064 0.005 0 0.011 0 0.016 0l-0.001-0c-0.094-0.201-0.148-0.436-0.148-0.683 0-0.001 0-0.001 0-0.002v0c0-0.919 0.745-1.664 1.664-1.664v0c0.918 0.002 1.662 0.746 1.664 1.664v0c-0.002 0.918-0.746 1.662-1.664 1.664h-0c-0.001 0-0.001 0-0.002 0-0.439 0-0.837-0.171-1.133-0.449l0.001 0.001c-0.026 0.104-0.091 0.19-0.179 0.242l-0.002 0.001-1.024 0.614c0.302 0.472 0.482 1.048 0.482 1.666 0 0.002 0 0.004 0 0.006v-0c0 0.001 0 0.002 0 0.003 0 0.276-0.036 0.543-0.103 0.798l0.005-0.022 1.366 0.797c0.306-0.371 0.766-0.606 1.28-0.607h0c0.918 0.002 1.662 0.746 1.664 1.664v0c0 0.919-0.745 1.664-1.664 1.664v0c-0.919-0.003-1.662-0.748-1.662-1.667 0-0 0-0 0-0.001v0zM12.608 25.212c0 0.459 0.373 0.832 0.832 0.832v0c0.46 0 0.832-0.372 0.832-0.832v0c0-0.459-0.373-0.832-0.832-0.832v0c-0.46 0-0.832 0.372-0.832 0.832v0zM5.46 22.58c0 0.002 0 0.004 0 0.006 0 1.267 1.027 2.294 2.294 2.294 0.002 0 0.004 0 0.006 0h-0c0.002 0 0.004 0 0.006 0 1.267 0 2.294-1.027 2.294-2.294 0-0.002 0-0.004 0-0.006v0c-0.003-1.269-1.031-2.297-2.299-2.3h-0c-1.27 0.001-2.299 1.030-2.301 2.299v0zM11.915 18.84c0 0.459 0.373 0.832 0.832 0.832v0c0.46 0 0.832-0.372 0.832-0.832v0c0-0.459-0.373-0.832-0.832-0.832v0c-0.001 0-0.001 0-0.002 0-0.46 0-0.832 0.372-0.832 0.832 0 0 0 0 0 0v0zM3.049 12.606c-0.002 0-0.005 0-0.007 0-0.225 0-0.408-0.183-0.408-0.408 0-0.002 0-0.005 0-0.007v0c-0-0.002-0-0.005-0-0.007 0-0.226 0.183-0.408 0.408-0.408 0.002 0 0.005 0 0.007 0h14.407c0.002-0 0.005-0 0.007-0 0.226 0 0.408 0.183 0.408 0.408 0 0.002-0 0.005-0 0.007v-0c0 0.002 0 0.005 0 0.007 0 0.226-0.183 0.408-0.408 0.408-0.003 0-0.005-0-0.007-0h0zM3.049 10.252c-0.002 0-0.005 0-0.007 0-0.225 0-0.408-0.183-0.408-0.408 0-0.002 0-0.005 0-0.007v0c-0-0.002-0-0.005-0-0.008 0-0.226 0.183-0.408 0.408-0.408 0.002 0 0.005 0 0.007 0h11.776c0.002-0 0.005-0 0.007-0 0.226 0 0.408 0.183 0.408 0.408 0 0.003-0 0.005-0 0.008v-0c0 0.002 0 0.005 0 0.007 0 0.226-0.183 0.408-0.408 0.408-0.002 0-0.005-0-0.007-0h0zM3.049 7.896c-0.002 0-0.005 0-0.007 0-0.225 0-0.408-0.183-0.408-0.408 0-0.003 0-0.005 0-0.007v0c-0-0.002-0-0.005-0-0.007 0-0.226 0.183-0.408 0.408-0.408 0.002 0 0.005 0 0.007 0h8.588c0.002-0 0.005-0 0.007-0 0.226 0 0.408 0.183 0.408 0.408 0 0.003-0 0.005-0 0.007v-0c0 0.002 0 0.005 0 0.007 0 0.226-0.183 0.408-0.408 0.408-0.002 0-0.005-0-0.007-0h0zM3.049 5.542c-0.002 0-0.005 0-0.007 0-0.225 0-0.408-0.183-0.408-0.408 0-0.003 0-0.005 0-0.008v0c-0-0.002-0-0.005-0-0.007 0-0.226 0.183-0.408 0.408-0.408 0.002 0 0.005 0 0.007 0h4.294c0.002-0 0.005-0 0.007-0 0.226 0 0.408 0.183 0.408 0.408 0 0.003-0 0.005-0 0.007v-0c0 0.002 0 0.005 0 0.008 0 0.226-0.183 0.408-0.408 0.408-0.003 0-0.005-0-0.008-0h0z"></path>
</svg>
