<svg xmlns="http://www.w3.org/2000/svg" viewBox="0 0 40 40"><defs><style>.cls-1{fill:none;}.cls-2{fill:#6e7883;}</style></defs><title>share button</title><g id="Layer_2" data-name="Layer 2"><g id="Layer_1-2" data-name="Layer 1"><rect class="cls-1" width="40" height="40"/><path class="cls-2" d="M22.92,30a1.6,1.6,0,1,1,1.59-1.6A1.6,1.6,0,0,1,22.92,30Zm0-2.28a.68.68,0,1,0,0,1.36.68.68,0,0,0,0-1.36Z"/><path class="cls-2" d="M22.28,24.19a1.6,1.6,0,0,1,0-3.19,1.6,1.6,0,1,1,0,3.19Zm0-2.27a.68.68,0,1,0,.68.68A.68.68,0,0,0,22.28,21.92Z"/><path class="cls-2" d="M17.72,29A2.94,2.94,0,1,1,20.66,26,2.94,2.94,0,0,1,17.72,29Zm0-5a2,2,0,1,0,2,2A2,2,0,0,0,17.72,24Z"/><path class="cls-2" d="M19.62,24.83a.44.44,0,0,1-.39-.22.46.46,0,0,1,.15-.63l1.27-.76a.46.46,0,0,1,.47.79l-1.27.76A.46.46,0,0,1,19.62,24.83Z"/><path class="cls-2" d="M21.77,28.38a.53.53,0,0,1-.23-.06L20,27.43a.46.46,0,0,1-.16-.63.45.45,0,0,1,.62-.16l1.53.89a.45.45,0,0,1,.16.62A.45.45,0,0,1,21.77,28.38Z"/><path class="cls-2" d="M26.59,17H13.41a.46.46,0,1,1,0-.91H26.59a.46.46,0,1,1,0,.91Z"/><path class="cls-2" d="M24.18,14.82H13.41a.46.46,0,0,1,0-.92H24.18a.46.46,0,0,1,0,.92Z"/><path class="cls-2" d="M21.27,12.66H13.41a.46.46,0,1,1,0-.91h7.86a.46.46,0,1,1,0,.91Z"/><path class="cls-2" d="M17.34,10.51H13.41a.46.46,0,0,1,0-.92h3.93a.46.46,0,0,1,0,.92Z"/><path class="cls-2" d="M29,11.39H24.44a.45.45,0,0,1-.46-.45V5.74a.46.46,0,0,1,.3-.43.44.44,0,0,1,.5.13l4.56,5.19a.47.47,0,0,1,.08.49A.46.46,0,0,1,29,11.39Zm-4.11-.91H28L24.89,7Z"/><path class="cls-2" d="M27.73,34.72H12.27A1.74,1.74,0,0,1,10.54,33V7a1.74,1.74,0,0,1,1.73-1.73H24.44a.46.46,0,1,1,0,.92H12.27a.81.81,0,0,0-.81.81V33a.81.81,0,0,0,.81.81H27.73a.81.81,0,0,0,.81-.81V10.93a.46.46,0,0,1,.92,0V33A1.74,1.74,0,0,1,27.73,34.72Z"/></g></g></svg>