<svg xmlns="http://www.w3.org/2000/svg" viewBox="0 0 40 40"><defs><style>.cls-1{fill:none;}.cls-2{fill:#6e7883;}</style></defs><title>short description</title><g id="Layer_2" data-name="Layer 2"><g id="Layer_1-2" data-name="Layer 1"><rect class="cls-1" width="40" height="40"/><path class="cls-2" d="M22.84,14.09H6.92a.46.46,0,1,1,0-.92H22.84a.46.46,0,1,1,0,.92Z"/><path class="cls-2" d="M16.11,16.67H6.92a.46.46,0,1,1,0-.91h9.19a.46.46,0,1,1,0,.91Z"/><path class="cls-2" d="M22.84,19.92H6.92a.46.46,0,0,1,0-.92H22.84a.46.46,0,0,1,0,.92Z"/><path class="cls-2" d="M16.11,22.51H6.92a.46.46,0,0,1,0-.92h9.19a.46.46,0,0,1,0,.92Z"/><path class="cls-2" d="M29.88,12.59a.47.47,0,0,1-.31-.12L24.78,7.94a.46.46,0,1,1,.63-.67L30.2,11.8a.47.47,0,0,1,0,.65A.45.45,0,0,1,29.88,12.59Z"/><path class="cls-2" d="M23.92,29.42H5.29a1.76,1.76,0,0,1-1.75-1.75V8.9A1.75,1.75,0,0,1,5.29,7.15H25a.46.46,0,0,1,.32.13.45.45,0,0,1,.14.33v4.32l4.45-.09a.46.46,0,0,1,.33.13.47.47,0,0,1,.14.33v8a.46.46,0,0,1-.91,0V12.77L25,12.85a.37.37,0,0,1-.32-.13.45.45,0,0,1-.14-.33V8.06H5.29a.84.84,0,0,0-.83.84V27.67a.83.83,0,0,0,.83.83H23.92a.46.46,0,0,1,0,.92Z"/><path class="cls-2" d="M29.8,33.28a6.66,6.66,0,1,1,6.66-6.66A6.66,6.66,0,0,1,29.8,33.28Zm0-12.39a5.74,5.74,0,1,0,5.74,5.73A5.74,5.74,0,0,0,29.8,20.89Z"/><path class="cls-2" d="M28.39,27.66h3.54a.19.19,0,0,0,.19-.14l.78-2.74a.17.17,0,0,0,0-.17.19.19,0,0,0-.16-.08H27.94l-.14-.63a.2.2,0,0,0-.2-.16H26.41a.2.2,0,0,0,0,.4h1l.7,3.18a.6.6,0,0,0-.35.54.59.59,0,0,0,.59.59h3.54a.2.2,0,0,0,.2-.2.19.19,0,0,0-.2-.19H28.39a.2.2,0,0,1,0-.4Z"/><path class="cls-2" d="M28.48,29.38a.58.58,0,0,0,.57.57.58.58,0,0,0,0-1.15A.58.58,0,0,0,28.48,29.38Z"/><path class="cls-2" d="M30.69,29.38a.58.58,0,1,0,.58-.58A.58.58,0,0,0,30.69,29.38Z"/></g></g></svg>