<svg xmlns="http://www.w3.org/2000/svg" viewBox="0 0 40 40"><defs><style>.cls-1{fill:none;}.cls-2{fill:#6e7883;}</style></defs><title>site logo</title><g id="Layer_2" data-name="Layer 2"><g id="Layer_1-2" data-name="Layer 1"><rect class="cls-1" width="40" height="40"/><path class="cls-2" d="M26.62,22h-.37a1.34,1.34,0,0,1-1.34-1.34V17.91a1.34,1.34,0,0,1,1.34-1.34h.37A1.34,1.34,0,0,1,28,17.91v2.73A1.34,1.34,0,0,1,26.62,22Zm-.37-4.49a.42.42,0,0,0-.42.42v2.73a.42.42,0,0,0,.42.42h.37a.42.42,0,0,0,.42-.42V17.91a.42.42,0,0,0-.42-.42Z"/><path class="cls-2" d="M22,22a1.71,1.71,0,0,1-1.73-1.53V18.1A1.7,1.7,0,0,1,22,16.58a1.76,1.76,0,0,1,1.41.59.47.47,0,0,1-.06.65.46.46,0,0,1-.64-.07,1,1,0,0,0-.69-.26c-.4,0-.83.33-.83.61v2.35c0,.28.43.61.81.61s.81-.33.81-.61v-.4H22.4a.46.46,0,0,1,0-.91h.85a.46.46,0,0,1,.46.46v.85A1.71,1.71,0,0,1,22,22Z"/><path class="cls-2" d="M17.71,22h-.36A1.34,1.34,0,0,1,16,20.64V17.91a1.34,1.34,0,0,1,1.34-1.34h.36a1.34,1.34,0,0,1,1.34,1.34v2.73A1.34,1.34,0,0,1,17.71,22Zm-.36-4.49a.42.42,0,0,0-.42.42v2.73a.42.42,0,0,0,.42.42h.36a.42.42,0,0,0,.42-.42V17.91a.42.42,0,0,0-.42-.42Z"/><path class="cls-2" d="M14.56,22H12.65a.47.47,0,0,1-.46-.46V17a.46.46,0,0,1,.46-.45.45.45,0,0,1,.46.45v4h1.45a.46.46,0,0,1,.46.46A.47.47,0,0,1,14.56,22Z"/><path class="cls-2" d="M28.12,25.69H12.19a.46.46,0,0,1,0-.92H28.12a.46.46,0,0,1,0,.92Z"/><path class="cls-2" d="M30.43,6.93H9.57a.46.46,0,0,1,0-.91H30.43a.46.46,0,0,1,0,.91Z"/><path class="cls-2" d="M29.22,37.46H10.78a2,2,0,0,1-2-2v-31a2,2,0,0,1,2-2H29.22a2,2,0,0,1,2,2v31A2,2,0,0,1,29.22,37.46Zm-18.44-34a1,1,0,0,0-1,1v31a1,1,0,0,0,1,1H29.22a1,1,0,0,0,1.05-1v-31a1,1,0,0,0-1.05-1Z"/><path class="cls-2" d="M11.39,5.27a.46.46,0,0,1-.33-.13.49.49,0,0,1-.13-.33.5.5,0,0,1,.13-.32.56.56,0,0,1,.15-.1.53.53,0,0,1,.35,0,.56.56,0,0,1,.15.1.5.5,0,0,1,.13.32.44.44,0,0,1-.13.33A.44.44,0,0,1,11.39,5.27Z"/><path class="cls-2" d="M13.05,5.27a.44.44,0,0,1-.33-.13.46.46,0,0,1-.13-.33.44.44,0,0,1,.13-.32.56.56,0,0,1,.15-.1.46.46,0,0,1,.5.1.48.48,0,0,1,.13.32.51.51,0,0,1-.13.33.65.65,0,0,1-.15.1Z"/><path class="cls-2" d="M14.7,5.27a.46.46,0,0,1-.32-.13.45.45,0,0,1-.14-.32.53.53,0,0,1,0-.18.31.31,0,0,1,.1-.15.45.45,0,0,1,.14-.1.5.5,0,0,1,.36,0,.45.45,0,0,1,.14.1.31.31,0,0,1,.1.15.37.37,0,0,1,0,.18.45.45,0,0,1-.14.32A.46.46,0,0,1,14.7,5.27Z"/></g></g></svg>