<svg xmlns="http://www.w3.org/2000/svg" viewBox="0 0 40 40"><defs><style>.cls-1{fill:none;}.cls-2{fill:#6e7883;}</style></defs><title>sitetitle</title><g id="Layer_2" data-name="Layer 2"><g id="Layer_1-2" data-name="Layer 1"><rect class="cls-1" width="40" height="40"/><path class="cls-2" d="M26.15,14H24.87a.47.47,0,0,1-.46-.46.46.46,0,0,1,.46-.46h1.28a.46.46,0,0,1,.46.46A.47.47,0,0,1,26.15,14Z"/><path class="cls-2" d="M26.15,15.49H24.87a.46.46,0,0,1-.46-.46.47.47,0,0,1,.46-.46h1.28a.47.47,0,0,1,.46.46A.46.46,0,0,1,26.15,15.49Z"/><path class="cls-2" d="M26.15,12.58H24.87a.46.46,0,0,1-.46-.46.47.47,0,0,1,.46-.46h1.28a.47.47,0,0,1,.46.46A.46.46,0,0,1,26.15,12.58Z"/><path class="cls-2" d="M24.73,15.35a.47.47,0,0,1-.46-.46V12.27a.46.46,0,1,1,.92,0v2.62A.47.47,0,0,1,24.73,15.35Z"/><path class="cls-2" d="M23.17,15.55H21.81a.46.46,0,0,1-.45-.46v-3a.46.46,0,1,1,.91,0v2.56h.9a.46.46,0,1,1,0,.92Z"/><path class="cls-2" d="M19.32,15.62a.46.46,0,0,1-.46-.46V12.6a.46.46,0,0,1,.92,0v2.56A.46.46,0,0,1,19.32,15.62Z"/><path class="cls-2" d="M20.15,12.52H18.34a.46.46,0,1,1,0-.91h1.81a.46.46,0,1,1,0,.91Z"/><path class="cls-2" d="M16.75,15.62a.46.46,0,0,1-.46-.46V12a.46.46,0,0,1,.92,0v3.17A.46.46,0,0,1,16.75,15.62Z"/><path class="cls-2" d="M14.33,15.62a.45.45,0,0,1-.45-.46V12.6a.46.46,0,1,1,.91,0v2.56A.45.45,0,0,1,14.33,15.62Z"/><path class="cls-2" d="M15.16,12.52H13.35a.46.46,0,1,1,0-.91h1.81a.46.46,0,1,1,0,.91Z"/><path class="cls-2" d="M14.86,5.27l-.18,0a.71.71,0,0,1-.14-.1.45.45,0,0,1-.14-.32.39.39,0,0,1,0-.18.36.36,0,0,1,.1-.15.46.46,0,0,1,.5-.1.45.45,0,0,1,.14.1.36.36,0,0,1,.1.15.39.39,0,0,1,0,.18.46.46,0,0,1-.46.45Z"/><path class="cls-2" d="M30.43,6.93H9.57a.46.46,0,0,1,0-.91H30.43a.46.46,0,0,1,0,.91Z"/><path class="cls-2" d="M26.5,31.72h-13a.47.47,0,0,1-.46-.46.46.46,0,0,1,.46-.46h13a.46.46,0,0,1,.46.46A.47.47,0,0,1,26.5,31.72Z"/><path class="cls-2" d="M26.5,28.09h-13a.46.46,0,0,1,0-.92h13a.46.46,0,1,1,0,.92Z"/><path class="cls-2" d="M26.5,24.31h-13a.46.46,0,1,1,0-.91h13a.46.46,0,1,1,0,.91Z"/><path class="cls-2" d="M26.5,20.69h-13a.47.47,0,0,1-.46-.46.46.46,0,0,1,.46-.46h13a.46.46,0,0,1,.46.46A.47.47,0,0,1,26.5,20.69Z"/><path class="cls-2" d="M29.22,37.46H10.78a2,2,0,0,1-2-2v-31a2,2,0,0,1,2-2H29.22a2,2,0,0,1,2,2v31A2,2,0,0,1,29.22,37.46Zm-18.44-34a1,1,0,0,0-1,1v31a1,1,0,0,0,1,1H29.22a1,1,0,0,0,1.05-1v-31a1,1,0,0,0-1.05-1Z"/><path class="cls-2" d="M11.61,5.25a.47.47,0,0,1-.17,0,.4.4,0,0,1-.15-.1.43.43,0,0,1-.14-.32.58.58,0,0,1,0-.18.65.65,0,0,1,.1-.15.48.48,0,0,1,.5-.1l.15.1a.51.51,0,0,1,.13.33.46.46,0,0,1-.13.32.65.65,0,0,1-.15.1A.58.58,0,0,1,11.61,5.25Z"/><path class="cls-2" d="M13.27,5.25A.43.43,0,0,1,13,5.11a.45.45,0,0,1-.14-.32.39.39,0,0,1,0-.18.44.44,0,0,1,.1-.15.47.47,0,0,1,.64,0,.47.47,0,0,1,.14.33.33.33,0,0,1,0,.17.31.31,0,0,1-.1.15A.43.43,0,0,1,13.27,5.25Z"/><path class="cls-2" d="M14.93,5.25a.58.58,0,0,1-.18,0,.65.65,0,0,1-.15-.1.48.48,0,0,1-.13-.32.57.57,0,0,1,0-.18.78.78,0,0,1,.1-.15.48.48,0,0,1,.5-.1.56.56,0,0,1,.15.1.49.49,0,0,1,.1.15.58.58,0,0,1,0,.18.45.45,0,0,1-.14.32A.43.43,0,0,1,14.93,5.25Z"/></g></g></svg>