<svg xmlns="http://www.w3.org/2000/svg" viewBox="0 0 40 40"><defs><style>.cls-1{fill:none;}.cls-2{fill:#6e7883;}</style></defs><title>Slider_1</title><g id="Layer_2" data-name="Layer 2"><g id="Layer_1-2" data-name="Layer 1"><rect class="cls-1" width="40" height="40"/><path class="cls-2" d="M30.11,22.88h0c-.54,0-1.26-.84-1.78-1.52a.31.31,0,0,1-.05-.1v1.11a.46.46,0,0,1-.46.45.45.45,0,0,1-.45-.45V18.24a.45.45,0,0,1,.34-.44A3.13,3.13,0,0,1,30,18a1.39,1.39,0,0,1,.56,1.1,2.34,2.34,0,0,1-1.18,2.14,3.42,3.42,0,0,0,.78.73.44.44,0,0,1,.42.47A.47.47,0,0,1,30.11,22.88Zm-1.86-4.27v2.3a.45.45,0,0,1,.28-.26,1.56,1.56,0,0,0,1.12-1.49.48.48,0,0,0-.19-.41A1.85,1.85,0,0,0,28.25,18.61Z"/><path class="cls-2" d="M25.35,20.4H23a.46.46,0,0,1,0-.91h2.31a.46.46,0,0,1,0,.91Z"/><path class="cls-2" d="M25.67,22.65A2.48,2.48,0,0,1,23.78,22a1.7,1.7,0,0,1-.46-1.24V18.2a.45.45,0,0,1,.45-.45h2a.46.46,0,1,1,0,.91H24.23v2.11a.78.78,0,0,0,.22.6,1.71,1.71,0,0,0,1.22.37.46.46,0,0,1,0,.91Z"/><path class="cls-2" d="M19.48,22.65h-.15a.46.46,0,0,1-.41-.45v-4a.46.46,0,0,1,.41-.45,2.82,2.82,0,0,1,2,.63A2.35,2.35,0,0,1,22,20.19,2.32,2.32,0,0,1,21.33,22,2.77,2.77,0,0,1,19.48,22.65Zm.35-4v3a1.61,1.61,0,0,0,.88-.39,1.42,1.42,0,0,0,.39-1.12,1.52,1.52,0,0,0-.43-1.16A1.68,1.68,0,0,0,19.83,18.68Z"/><path class="cls-2" d="M17.25,22.65a.46.46,0,0,1-.46-.45v-4a.46.46,0,0,1,.46-.45.45.45,0,0,1,.45.45v4A.45.45,0,0,1,17.25,22.65Z"/><path class="cls-2" d="M15.3,22.65H14a.45.45,0,0,1-.46-.45v-4a.46.46,0,0,1,.91,0v3.54h.86a.46.46,0,0,1,0,.91Z"/><path class="cls-2" d="M10.55,22.65a.45.45,0,0,1-.08-.9,1.9,1.9,0,0,0,.92-.41c.24-.41.13-.55-.5-1a1.73,1.73,0,0,1-.9-1.08c-.18-1.23,1.6-1.63,1.81-1.67a.45.45,0,0,1,.18.89c-.47.1-1.13.4-1.09.65s.3.32.51.45c.52.35,1.48,1,.73,2.25a2.71,2.71,0,0,1-1.49.78Z"/><path class="cls-2" d="M20.07,34.92A14.92,14.92,0,1,1,35,20,14.93,14.93,0,0,1,20.07,34.92ZM20.07,6a14,14,0,1,0,14,14A14,14,0,0,0,20.07,6Z"/><path class="cls-2" d="M36.46,21.64a.44.44,0,0,1-.28-.1.46.46,0,0,1-.08-.64l.52-.66-.51-.65a.46.46,0,1,1,.72-.56l.72.93a.7.7,0,0,1,.06.09.65.65,0,0,1,0,.19h0a.71.71,0,0,1,0,.2l-.06.09-.73.93A.44.44,0,0,1,36.46,21.64Z"/><path class="cls-2" d="M29.84,31.11a.46.46,0,0,1,0-.91,10.07,10.07,0,0,0,.37-20,.45.45,0,1,1,.09-.9,11,11,0,0,1-.4,21.85Z"/><path class="cls-2" d="M3.56,21.57a.44.44,0,0,1-.36-.18l-.73-.93-.06-.1a.43.43,0,0,1,0-.19.41.41,0,0,1,0-.19l.06-.1L3.19,19a.45.45,0,0,1,.64-.08.46.46,0,0,1,.08.64l-.51.65.52.66a.46.46,0,0,1-.08.64A.48.48,0,0,1,3.56,21.57Z"/><path class="cls-2" d="M10.23,31h0A11,11,0,0,1,9.87,9.16a.46.46,0,0,1,.5.41.47.47,0,0,1-.41.5,10.07,10.07,0,0,0,.3,20.06.46.46,0,0,1,.42.49A.44.44,0,0,1,10.23,31Z"/></g></g></svg>