<svg xmlns="http://www.w3.org/2000/svg" viewBox="0 0 40 40"><defs><style>.cls-1{fill:none;}.cls-2{fill:#6e7883;}</style></defs><title>Slides_1</title><g id="Layer_2" data-name="Layer 2"><g id="Layer_1-2" data-name="Layer 1"><rect class="cls-1" width="40" height="40"/><path class="cls-2" d="M20,20.25A5.22,5.22,0,1,1,25.22,15,5.22,5.22,0,0,1,20,20.25Zm0-9.52A4.31,4.31,0,1,0,24.3,15,4.31,4.31,0,0,0,20,10.73Z"/><circle class="cls-2" cx="19.99" cy="13.45" r="1.49"/><path class="cls-2" d="M18.75,15.52h2.49c1,0,1.54,1.12,1.54,3.81l-2.87.46-2.72-.46C17.19,16.64,17.73,15.52,18.75,15.52Z"/><path class="cls-2" d="M25.26,26.17H14.74a.46.46,0,0,1,0-.92H25.26a.46.46,0,0,1,0,.92Z"/><path class="cls-2" d="M29.24,24.07H10.76a.46.46,0,0,1,0-.92H29.24a.46.46,0,0,1,0,.92Z"/><path class="cls-2" d="M33.61,30.91H6.42a2,2,0,0,1-2-2V7a2,2,0,0,1,2-2H33.61a2,2,0,0,1,2,2v21.9A2,2,0,0,1,33.61,30.91ZM6.42,6A1.06,1.06,0,0,0,5.37,7v21.9a1,1,0,0,0,1,1H33.61a1.06,1.06,0,0,0,1.06-1V7A1.07,1.07,0,0,0,33.61,6Z"/><path class="cls-2" d="M38.34,26.71H35.11a.46.46,0,0,1,0-.92h3.23a.64.64,0,0,0,.69-.54V10.73a.64.64,0,0,0-.69-.54H35.11a.46.46,0,1,1,0-.92h3.23a1.54,1.54,0,0,1,1.6,1.46V25.25A1.54,1.54,0,0,1,38.34,26.71Z"/><path class="cls-2" d="M4.89,26.71H1.66a1.54,1.54,0,0,1-1.6-1.46V10.73a1.54,1.54,0,0,1,1.6-1.46H4.89a.46.46,0,0,1,0,.92H1.66a.64.64,0,0,0-.69.54V25.25a.64.64,0,0,0,.69.54H4.89a.46.46,0,1,1,0,.92Z"/><circle class="cls-2" cx="17.03" cy="33.47" r="0.71"/><circle class="cls-2" cx="20" cy="33.47" r="1.01"/><circle class="cls-2" cx="22.97" cy="33.47" r="0.71"/></g></g></svg>