<svg xmlns="http://www.w3.org/2000/svg" viewBox="0 0 40 40"><defs><style>.cls-1{fill:none;}.cls-2{fill:#6e7883;}</style></defs><title>spider calendar_1</title><g id="Layer_2" data-name="Layer 2"><g id="Layer_1-2" data-name="Layer 1"><rect class="cls-1" width="40" height="40"/><g id="_Group_" data-name="&lt;Group&gt;"><path class="cls-2" d="M11,12.92a1.56,1.56,0,0,1-1.56-1.57V7A1.58,1.58,0,0,1,11,5.4,1.56,1.56,0,0,1,12.54,7v4.39A1.59,1.59,0,0,1,11,12.92Zm0-6.6a.66.66,0,0,0-.65.64v4.39A.65.65,0,0,0,11,12a.66.66,0,0,0,.64-.65V7A.64.64,0,0,0,11,6.32Z"/></g><g id="_Group_2" data-name="&lt;Group&gt;"><path class="cls-2" d="M20,12.92a1.59,1.59,0,0,1-1.56-1.55V7a1.56,1.56,0,1,1,3.12,0v4.39A1.58,1.58,0,0,1,20,12.92Zm0-6.6a.66.66,0,0,0-.65.64v4.39a.65.65,0,0,0,1.3,0V7A.67.67,0,0,0,20,6.32Z"/></g><g id="_Group_3" data-name="&lt;Group&gt;"><path class="cls-2" d="M28.82,12.92a1.55,1.55,0,0,1-1.56-1.57V7a1.57,1.57,0,0,1,3.13,0v4.39A1.59,1.59,0,0,1,28.82,12.92Zm0-6.6a.66.66,0,0,0-.64.64v4.39a.63.63,0,0,0,.64.65.66.66,0,0,0,.65-.65V7A.66.66,0,0,0,28.82,6.32Z"/></g><g id="_Group_4" data-name="&lt;Group&gt;"><path class="cls-2" d="M34.87,24.92H29.45a.6.6,0,0,1-.59-.59V18.74a.6.6,0,0,1,.59-.59h5.42a.6.6,0,0,1,.59.59v5.59a.46.46,0,0,1-.05.2A.59.59,0,0,1,34.87,24.92Zm.13-.59h0ZM29.77,24h4.77V19.07H29.77Z"/></g><g id="_Group_5" data-name="&lt;Group&gt;"><path class="cls-2" d="M34.87,33.4H29.45a.6.6,0,0,1-.59-.59V27.22a.6.6,0,0,1,.59-.59h5.42a.6.6,0,0,1,.59.59v5.59a.59.59,0,0,1,0,.14A.58.58,0,0,1,34.87,33.4Zm.13-.59h0Zm-5.23-.33h4.77V27.55H29.77Z"/></g><g id="_Group_6" data-name="&lt;Group&gt;"><path class="cls-2" d="M34.94,16.54H5.09a.49.49,0,0,1-.33-.13A.42.42,0,0,1,4.57,16V9.34a.87.87,0,0,1,.88-.88h2.7a.65.65,0,0,1,.65.66v2.26a2.16,2.16,0,0,0,1.84,2.18,2.08,2.08,0,0,0,1.69-.5,2.06,2.06,0,0,0,.74-1.56V9.15a.65.65,0,0,1,.66-.66h3.39a.65.65,0,0,1,.66.66v2.26a2.17,2.17,0,0,0,1.84,2.18,2.14,2.14,0,0,0,2.43-2.07V9.17a.65.65,0,0,1,.66-.65h3.4a.65.65,0,0,1,.65.65v2.35a2.11,2.11,0,0,0,2,2.12,1.86,1.86,0,0,0,1.45-.57,2.07,2.07,0,0,0,.63-1.52V9.2a.64.64,0,0,1,.66-.65h2.92a.84.84,0,0,1,.71.15.85.85,0,0,1,.34.7V16A.56.56,0,0,1,34.94,16.54ZM5.49,15.63H34.54V9.4h0s0,.07-.08.07H31.75v2.09a3,3,0,1,1-5.9,0V9.43H23v2.09a3,3,0,0,1-1.06,2.26,3,3,0,0,1-2.41.72,3.08,3.08,0,0,1-2.63-3.09v-2H14v2.1a3.07,3.07,0,0,1-3.47,3,3.08,3.08,0,0,1-2.63-3.09v-2H5.45Z"/></g><g id="_Group_7" data-name="&lt;Group&gt;"><path class="cls-2" d="M18.66,24.92H13.24a.6.6,0,0,1-.59-.59V18.74a.6.6,0,0,1,.59-.59h5.42a.6.6,0,0,1,.59.59v5.59a.46.46,0,0,1-.05.2A.59.59,0,0,1,18.66,24.92Zm.13-.59h0ZM13.56,24h4.77V19.07H13.56Z"/></g><g id="_Group_8" data-name="&lt;Group&gt;"><path class="cls-2" d="M18.66,33.4H13.24a.6.6,0,0,1-.59-.59V27.22a.6.6,0,0,1,.59-.59h5.42a.6.6,0,0,1,.59.59v5.59a.59.59,0,0,1,0,.14A.58.58,0,0,1,18.66,33.4Zm.13-.59h0Zm-5.23-.33h4.77V27.55H13.56Z"/></g><g id="_Group_9" data-name="&lt;Group&gt;"><path class="cls-2" d="M26.48,33.4H21.62a.9.9,0,0,1-.89-.88v-5a.9.9,0,0,1,.89-.88h4.83a.9.9,0,0,1,.89.88v5A.83.83,0,0,1,26.48,33.4Zm0-.63v0Zm-4.21-.87h3.56V28.21H22.27Z"/></g><g id="_Group_10" data-name="&lt;Group&gt;"><path class="cls-2" d="M26.78,24.92H21.36a.6.6,0,0,1-.59-.59V18.74a.6.6,0,0,1,.59-.59h5.42a.6.6,0,0,1,.59.59v5.59a.35.35,0,0,1-.05.2A.59.59,0,0,1,26.78,24.92Zm.13-.59h0ZM21.69,24h4.77V19.07H21.69Z"/></g><g id="_Group_11" data-name="&lt;Group&gt;"><path class="cls-2" d="M10.52,33.4H5.13a.6.6,0,0,1-.59-.59V27.23a.59.59,0,0,1,.59-.56h5.43a.6.6,0,0,1,.59.59v5.59a.46.46,0,0,1-.05.2A.64.64,0,0,1,10.52,33.4Zm.17-.55h0Zm-5.23-.36h4.77V27.58H5.46Z"/></g><g id="_Group_12" data-name="&lt;Group&gt;"><path class="cls-2" d="M10.52,24.92H5.13a.6.6,0,0,1-.59-.59V18.74a.6.6,0,0,1,.59-.59h5.43a.6.6,0,0,1,.59.59v5.59a.46.46,0,0,1-.05.2A.66.66,0,0,1,10.52,24.92Zm.17-.59h0ZM5.46,24h4.77V19.07H5.46Z"/></g></g></g></svg>