<?xml version="1.0" encoding="utf-8"?>
<!-- Generator: Adobe Illustrator 23.0.1, SVG Export Plug-In . SVG Version: 6.00 Build 0)  -->
<svg version="1.1" id="Layer_1" xmlns="http://www.w3.org/2000/svg" xmlns:xlink="http://www.w3.org/1999/xlink" x="0px" y="0px"
	 viewBox="0 0 40 40" style="enable-background:new 0 0 40 40;" xml:space="preserve">
<style type="text/css">
	.st0{fill:#FFFFFF;}
	
		.st1{fill-rule:evenodd;clip-rule:evenodd;fill:none;stroke:#6E7883;stroke-width:0.9156;stroke-linecap:round;stroke-linejoin:round;stroke-miterlimit:10;}
	
		.st2{fill-rule:evenodd;clip-rule:evenodd;fill:none;stroke:#6E7883;stroke-width:0.916;stroke-linecap:round;stroke-linejoin:round;stroke-miterlimit:10;}
	.st3{fill-rule:evenodd;clip-rule:evenodd;fill:#6F7883;}
	.st4{fill:none;stroke:#6E7883;stroke-width:0.9156;stroke-linecap:round;stroke-linejoin:round;stroke-miterlimit:10;}
	.st5{fill:none;stroke:#6E7883;stroke-width:0.763;stroke-linecap:round;stroke-linejoin:round;stroke-miterlimit:10;}
	.st6{fill:#6E7883;}
	.st7{fill:#00A0D2;}
	.st8{fill:#E64D3D;}
	.st9{fill:#C03A2C;}
	.st10{fill:none;stroke:#6E7883;stroke-width:6;stroke-linecap:round;stroke-linejoin:round;stroke-miterlimit:10;}
	.st11{fill:none;stroke:#000000;stroke-linejoin:round;}
	.st12{fill:none;}
	.st13{fill:#6E7883;stroke:#FFFFFF;stroke-width:0.1526;stroke-miterlimit:10;}
	
		.st14{fill-rule:evenodd;clip-rule:evenodd;fill:none;stroke:#6E7883;stroke-width:0.8135;stroke-linecap:round;stroke-linejoin:round;stroke-miterlimit:10;}
	.st15{fill:none;stroke:#6E7883;stroke-width:0.8135;stroke-linecap:round;stroke-linejoin:round;stroke-miterlimit:10;}
	.st16{opacity:0.5;}
	.st17{opacity:0.3;}
	.st18{opacity:0.1;}
	.st19{opacity:0.03;}
	
		.st20{fill-rule:evenodd;clip-rule:evenodd;fill:none;stroke:#6E7883;stroke-width:0.763;stroke-linecap:round;stroke-linejoin:round;stroke-miterlimit:10;}
	
		.st21{fill-rule:evenodd;clip-rule:evenodd;fill:none;stroke:#6E7882;stroke-width:0.9156;stroke-linecap:round;stroke-linejoin:round;stroke-miterlimit:10;}
	
		.st22{fill-rule:evenodd;clip-rule:evenodd;fill:none;stroke:#6E7882;stroke-width:0.763;stroke-linecap:round;stroke-linejoin:round;stroke-miterlimit:10;}
	.st23{fill:none;stroke:#6E7882;stroke-width:0.6104;stroke-linecap:round;stroke-linejoin:round;stroke-miterlimit:10;}
	.st24{fill:none;stroke:#6E7882;stroke-width:0.9156;stroke-linecap:round;stroke-linejoin:round;stroke-miterlimit:10;}
	.st25{fill:none;stroke:#6E7882;stroke-width:0.4578;stroke-linecap:round;stroke-linejoin:round;stroke-miterlimit:10;}
	.st26{fill:#6E7882;}
	.st27{fill:#FFFFFF;stroke:#6E7883;stroke-width:0.9156;stroke-linecap:round;stroke-linejoin:round;stroke-miterlimit:10;}
	
		.st28{fill-rule:evenodd;clip-rule:evenodd;fill:none;stroke:#6E7883;stroke-width:1.0732;stroke-linecap:round;stroke-linejoin:round;stroke-miterlimit:10;}
	
		.st29{fill-rule:evenodd;clip-rule:evenodd;fill:none;stroke:#6E7883;stroke-width:0.9755;stroke-linecap:round;stroke-linejoin:round;stroke-miterlimit:10;}
	
		.st30{fill-rule:evenodd;clip-rule:evenodd;fill:none;stroke:#6E7883;stroke-width:0.8736;stroke-linecap:round;stroke-linejoin:round;stroke-miterlimit:10;}
	
		.st31{fill-rule:evenodd;clip-rule:evenodd;fill:none;stroke:#6E7883;stroke-width:1.2449;stroke-linecap:round;stroke-linejoin:round;stroke-miterlimit:10;}
	
		.st32{fill-rule:evenodd;clip-rule:evenodd;fill:none;stroke:#6E7883;stroke-width:1.108;stroke-linecap:round;stroke-linejoin:round;stroke-miterlimit:10;}
	
		.st33{fill-rule:evenodd;clip-rule:evenodd;fill:#FFFFFF;stroke:#6E7883;stroke-width:0.9554;stroke-linecap:round;stroke-linejoin:round;stroke-miterlimit:10;}
	
		.st34{fill-rule:evenodd;clip-rule:evenodd;fill:#FFFFFF;stroke:#6E7883;stroke-width:1.0013;stroke-linecap:round;stroke-linejoin:round;stroke-miterlimit:10;}
	
		.st35{fill-rule:evenodd;clip-rule:evenodd;fill:none;stroke:#6E7883;stroke-width:1.0013;stroke-linecap:round;stroke-linejoin:round;stroke-miterlimit:10;}
	.st36{fill:none;stroke:#6E7883;stroke-width:0.9376;stroke-linecap:round;stroke-linejoin:round;stroke-miterlimit:10;}
	.st37{fill:none;stroke:#6E7883;stroke-width:0.8365;stroke-linecap:round;stroke-linejoin:round;stroke-miterlimit:10;}
	.st38{fill:#092E49;}
	.st39{fill:#B2B2B2;}
	.st40{fill:url(#XMLID_227_);}
	.st41{fill:url(#XMLID_228_);}
	.st42{fill:url(#XMLID_229_);}
	.st43{fill:url(#XMLID_230_);}
	.st44{fill:url(#XMLID_231_);}
	.st45{fill:url(#XMLID_232_);}
	.st46{fill:url(#XMLID_233_);}
	.st47{fill:url(#XMLID_234_);}
	.st48{fill:url(#XMLID_235_);}
	.st49{fill:#923A44;}
	.st50{fill:#853039;}
	.st51{fill:#D5BD58;}
	.st52{fill:#C8B14D;}
	.st53{fill:#103856;}
	.st54{fill:#1C425F;}
	.st55{opacity:0.29;}
	.st56{fill-rule:evenodd;clip-rule:evenodd;fill:#6E7883;}
	.st57{fill:#FFFFFF;stroke:#6E7883;stroke-width:2.3838;stroke-linecap:round;stroke-linejoin:round;stroke-miterlimit:10;}
	
		.st58{fill-rule:evenodd;clip-rule:evenodd;fill:#FFFFFF;stroke:#6E7883;stroke-width:2.3838;stroke-linecap:round;stroke-linejoin:round;stroke-miterlimit:10;}
	.st59{fill:none;stroke:#6E7883;stroke-width:0.9417;stroke-linecap:round;stroke-linejoin:round;stroke-miterlimit:10;}
	.st60{fill:none;stroke:#6E7883;stroke-width:1.0639;stroke-linecap:round;stroke-linejoin:round;stroke-miterlimit:10;}
	.st61{fill:none;stroke:#6E7883;stroke-width:0.7591;stroke-linecap:round;stroke-linejoin:round;stroke-miterlimit:10;}
	
		.st62{fill-rule:evenodd;clip-rule:evenodd;fill:none;stroke:#6E7883;stroke-width:1.085;stroke-linecap:round;stroke-linejoin:round;stroke-miterlimit:10;}
	
		.st63{fill-rule:evenodd;clip-rule:evenodd;fill:none;stroke:#6E7883;stroke-width:0.69;stroke-linecap:round;stroke-linejoin:round;stroke-miterlimit:10;}
	.st64{fill:#C8D3D6;}
	.st65{fill:#1D8BBC;}
	.st66{fill:none;stroke:#36B2E2;stroke-width:8;stroke-miterlimit:10;}
	.st67{fill:#36B2E2;}
	
		.st68{fill-rule:evenodd;clip-rule:evenodd;fill:none;stroke:#36B2E2;stroke-width:14.9859;stroke-linecap:round;stroke-linejoin:round;stroke-miterlimit:10;}
	.st69{fill:none;stroke:#6E7883;stroke-width:2;stroke-linecap:round;stroke-linejoin:round;stroke-miterlimit:10;}
	
		.st70{fill-rule:evenodd;clip-rule:evenodd;fill:none;stroke:#6E7883;stroke-width:0.9077;stroke-linecap:round;stroke-linejoin:round;stroke-miterlimit:10;}
	
		.st71{fill-rule:evenodd;clip-rule:evenodd;fill:none;stroke:#6E7883;stroke-width:0.8251;stroke-linecap:round;stroke-linejoin:round;stroke-miterlimit:10;}
	
		.st72{fill-rule:evenodd;clip-rule:evenodd;fill:none;stroke:#6E7883;stroke-width:0.7389;stroke-linecap:round;stroke-linejoin:round;stroke-miterlimit:10;}
	.st73{fill:none;stroke:#6E7883;stroke-width:1.7;stroke-linecap:round;stroke-linejoin:round;stroke-miterlimit:10;}
	.st74{fill:none;stroke:#6E7883;stroke-width:1.0825;stroke-linecap:round;stroke-linejoin:round;stroke-miterlimit:10;}
	.st75{clip-path:url(#SVGID_2_);}
	.st76{fill:none;stroke:#6E7883;stroke-width:0.9;stroke-linecap:round;stroke-miterlimit:10;}
	.st77{fill:none;stroke:#FF0000;stroke-width:0.1;stroke-miterlimit:10;}
	.st78{fill:none;stroke:#6E7883;stroke-width:0.9;stroke-linecap:round;stroke-linejoin:round;stroke-miterlimit:10;}
	.st79{clip-path:url(#SVGID_4_);}
	.st80{clip-path:url(#SVGID_6_);}
</style>
<g>
	<defs>
		<rect id="SVGID_5_" width="40" height="40"/>
	</defs>
	<clipPath id="SVGID_2_">
		<use xlink:href="#SVGID_5_"  style="overflow:visible;"/>
	</clipPath>
	<g class="st75">
		<path class="st3" d="M12.93,9.94h12.25c0.26,0,0.47-0.21,0.47-0.47S25.44,9,25.18,9H12.93c-0.26,0-0.47,0.21-0.47,0.47
			S12.67,9.94,12.93,9.94z"/>
		<path class="st3" d="M12.93,7.59h18.14c0.26,0,0.47-0.21,0.47-0.47s-0.21-0.47-0.47-0.47H12.93c-0.26,0-0.47,0.21-0.47,0.47
			S12.67,7.59,12.93,7.59z"/>
		<path class="st3" d="M12.93,15.97h12.25c0.26,0,0.47-0.21,0.47-0.47s-0.21-0.47-0.47-0.47H12.93c-0.26,0-0.47,0.21-0.47,0.47
			S12.67,15.97,12.93,15.97z"/>
		<path class="st3" d="M31.07,12.68H12.93c-0.26,0-0.47,0.21-0.47,0.47s0.21,0.47,0.47,0.47h18.14c0.26,0,0.47-0.21,0.47-0.47
			S31.33,12.68,31.07,12.68z"/>
		<path class="st3" d="M12.93,21.76h12.25c0.26,0,0.47-0.21,0.47-0.47s-0.21-0.47-0.47-0.47H12.93c-0.26,0-0.47,0.21-0.47,0.47
			S12.67,21.76,12.93,21.76z"/>
		<path class="st3" d="M31.07,18.47H12.93c-0.26,0-0.47,0.21-0.47,0.47s0.21,0.47,0.47,0.47h18.14c0.26,0,0.47-0.21,0.47-0.47
			S31.33,18.47,31.07,18.47z"/>
		<path class="st3" d="M12.93,27.56h12.25c0.26,0,0.47-0.21,0.47-0.47c0-0.26-0.21-0.47-0.47-0.47H12.93
			c-0.26,0-0.47,0.21-0.47,0.47C12.46,27.35,12.67,27.56,12.93,27.56z"/>
		<path class="st3" d="M31.07,24.27H12.93c-0.26,0-0.47,0.21-0.47,0.47s0.21,0.47,0.47,0.47h18.14c0.26,0,0.47-0.21,0.47-0.47
			S31.33,24.27,31.07,24.27z"/>
		<path class="st3" d="M25.18,32.41H12.93c-0.26,0-0.47,0.21-0.47,0.47s0.21,0.47,0.47,0.47h12.25c0.26,0,0.47-0.21,0.47-0.47
			S25.44,32.41,25.18,32.41z"/>
		<path class="st3" d="M31.07,30.06H12.93c-0.26,0-0.47,0.21-0.47,0.47S12.67,31,12.93,31h18.14c0.26,0,0.47-0.21,0.47-0.47
			S31.33,30.06,31.07,30.06z"/>
		<circle class="st3" cx="9.46" cy="8.53" r="1"/>
		<circle class="st3" cx="9.46" cy="14.32" r="1"/>
		<path class="st3" d="M9.46,19.12c-0.55,0-1,0.45-1,1s0.45,1,1,1s1-0.45,1-1S10.01,19.12,9.46,19.12z"/>
		<path class="st3" d="M9.46,24.91c-0.55,0-1,0.45-1,1c0,0.55,0.45,1,1,1s1-0.45,1-1C10.46,25.36,10.01,24.91,9.46,24.91z"/>
		<path class="st3" d="M9.46,30.71c-0.55,0-1,0.45-1,1c0,0.55,0.45,1,1,1s1-0.45,1-1C10.46,31.15,10.01,30.71,9.46,30.71z"/>
	</g>
</g>
</svg>
