<svg xmlns="http://www.w3.org/2000/svg" viewBox="0 0 40 40"><defs><style>.cls-1{fill:none;}.cls-2{fill:#6e7883;}</style></defs><title>Team_1</title><g id="Layer_2" data-name="Layer 2"><g id="Layer_1-2" data-name="Layer 1"><rect class="cls-1" width="40" height="40"/><g id="_Group_" data-name="&lt;Group&gt;"><path class="cls-2" d="M15.76,17.88c-.06,0,.46.2.85.21s.76-.19.8-.14a1.55,1.55,0,0,1,.39,1.18.39.39,0,0,0,.09.26c.15.22.31.42.46.64s.18.15.26-.07c.05.37.31.44.6.48a.81.81,0,0,1,.52.26,1.52,1.52,0,0,0,.42.27c-.4.39-.2.74,0,1.16a1.34,1.34,0,0,1,.11,1.16,4.7,4.7,0,0,0-.11.85,4.37,4.37,0,0,1-4.73-3.06A5.34,5.34,0,0,1,15.76,17.88Z"/></g><g id="_Group_2" data-name="&lt;Group&gt;"><path class="cls-2" d="M21.87,21.35c-.16-.09-.12-.3-.23-.38s-.47-.73-.74-1-.93-.38-.84-.62.42-.31.61-.5-1-.45-.58-.4c.11-.16,0-.27-.06-.38s.06-.25,0-.54a1.92,1.92,0,0,0,1.07-.36c.11-.17.38-.39.45-.06s.42-.56.68-.32c.11.11.24.13.31,0s0,.67.13.65.35,0,.52,0a.19.19,0,0,1,.18.11A4.37,4.37,0,0,1,24,19.39a4.52,4.52,0,0,1-.94,3.15,2.77,2.77,0,0,1-1.84,1.27,4.57,4.57,0,0,1,.65-1.27C22.18,22.17,21.87,21.35,21.87,21.35Z"/></g><g id="_Group_3" data-name="&lt;Group&gt;"><path class="cls-2" d="M16.34,17a4.38,4.38,0,0,1,5.08-1.14l0,0a.73.73,0,0,0-.88.3s-.09.11-.15.11c-.29,0-.38.22-.66.22a.65.65,0,0,0-.47.22.29.29,0,0,1-.35.2c-.24,0-.59,0-.83,0A4.69,4.69,0,0,0,17,16.85a5,5,0,0,0-.65.13"/></g><g id="_Group_4" data-name="&lt;Group&gt;"><path class="cls-2" d="M25.27,18.17h0a.45.45,0,0,1-.43-.33A9.43,9.43,0,0,0,21,12.79a10.2,10.2,0,0,0-5.33-.95.45.45,0,0,1-.36-.12.43.43,0,0,1-.14-.36l.17-4a.47.47,0,0,1,.32-.42,6,6,0,0,1,3.18.24,8.65,8.65,0,0,1,2,.82,2.68,2.68,0,0,1,1.55-1.55,2.36,2.36,0,0,1,3.23,1.29,2.56,2.56,0,0,1-.19,2.47,3.4,3.4,0,0,1-1.32,1,9.3,9.3,0,0,1,1.2,2.36,7.19,7.19,0,0,1,.4,4.29A.46.46,0,0,1,25.27,18.17Zm-8.63-7.29A10,10,0,0,1,21.49,12a9.31,9.31,0,0,1,3.38,3.62,9.12,9.12,0,0,0-.43-1.74A7.39,7.39,0,0,0,23,11.31a.49.49,0,0,1-.11-.45.48.48,0,0,1,.34-.32,2.8,2.8,0,0,0,1.44-.88,1.66,1.66,0,0,0,.09-1.56,1.46,1.46,0,0,0-2.06-.8,1.88,1.88,0,0,0-1.15,1.48.44.44,0,0,1-.27.37.44.44,0,0,1-.47-.06,7,7,0,0,0-2.2-1,6.47,6.47,0,0,0-2.35-.29l-.14,3.12Z"/></g><g id="_Group_5" data-name="&lt;Group&gt;"><path class="cls-2" d="M23.46,25.45a.46.46,0,0,1-.25-.84,9.48,9.48,0,0,0,3.66-5.17,10.18,10.18,0,0,0-.71-5.36.42.42,0,0,1,0-.38.48.48,0,0,1,.29-.25l3.85-1.07a.46.46,0,0,1,.5.17,5.77,5.77,0,0,1,.74,3.1,8.41,8.41,0,0,1-.19,2.11,2.65,2.65,0,0,1,1.95,1,2.47,2.47,0,0,1,.63,1.86,2.63,2.63,0,0,1-.87,1.61,2.5,2.5,0,0,1-2.41.58,3.28,3.28,0,0,1-1.34-.94,10.28,10.28,0,0,1-1.89,1.88A7.17,7.17,0,0,1,23.46,25.45ZM27.19,14.2a10.5,10.5,0,0,1,.58,5.44A9.44,9.44,0,0,1,25.33,24,9.24,9.24,0,0,0,26.87,23a8.24,8.24,0,0,0,2-2.15.44.44,0,0,1,.39-.24.45.45,0,0,1,.4.22A2.79,2.79,0,0,0,31,22a1.59,1.59,0,0,0,1.5-.39,1.46,1.46,0,0,0,.14-2.21,1.86,1.86,0,0,0-1.75-.66.44.44,0,0,1-.45-.14.46.46,0,0,1-.08-.46,7.13,7.13,0,0,0,.32-2.41,6.29,6.29,0,0,0-.44-2.32Z"/></g><g id="_Group_6" data-name="&lt;Group&gt;"><path class="cls-2" d="M15.53,32.57l-.13,0a5.88,5.88,0,0,1-2.46-2.06,8.19,8.19,0,0,1-1.09-1.82A2.64,2.64,0,0,1,9.68,29a2.49,2.49,0,0,1-1.62-1.12,2.61,2.61,0,0,1-.24-1.82,2.52,2.52,0,0,1,1.6-1.9,3.16,3.16,0,0,1,1.64,0,9.89,9.89,0,0,1,.42-2.61,7.08,7.08,0,0,1,2.19-3.71.46.46,0,0,1,.69.53,9.52,9.52,0,0,0,.1,6.32,10.21,10.21,0,0,0,3.75,3.9.48.48,0,0,1,.23.31.49.49,0,0,1-.09.37L15.9,32.39A.49.49,0,0,1,15.53,32.57Zm-3.48-5.12h.1a.47.47,0,0,1,.35.33,6.53,6.53,0,0,0,1.16,2.13,6.56,6.56,0,0,0,1.74,1.62l1.91-2.47A10.35,10.35,0,0,1,13.63,25,9.37,9.37,0,0,1,13,20.11a10,10,0,0,0-.66,1.66A7.88,7.88,0,0,0,12,24.69a.46.46,0,0,1-.18.43.45.45,0,0,1-.46.05A2.76,2.76,0,0,0,9.69,25a1.6,1.6,0,0,0-1,1.21,1.45,1.45,0,0,0,1.19,1.87,1.78,1.78,0,0,0,1.79-.51A.44.44,0,0,1,12.05,27.45Z"/></g><g id="_Group_7" data-name="&lt;Group&gt;"><path class="cls-2" d="M23.53,33.77a2.64,2.64,0,0,1-1.34-.39,2.52,2.52,0,0,1-1.3-2.12,3.28,3.28,0,0,1,.48-1.58A9.37,9.37,0,0,1,19,28.47a7.11,7.11,0,0,1-2.85-3.21.47.47,0,0,1,.18-.52.45.45,0,0,1,.54,0,9.48,9.48,0,0,0,6,1.85,10.1,10.1,0,0,0,4.89-2.36.47.47,0,0,1,.36-.11.47.47,0,0,1,.33.2l2.19,3.33a.45.45,0,0,1,0,.51A5.53,5.53,0,0,1,28,29.88a8,8,0,0,1-2.05.49,2.72,2.72,0,0,1-.34,2.15A2.53,2.53,0,0,1,24,33.72,2.48,2.48,0,0,1,23.53,33.77Zm-5.37-7.19a8.5,8.5,0,0,0,1.37,1.14A7.8,7.8,0,0,0,22.19,29a.46.46,0,0,1,.27.75,2.76,2.76,0,0,0-.65,1.57,1.64,1.64,0,0,0,.85,1.32A1.44,1.44,0,0,0,24.79,32a1.85,1.85,0,0,0,.07-1.86.45.45,0,0,1,.41-.69A6.5,6.5,0,0,0,27.65,29a6,6,0,0,0,2.07-1.15L28,25.27a10.23,10.23,0,0,1-5,2.25A9.3,9.3,0,0,1,18.16,26.58Z"/></g><g id="_Group_8" data-name="&lt;Group&gt;"><path class="cls-2" d="M10.26,21.39a.41.41,0,0,1-.16,0L6.35,20a.46.46,0,0,1-.3-.43,6,6,0,0,1,1.22-3,8,8,0,0,1,1.39-1.6,2.62,2.62,0,0,1-1-2,2.35,2.35,0,0,1,2.25-2.64,2.52,2.52,0,0,1,2.3,1,3.22,3.22,0,0,1,.54,1.55,9.87,9.87,0,0,1,2.62-.39,7.39,7.39,0,0,1,4.2,1,.46.46,0,0,1,.16.52.42.42,0,0,1-.45.31,9.35,9.35,0,0,0-6,2A10.27,10.27,0,0,0,10.7,21a.43.43,0,0,1-.22.3A.46.46,0,0,1,10.26,21.39ZM7,19.23l2.92,1.09a10.51,10.51,0,0,1,2.75-4.75,9.25,9.25,0,0,1,4.49-2.06,9.06,9.06,0,0,0-1.77-.14,7.43,7.43,0,0,0-2.89.55.46.46,0,0,1-.66-.46,2.72,2.72,0,0,0-.38-1.64A1.62,1.62,0,0,0,10,11.25a1.45,1.45,0,0,0-1.42,1.69,1.84,1.84,0,0,0,1,1.55.47.47,0,0,1,.27.38.48.48,0,0,1-.21.43A6.32,6.32,0,0,0,8,17,6.68,6.68,0,0,0,7,19.23Z"/></g></g></g></svg>