<svg xmlns="http://www.w3.org/2000/svg" viewBox="0 0 40 40"><defs><style>.cls-1{fill:none;}.cls-2{fill:#6e7883;}</style></defs><title>testimonial carousel</title><g id="Layer_2" data-name="Layer 2"><g id="Layer_1-2" data-name="Layer 1"><rect class="cls-1" width="40" height="40"/><path class="cls-2" d="M16.93,24.92a.51.51,0,0,1-.17,0,.47.47,0,0,1-.29-.43v-.83h-.65a1,1,0,0,1-1-1V18.37a1,1,0,0,1,1-1h4.67a1,1,0,0,1,1,1v4.26a1,1,0,0,1-1,1H18.3l-1,1.14A.5.5,0,0,1,16.93,24.92Zm1.23-1.29Zm2.33-5.35H15.83a.09.09,0,0,0-.09.08v4.26a.08.08,0,0,0,.08.08h1a.59.59,0,0,1,.59.57l.34-.37a.57.57,0,0,1,.44-.2h2.33a.08.08,0,0,0,.08-.08V18.36A.09.09,0,0,0,20.49,18.28Z"/><path class="cls-2" d="M23.07,23.18a.46.46,0,0,1-.34-.15l-1-1.13H21a.45.45,0,0,1-.46-.45V18.36a.09.09,0,0,0-.08-.08H19a.48.48,0,0,1-.46-.46V16.35a1,1,0,0,1,1-1h4.67a1,1,0,0,1,1,1V20.9a1,1,0,0,1-1,1h-.65v.83a.47.47,0,0,1-.29.42A.51.51,0,0,1,23.07,23.18ZM21.84,21.9Zm-.24-.11h0ZM21.49,21h.35a.57.57,0,0,1,.44.2l.34.36a.59.59,0,0,1,.59-.56h1a.09.09,0,0,0,.08-.08V16.36a.09.09,0,0,0-.08-.08H19.51a.09.09,0,0,0-.08.08v1h1.06a1,1,0,0,1,1,1Z"/><path class="cls-2" d="M28.75,9.11H11.25a.46.46,0,0,1,0-.91h17.5a.46.46,0,0,1,0,.91Z"/><path class="cls-2" d="M27.73,34.72H12.27A1.74,1.74,0,0,1,10.54,33V7a1.74,1.74,0,0,1,1.73-1.73H27.73A1.74,1.74,0,0,1,29.46,7V33A1.74,1.74,0,0,1,27.73,34.72ZM12.27,6.2a.81.81,0,0,0-.81.81V33a.81.81,0,0,0,.81.81H27.73a.81.81,0,0,0,.81-.81V7a.81.81,0,0,0-.81-.81Z"/><path class="cls-2" d="M26.68,21.63a.47.47,0,0,1-.28-.09.46.46,0,0,1-.08-.65l.39-.5-.39-.5a.46.46,0,0,1,.08-.64.45.45,0,0,1,.65.08l.6.77a.41.41,0,0,1,.05.09.46.46,0,0,1,.05.2.65.65,0,0,1,0,.19l-.06.1-.61.78A.48.48,0,0,1,26.68,21.63Z"/><path class="cls-2" d="M13.33,21.57A.46.46,0,0,1,13,21.4l-.61-.79a.15.15,0,0,1-.06-.09.45.45,0,0,1-.05-.19.46.46,0,0,1,.05-.2.24.24,0,0,1,.06-.09l.6-.78a.46.46,0,0,1,.72.57l-.39.5.4.5a.45.45,0,0,1-.36.74Z"/></g></g></svg>