<!-- Generated by IcoMoon.io -->
<svg version="1.1" xmlns="http://www.w3.org/2000/svg" width="32" height="32" viewBox="0 0 32 32">
<title>undo</title>
<path d="M4.134 20.22c0.148-0.050 0.319-0.078 0.496-0.078 0.747 0 1.375 0.507 1.559 1.196l0.003 0.011c1.142 4.187 4.882 7.225 9.342 7.288l0.007 0h0.188c5.319-0.060 9.641-4.251 9.91-9.512l0.001-0.024c0-0.006 0-0.013 0-0.020 0-2.744-1.067-5.238-2.81-7.091l0.005 0.005c-1.575-1.664-3.727-2.768-6.134-2.992l-0.038-0.003 3.366 2.805c0.379 0.318 0.618 0.793 0.618 1.323 0 0.952-0.772 1.724-1.724 1.724-0.437 0-0.836-0.162-1.139-0.43l0.002 0.002-6.163-5.423c-0.304-0.314-0.492-0.743-0.492-1.215s0.188-0.901 0.492-1.216l-0 0 5.227-5.98c0.324-0.361 0.792-0.587 1.313-0.587 0.425 0 0.815 0.151 1.12 0.402l-0.003-0.002c0.359 0.284 0.587 0.72 0.587 1.21 0 0.399-0.151 0.762-0.4 1.035l0.001-0.001-2.618 2.989c5.667 0.416 10.309 4.362 11.758 9.63l0.022 0.092c0.245 0.964 0.386 2.070 0.386 3.21 0 6.193-4.153 11.415-9.826 13.034l-0.096 0.023c-0.845 0.248-1.815 0.391-2.818 0.391-0.193 0-0.384-0.005-0.574-0.016l0.026 0.001c-2.404-0.003-4.662-0.627-6.622-1.72l0.069 0.035c-2.992-1.77-5.202-4.592-6.14-7.945l-0.022-0.094c-0.018-0.097-0.028-0.209-0.028-0.323 0-0.775 0.468-1.441 1.138-1.729l0.012-0.005z"></path>
</svg>
