<svg xmlns="http://www.w3.org/2000/svg" viewBox="0 0 40 40"><defs><style>.cls-1{fill:none;}.cls-2{fill:#6e7883;}</style></defs><title>upsells</title><g id="Layer_2" data-name="Layer 2"><g id="Layer_1-2" data-name="Layer 1"><rect class="cls-1" width="40" height="40"/><path class="cls-2" d="M22.6,25.16H11.69a1.25,1.25,0,0,1,0-2.49H22.81a.46.46,0,1,1,0,.92H11.69a.33.33,0,1,0,0,.65H22.6a.46.46,0,0,1,0,.92Z"/><path class="cls-2" d="M22.6,26.73H11.69a2.82,2.82,0,0,1-1.46-5.22L7.55,9.45H3.79A1.24,1.24,0,1,1,3.79,7H8.55a1.22,1.22,0,0,1,1.21,1l.49,2.17H29a1.23,1.23,0,0,1,1,.49,1.25,1.25,0,0,1,.21,1.09l-1.93,6.75a.46.46,0,0,1-.57.32.46.46,0,0,1-.31-.57l1.93-6.75a.38.38,0,0,0-.06-.29A.33.33,0,0,0,29,11H9.88a.46.46,0,0,1-.45-.35L8.87,8.14a.33.33,0,0,0-.32-.26H3.79a.33.33,0,0,0,0,.66H7.92a.47.47,0,0,1,.45.36L11.2,21.66a.46.46,0,0,1-.26.52,1.89,1.89,0,0,0,.75,3.63H22.6a.46.46,0,0,1,0,.92Z"/><path class="cls-2" d="M14.35,32.74A2.76,2.76,0,1,1,17.1,30,2.75,2.75,0,0,1,14.35,32.74Zm0-4.59A1.84,1.84,0,1,0,16.19,30,1.84,1.84,0,0,0,14.35,28.15Z"/><path class="cls-2" d="M23.22,32.74a2.75,2.75,0,0,1-.49-5.46.45.45,0,0,1,.53.37.45.45,0,0,1-.37.53,1.84,1.84,0,1,0,1.95,2.68.45.45,0,0,1,.62-.18.46.46,0,0,1,.18.62A2.75,2.75,0,0,1,23.22,32.74Z"/><path class="cls-2" d="M29.8,33a7.66,7.66,0,1,1,7.66-7.65A7.66,7.66,0,0,1,29.8,33Zm0-14.39a6.74,6.74,0,1,0,6.74,6.74A6.75,6.75,0,0,0,29.8,18.64Z"/><path class="cls-2" d="M29.8,29.38a.47.47,0,0,1-.46-.46V22.27a.46.46,0,0,1,.92,0v6.65A.47.47,0,0,1,29.8,29.38Z"/><path class="cls-2" d="M32.19,24.54a.47.47,0,0,1-.28-.09l-2.39-1.82a.45.45,0,0,1-.08-.64.46.46,0,0,1,.64-.09l2.38,1.82a.46.46,0,0,1-.27.82Z"/><path class="cls-2" d="M27.42,24.54a.46.46,0,0,1-.28-.82l2.39-1.82a.46.46,0,1,1,.55.73L27.7,24.45A.51.51,0,0,1,27.42,24.54Z"/><path class="cls-2" d="M19,19.55a2.74,2.74,0,0,1-1.41-.4.55.55,0,0,1-.16-.75.54.54,0,0,1,.75-.15,1.45,1.45,0,0,0,1.17.15c.05,0,.17-.09.16-.39s-.1-.44-.65-.62a1.54,1.54,0,0,1-1.33-1.52,1.52,1.52,0,0,1,.91-1.49,2.09,2.09,0,0,1,2.07.33.55.55,0,0,1,0,.77.54.54,0,0,1-.76,0,1.08,1.08,0,0,0-.9-.12c-.07,0-.25.11-.25.5s0,.31.58.49A1.65,1.65,0,0,1,20.64,18a1.46,1.46,0,0,1-.73,1.35A1.88,1.88,0,0,1,19,19.55Z"/><path class="cls-2" d="M19.1,15a.54.54,0,0,1-.54-.54v-.67a.54.54,0,0,1,1.08,0v.67A.54.54,0,0,1,19.1,15Z"/><path class="cls-2" d="M19.1,20.41a.54.54,0,0,1-.54-.54v-.66a.54.54,0,0,1,1.08,0v.66A.54.54,0,0,1,19.1,20.41Z"/></g></g></svg>