<?xml version="1.0" encoding="utf-8"?>
<!-- Generator: Adobe Illustrator 22.0.1, SVG Export Plug-In . SVG Version: 6.00 Build 0)  -->
<svg version="1.1" id="Layer_1" xmlns="http://www.w3.org/2000/svg" xmlns:xlink="http://www.w3.org/1999/xlink" x="0px" y="0px"
	 viewBox="0 0 40 40" style="enable-background:new 0 0 40 40;" xml:space="preserve">
<style type="text/css">
	.st0{fill:#6E7883;}
	.st1{fill:none;}
</style>
<g>
	<g>
		<g>
			<path class="st0" d="M20.4,30.3h-9.7c-0.8,0-1.5-0.3-2-0.9c-0.5-0.6-0.8-1.3-0.7-2.1L9.3,12c0-0.2,0.2-0.4,0.5-0.4h15
				c0.2,0,0.4,0.2,0.5,0.4l0.4,5.1c0,0.3-0.2,0.5-0.4,0.5c-0.3,0-0.5-0.2-0.5-0.4l-0.4-4.6H10.1L8.9,27.4c0,0.5,0.1,1,0.5,1.4
				c0.3,0.4,0.8,0.6,1.3,0.6h9.7c0.3,0,0.5,0.2,0.5,0.5S20.7,30.3,20.4,30.3z"/>
		</g>
		<g>
			<path class="st0" d="M21.2,14.8c-0.3,0-0.5-0.2-0.5-0.5v-2.5c0-2-1.6-3.6-3.6-3.6c-2,0-3.6,1.6-3.6,3.6v2.5
				c0,0.3-0.2,0.5-0.5,0.5s-0.5-0.2-0.5-0.5v-2.5c0-2.5,2-4.5,4.5-4.5c2.5,0,4.5,2,4.5,4.5v2.5C21.7,14.6,21.5,14.8,21.2,14.8z"/>
		</g>
		<g>
			<path class="st0" d="M26,32.7c-4.4,0-8-3.6-8-8c0-4.4,3.6-8,8-8c4.4,0,8,3.6,8,8C34,29.1,30.4,32.7,26,32.7z M26,17.6
				c-3.9,0-7.1,3.2-7.1,7.1c0,3.9,3.2,7.1,7.1,7.1c3.9,0,7.1-3.2,7.1-7.1C33.1,20.8,29.9,17.6,26,17.6z"/>
		</g>
		<g>
			<g>
				<path class="st0" d="M26,28.5c-0.8,0-1.5-0.3-2-0.6c-0.2-0.1-0.3-0.4-0.1-0.6c0.1-0.2,0.4-0.3,0.6-0.1c0.5,0.3,1.6,0.6,2.2,0.2
					c0.3-0.2,0.5-0.5,0.5-0.9c0-0.9-0.4-1.1-1.3-1.3c-0.8-0.2-1.8-0.6-1.8-2c0-0.9,0.4-1.6,1.2-2c1-0.4,2.2-0.1,2.8,0.4
					c0.2,0.2,0.2,0.5,0,0.6c-0.2,0.2-0.5,0.2-0.6,0c-0.3-0.3-1.2-0.5-1.8-0.3c-0.4,0.2-0.6,0.5-0.6,1.1c0,0.7,0.4,0.9,1.2,1.1
					c0.8,0.3,1.9,0.6,1.9,2.2c0,1-0.5,1.5-0.9,1.8C26.8,28.4,26.4,28.5,26,28.5z"/>
			</g>
			<g>
				<path class="st0" d="M26.1,21.5c-0.3,0-0.5-0.2-0.5-0.5v-1c0-0.3,0.2-0.5,0.5-0.5s0.5,0.2,0.5,0.5v1
					C26.5,21.3,26.3,21.5,26.1,21.5z"/>
			</g>
			<g>
				<path class="st0" d="M26.1,29.8c-0.3,0-0.5-0.2-0.5-0.5v-1c0-0.3,0.2-0.5,0.5-0.5s0.5,0.2,0.5,0.5v1
					C26.5,29.6,26.3,29.8,26.1,29.8z"/>
			</g>
		</g>
	</g>
	<g>
		<rect y="0" class="st1" width="40" height="40"/>
	</g>
</g>
</svg>
