<svg xmlns="http://www.w3.org/2000/svg" viewBox="0 0 40 40"><defs><style>.cls-1{fill:none;}.cls-2{fill:#6e7883;}</style></defs><title>facebook feed</title><g id="Layer_2" data-name="Layer 2"><g id="Layer_1-2" data-name="Layer 1"><rect class="cls-1" width="40" height="40"/><path class="cls-2" d="M21,34.62H18.14a1.24,1.24,0,0,1-1.24-1.23V21.94a.31.31,0,0,0-.32-.31H13.63a1.24,1.24,0,0,1-1.23-1.24V17.68a1.24,1.24,0,0,1,1.23-1.24h2.95a.32.32,0,0,0,.32-.32V12.58c0-4.24,2.57-6.87,6.69-6.87h2.78A1.24,1.24,0,0,1,27.6,7V9.31a1.24,1.24,0,0,1-1.23,1.24H24.85a2.76,2.76,0,0,0-2.09.68,2.79,2.79,0,0,0-.5,1.87v3a.31.31,0,0,0,.31.32h3.61a1.25,1.25,0,0,1,1.24,1.24v2.71a1.25,1.25,0,0,1-1.24,1.24H22.57a.31.31,0,0,0-.31.31V33.39A1.24,1.24,0,0,1,21,34.62ZM13.63,17.36a.31.31,0,0,0-.31.32v2.71a.31.31,0,0,0,.31.32h2.95a1.24,1.24,0,0,1,1.24,1.23V33.39a.32.32,0,0,0,.32.32H21a.32.32,0,0,0,.32-.32V21.94a1.23,1.23,0,0,1,1.23-1.23h3.61a.32.32,0,0,0,.32-.32V17.68a.32.32,0,0,0-.32-.32H22.57a1.23,1.23,0,0,1-1.23-1.24v-3a3.59,3.59,0,0,1,.74-2.48,3.54,3.54,0,0,1,2.77-1h1.52a.31.31,0,0,0,.31-.32V7a.31.31,0,0,0-.31-.32H23.59c-3.61,0-5.77,2.23-5.77,6v3.54a1.24,1.24,0,0,1-1.24,1.24Z"/></g></g></svg>