<svg xmlns="http://www.w3.org/2000/svg" viewBox="0 0 40 40"><defs><style>.cls-1{fill:none;}.cls-2{fill:#6e7883;}</style></defs><title>instagram feed</title><g id="Layer_2" data-name="Layer 2"><g id="Layer_1-2" data-name="Layer 1"><rect class="cls-1" width="40" height="40"/><path class="cls-2" d="M26.08,32.15H13.92a6.07,6.07,0,0,1-6.07-6.07V13.92a6.07,6.07,0,0,1,6.07-6.07H26.08a6.07,6.07,0,0,1,6.07,6.07V26.08A6.07,6.07,0,0,1,26.08,32.15ZM13.92,8.76a5.17,5.17,0,0,0-5.16,5.16V26.08a5.17,5.17,0,0,0,5.16,5.16H26.08a5.17,5.17,0,0,0,5.16-5.16V13.92a5.17,5.17,0,0,0-5.16-5.16Z"/><path class="cls-2" d="M20,26a6,6,0,1,1,6-6A6,6,0,0,1,20,26Zm0-11A5,5,0,1,0,25,20,5.05,5.05,0,0,0,20,15Z"/><path class="cls-2" d="M26.87,14.66a1.82,1.82,0,1,1,1.82-1.82A1.83,1.83,0,0,1,26.87,14.66Zm0-2.73a.91.91,0,1,0,0,1.81.91.91,0,0,0,0-1.81Z"/></g></g></svg>