<svg xmlns="http://www.w3.org/2000/svg" viewBox="0 0 40 40"><defs><style>.cls-1{fill:none;}.cls-2{fill:#6e7883;}</style></defs><title>woocommerce pages</title><g id="Layer_2" data-name="Layer 2"><g id="Layer_1-2" data-name="Layer 1"><rect class="cls-1" width="40" height="40"/><path class="cls-2" d="M14.73,8.73H9.94a.46.46,0,0,1-.42-.27A.47.47,0,0,1,9.6,8l4.78-5.45a.46.46,0,0,1,.51-.12.43.43,0,0,1,.29.42V8.27A.45.45,0,0,1,14.73,8.73ZM11,7.82h3.32V4Z"/><path class="cls-2" d="M21.24,33.19h-10A1.79,1.79,0,0,1,9.48,31.4V8.27a.46.46,0,1,1,.92,0V31.4a.87.87,0,0,0,.87.87h10a.46.46,0,1,1,0,.92ZM28.81,22a.47.47,0,0,1-.46-.46V4.15a.87.87,0,0,0-.87-.87H14.72a.46.46,0,1,1,0-.91H27.48a1.79,1.79,0,0,1,1.79,1.78V21.54A.46.46,0,0,1,28.81,22Z"/><path class="cls-2" d="M23.11,35.64H13.72a1.79,1.79,0,0,1-1.79-1.79V32.73a.46.46,0,1,1,.92,0v1.12a.87.87,0,0,0,.87.87h9.39a.46.46,0,1,1,0,.92Zm8.15-13a.46.46,0,0,1-.45-.46V6.6a.87.87,0,0,0-.88-.87H28.81a.46.46,0,1,1,0-.91h1.12A1.79,1.79,0,0,1,31.72,6.6V22.15A.46.46,0,0,1,31.26,22.61Z"/><path class="cls-2" d="M28.14,37.28a8,8,0,1,1,8-8A8,8,0,0,1,28.14,37.28Zm0-15.1a7.1,7.1,0,1,0,7.09,7.09A7.11,7.11,0,0,0,28.14,22.18Z"/><path class="cls-2" d="M26.41,30.54h4.32a.25.25,0,0,0,.23-.17L31.91,27a.23.23,0,0,0,0-.21.22.22,0,0,0-.19-.09H25.86L25.69,26a.24.24,0,0,0-.23-.19H24a.24.24,0,0,0-.24.24.23.23,0,0,0,.24.24h1.25l.87,3.88a.72.72,0,0,0,.28,1.38h4.32a.24.24,0,0,0,0-.48H26.41a.24.24,0,0,1,0-.48Z"/><path class="cls-2" d="M26.52,32.63a.7.7,0,1,0,.7-.7A.7.7,0,0,0,26.52,32.63Z"/><path class="cls-2" d="M29.22,32.63a.7.7,0,1,0,.7-.7A.7.7,0,0,0,29.22,32.63Z"/></g></g></svg>