<svg xmlns="http://www.w3.org/2000/svg" viewBox="0 0 40 40"><defs><style>.cls-1{fill:none;}.cls-2{fill:#6e7883;}</style></defs><title>youtube_1</title><g id="Layer_2" data-name="Layer 2"><g id="Layer_1-2" data-name="Layer 1"><rect class="cls-1" width="40" height="40"/><g id="_Group_" data-name="&lt;Group&gt;"><path class="cls-2" d="M16.77,26.61a1.14,1.14,0,0,1-.54-.14,1.13,1.13,0,0,1-.58-1v-11a1.12,1.12,0,0,1,1.72-.95l8.54,5.49a1.11,1.11,0,0,1,.52.94,1.12,1.12,0,0,1-.51.94h0l-8.54,5.49A1.08,1.08,0,0,1,16.77,26.61Zm0-12.3a.2.2,0,0,0-.1,0,.19.19,0,0,0-.11.18v11a.19.19,0,0,0,.11.18.17.17,0,0,0,.2,0l8.55-5.48a.22.22,0,0,0,.09-.18.21.21,0,0,0-.1-.18l-8.54-5.48A.19.19,0,0,0,16.77,14.31Zm8.9,6.25h0Z"/></g><g id="Path_97356" data-name="Path 97356"><path class="cls-2" d="M20,33.09C6.91,33.09,6.91,26.73,6.91,20S6.91,6.91,20,6.91,33.09,13.27,33.09,20,33.09,33.09,20,33.09ZM20,7.83C7.83,7.83,7.83,13.2,7.83,20S7.83,32.17,20,32.17,32.17,26.8,32.17,20,32.17,7.83,20,7.83Z"/></g></g></g></svg>