<svg xmlns="http://www.w3.org/2000/svg" width="21" height="21" viewBox="0 0 21 21"><defs><style>.a{fill:none;}.b{fill:#2160b5;}</style></defs><g transform="translate(-782 -1475.5)"><rect class="a" width="21" height="21" transform="translate(782 1475.5)"/><g transform="translate(782 1480.75)"><g transform="translate(0)"><path class="b" d="M5.011,8.4A2.975,2.975,0,0,1,2.387,6.883a3.205,3.205,0,0,1,0-3.267A3.031,3.031,0,0,1,5.13,2.1H9.544V0H5.011A5.129,5.129,0,0,0,0,5.25,5.152,5.152,0,0,0,5.13,10.5H9.544V8.4Z" transform="translate(0.004)"/><path class="b" d="M18.447,2.567A5.04,5.04,0,0,0,14.033,0H9.5V2.1h4.533a2.975,2.975,0,0,1,2.624,1.517,3.205,3.205,0,0,1,0,3.267A3.031,3.031,0,0,1,13.914,8.4H9.5v2.1h4.533a5.04,5.04,0,0,0,4.414-2.567A5.387,5.387,0,0,0,18.447,2.567Z" transform="translate(1.837)"/></g><rect class="b" width="7.993" height="2.217" transform="translate(6.446 4.083)"/></g></g></svg>