<svg xmlns="http://www.w3.org/2000/svg" width="21.333" height="20" viewBox="0 0 21.333 20"><defs><style>.a{fill:#fff;}</style></defs><path class="a" d="M2.5,20A2.5,2.5,0,0,1,0,17.5V2.5A2.5,2.5,0,0,1,2.5,0H18.833a2.5,2.5,0,0,1,2.5,2.5v15a2.5,2.5,0,0,1-2.5,2.5Zm16.333-1.667a.834.834,0,0,0,.833-.833V6.667h-5.4V18.333ZM1.667,17.5a.834.834,0,0,0,.833.833H12.6V13.375H1.667ZM12.6,11.708V6.667H1.667v5.042ZM1.667,2.5V5h18V2.5a.834.834,0,0,0-.833-.833H2.5A.834.834,0,0,0,1.667,2.5Zm4.167.833a.833.833,0,1,1,.833.833A.833.833,0,0,1,5.833,3.333Zm-2.917,0a.833.833,0,1,1,.833.833A.833.833,0,0,1,2.917,3.333Z"/></svg>