<svg id="Component_2_49" data-name="Component 2 – 49" xmlns="http://www.w3.org/2000/svg" width="22" height="22" viewBox="0 0 22 22">
  <g id="Path_111562" data-name="Path 111562" fill="rgba(186,195,207,0.12)">
    <path d="M11,0A11,11,0,1,1,0,11,11,11,0,0,1,11,0Z" stroke="none"/>
    <path d="M 11.00000095367432 1.000001907348633 C 5.485980987548828 1.000001907348633 1.000001907348633 5.485980987548828 1.000001907348633 11.00000095367432 C 1.000001907348633 16.5140209197998 5.485980987548828 21 11.00000095367432 21 C 16.5140209197998 21 21 16.5140209197998 21 11.00000095367432 C 21 5.485980987548828 16.5140209197998 1.000001907348633 11.00000095367432 1.000001907348633 M 11.00000095367432 1.9073486328125e-06 C 17.07513046264648 1.9073486328125e-06 22 4.924871444702148 22 11.00000095367432 C 22 17.07513046264648 17.07513046264648 22 11.00000095367432 22 C 4.924871444702148 22 1.9073486328125e-06 17.07513046264648 1.9073486328125e-06 11.00000095367432 C 1.9073486328125e-06 4.924871444702148 4.924871444702148 1.9073486328125e-06 11.00000095367432 1.9073486328125e-06 Z" stroke="none" fill="rgba(186,195,207,0.5)"/>
  </g>
  <g id="Check" transform="translate(4.845 4.846)" opacity="0.5">
    <rect id="Rectangle_2017" data-name="Rectangle 2017" width="12.309" height="12.309" fill="none"/>
    <path id="checking" d="M12.025.419h0A1.027,1.027,0,0,0,11.335.1a.866.866,0,0,0-.69.319l-6.407,6.8L1.774,4.458a1.015,1.015,0,0,0-1.478,0A1,1,0,0,0,0,5.2a1,1,0,0,0,.3.744L3.548,9.454a.906.906,0,0,0,1.38,0l7-7.547A1,1,0,0,0,12.025.419Z" transform="translate(0 1.218)" fill="#323a45"/>
  </g>
</svg>
