<svg xmlns="http://www.w3.org/2000/svg" width="22" height="22" viewBox="0 0 22 22"><defs><style>.a{fill:#f8c332;}.b{fill:none;}.c{fill:#fff;}</style></defs><path class="a" d="M11,0A11,11,0,1,1,0,11,11,11,0,0,1,11,0Z"/><g transform="translate(4.783 4.783)"><rect class="b" width="12.435" height="12.435"/><path class="c" d="M12.147.422h0A1.037,1.037,0,0,0,11.45.1a.875.875,0,0,0-.7.322L4.281,7.294,1.792,4.5A1.025,1.025,0,0,0,.3,4.5a1.012,1.012,0,0,0-.3.752,1.012,1.012,0,0,0,.3.752L3.584,9.549a.915.915,0,0,0,1.394,0l7.069-7.624A1.013,1.013,0,0,0,12.147.422Z" transform="translate(0 1.232)"/></g></svg>